<svg viewBox="0 0 234 234" fill="none" xmlns="http://www.w3.org/2000/svg" role="img" aria-labelledby="ama-title">
<title id="ama-title">React Native AMA</title>
<g clip-path="url(#clip0_8254_558)">
<path fill-rule="evenodd" clip-rule="evenodd" d="M133.475 3.54188L209.902 37.8587C224.564 44.4309 234 59.11 234 75.2846V158.715C234 174.89 224.564 189.53 209.902 196.141L133.475 230.458C122.985 235.181 111.015 235.181 100.486 230.458L24.059 196.141C9.43643 189.49 0 174.851 0 158.676V75.2452C0 59.0706 9.43643 44.4309 24.098 37.8194L100.486 3.54188C110.976 -1.18063 122.985 -1.18063 133.475 3.54188Z" fill="#202020"/>
<path opacity="0.5" d="M215.71 173.905C212.944 178.202 208.97 181.711 204.138 183.879L129.681 217.269C121.655 220.857 112.498 220.857 104.472 217.269L29.9367 183.879C25.1054 181.711 21.1312 178.202 18.3649 173.905C15.5985 169.608 14.04 164.484 14.04 159.122V74.8777C14.04 69.5164 15.5985 64.4309 18.3649 60.0945C21.1312 55.7976 25.1054 52.289 29.9367 50.1208L104.394 16.7305C112.421 13.1431 121.577 13.1431 129.603 16.7305L204.06 50.1208C208.892 52.289 212.866 55.7976 215.632 60.0945C218.399 64.3915 219.957 69.5164 219.957 74.8777V159.122C220.035 164.484 218.477 169.608 215.71 173.905Z" stroke="#CD9AF5" stroke-width="9.36" stroke-miterlimit="10"/>
<path d="M223.433 178.487C219.729 184.238 214.388 188.965 207.916 191.841L131.503 226.189C122.224 230.364 111.62 230.364 102.341 226.189L25.9276 191.841C19.4559 188.926 14.1147 184.238 10.411 178.487C6.70729 172.737 4.67999 165.883 4.67999 158.753V75.2468C4.67999 68.0779 6.78526 61.2634 10.489 55.5125C14.1927 49.7616 19.5338 45.0348 26.0056 42.1594L102.419 7.81148C111.698 3.63616 122.302 3.63616 131.581 7.81148L207.994 42.1594C214.466 45.0742 219.807 49.7616 223.511 55.5125C227.215 61.2634 229.32 68.1173 229.32 75.2468V158.753C229.242 165.883 227.137 172.737 223.433 178.487Z" stroke="#CD9AF5" stroke-width="9.36" stroke-miterlimit="10"/>
<g clip-path="url(#clip1_8254_558)">
<mask id="mask0_8254_558" style="mask-type:luminance" maskUnits="userSpaceOnUse" x="32" y="53" width="165" height="117">
<path d="M196.143 130.519V143.224L196.131 155.744V162.481C196.131 166.342 193 169.471 189.135 169.471H178.55L174.954 169.442H129.042C123.733 169.442 119.429 165.143 119.429 159.839L119.675 154.126C119.675 150.513 118.238 147.047 115.68 144.492L99.2162 128.043C95.486 124.317 90.4277 122.224 85.1542 122.224H61.4217C55.3636 122.224 49.5835 119.684 45.4902 115.222L35.5854 104.426C33.6397 102.482 32.4348 99.9714 32.0974 97.3164C31.9864 96.4452 31.9696 95.5573 32.0503 94.6704C32.0862 94.2695 32.1422 93.8698 32.2196 93.47L32.8809 90.0367C33.8347 85.0772 38.1779 81.4939 43.2317 81.4939H55.4275C58.9469 81.4939 62.1301 80.2555 64.8268 77.9969L88.7947 57.9237C92.5921 54.7435 97.3903 53 102.347 53H122.156C125.578 53 128.859 54.3572 131.278 56.7748L189.816 115.259C190.205 115.647 190.577 116.049 190.933 116.462C191.708 117.365 192.404 118.326 193.015 119.332C195.045 122.677 196.143 126.542 196.143 130.519Z" fill="white"/>
</mask>
<g mask="url(#mask0_8254_558)">
<path d="M196.143 130.519V143.224L196.131 155.744V162.481C196.131 166.342 192.999 169.471 189.135 169.471H178.55L174.954 169.442H129.042C123.733 169.442 119.429 165.143 119.429 159.839L119.675 154.126C119.675 150.513 118.238 147.047 115.68 144.492L99.2162 128.043C95.4861 124.317 90.4278 122.224 85.1543 122.224H64.97C58.9119 122.224 56.3323 119.684 52.239 115.222L42.3342 104.426C40.3884 102.482 39.1835 99.9714 38.8462 97.3164C38.7352 96.4452 38.7184 95.5573 38.7991 94.6704C38.835 94.2695 38.891 93.8698 38.9683 93.47L39.6296 90.0367C40.5834 85.0772 44.9267 81.4939 49.9805 81.4939H56.0039C59.5233 81.4939 62.7064 80.2555 65.4032 77.9969L88.7947 57.9237C92.5921 54.7435 97.3904 53 102.347 53H122.156C125.578 53 128.859 54.3572 131.278 56.7748L189.816 115.259C190.205 115.647 190.577 116.049 190.933 116.462C191.708 117.365 192.404 118.326 193.015 119.332C195.045 122.677 196.143 126.542 196.143 130.519Z" fill="#CD9AF5"/>
<path d="M147.929 73.4114L113.227 108.081L105.621 115.679C104.843 116.458 104.011 117.171 103.137 117.82C99.3272 120.641 94.6869 122.19 89.8864 122.19H86.4488C85.8884 122.142 85.3224 122.117 84.7552 122.117H64.4623C58.4042 122.117 56.5 119.578 52.4067 115.115L42.5019 104.32C40.5561 102.376 39.3512 99.865 39.0138 97.21C38.9029 96.3389 38.8861 95.4509 38.9668 94.564C39.0026 94.1631 39.0587 93.7634 39.136 93.3636L39.7973 89.9304C40.7511 84.9709 45.0944 81.8448 50.1482 81.8448H55.318C58.8374 81.8448 61.9942 80.6341 64.6909 78.3755L88.3957 57.8173C92.1931 54.6371 96.3119 52.8936 101.268 52.8936H121.757C125.179 52.8936 128.46 54.2508 130.879 56.6684L147.929 73.4114Z" fill="#D6ADFF"/>
<g style="mix-blend-mode:multiply">
<path d="M84.0636 83.5834C86.1182 83.5834 87.7837 81.9195 87.7837 79.8669C87.7837 77.8143 86.1182 76.1503 84.0636 76.1503C82.0091 76.1503 80.3436 77.8143 80.3436 79.8669C80.3436 81.9195 82.0091 83.5834 84.0636 83.5834Z" fill="#741ABA"/>
</g>
<path d="M196.188 129.774V142.479L196.176 155V170.12C196.176 173.981 193.044 177.111 189.18 177.111H178.595L174.999 177.082L153.072 171.535V171.647H148.65V148.805C148.887 147.187 149.452 145.608 150.344 144.174C150.349 144.165 150.354 144.155 150.361 144.146C150.863 143.309 151.476 142.519 152.199 141.797C152.199 141.797 171.94 122.067 172.115 121.869C172.214 121.757 172.31 121.643 172.403 121.528L177.172 116.764C177.197 116.733 177.219 116.702 177.243 116.672C180.537 112.315 180.511 106.252 177.169 101.922L190.978 115.718C191.753 116.62 192.449 117.581 193.06 118.588C195.09 121.933 196.188 125.797 196.188 129.774Z" fill="#D6ADFF"/>
<g style="mix-blend-mode:multiply">
<path d="M131.559 146.131L131.551 177.856C124.748 177.856 119.429 174.952 119.429 168.223C119.429 163.414 119.703 151.737 117.271 148.329C114.361 144.256 110.129 138.944 105.368 134.189C100.563 129.389 95.5578 122.749 85.2854 122.184C95.6744 122.184 100.483 120.228 105.871 115.233H105.873L110.779 110.683C110.796 111.308 110.821 112.758 110.779 114.773C110.775 114.924 110.772 115.079 110.767 115.237V115.497C110.767 115.6 110.767 115.703 110.772 115.806C110.772 115.864 110.775 115.924 110.778 115.982V115.994C110.782 116.107 110.789 116.221 110.797 116.334C110.804 116.447 110.813 116.56 110.825 116.673C110.83 116.735 110.837 116.797 110.844 116.859C110.85 116.917 110.857 116.975 110.865 117.034C110.872 117.092 110.88 117.15 110.889 117.208C110.906 117.337 110.927 117.465 110.949 117.593C110.957 117.639 110.965 117.685 110.974 117.73C110.984 117.788 110.995 117.846 111.007 117.904C111.019 117.962 111.031 118.019 111.043 118.076C111.054 118.13 111.067 118.184 111.079 118.236C111.093 118.298 111.107 118.359 111.123 118.421L111.167 118.592C111.181 118.649 111.197 118.706 111.212 118.764C111.244 118.877 111.276 118.99 111.312 119.103C111.33 119.16 111.348 119.216 111.366 119.272C111.384 119.327 111.402 119.383 111.421 119.438C111.478 119.607 111.54 119.775 111.606 119.942C111.626 119.993 111.646 120.045 111.666 120.095C111.691 120.154 111.716 120.214 111.741 120.272C111.758 120.312 111.775 120.351 111.793 120.392C111.849 120.522 111.908 120.65 111.97 120.778C112.008 120.855 112.046 120.934 112.087 121.011C112.125 121.088 112.165 121.165 112.207 121.243C112.389 121.583 112.589 121.917 112.806 122.242L119.372 128.722L119.457 128.806C119.457 128.806 125.9 134.922 127.225 136.188C128.549 137.454 131.476 140.029 131.56 146.131H131.559Z" fill="#9975B5"/>
</g>
<path d="M133.959 149.582L133.951 187.421H130.924C125.64 187.421 120.941 183.927 119.545 179.148C119.501 179.003 119.462 178.859 119.427 178.712C119.205 177.829 119.089 176.907 119.089 175.957L119.144 172.802L119.385 159.127C119.385 158.194 119.543 157.269 119.385 156.361C119.392 143.292 119.407 128.898 119.407 128.898L128.729 137.712C132.008 140.811 133.959 145.099 133.959 149.582Z" fill="#BC8EE0"/>
</g>
<g style="mix-blend-mode:multiply">
<path d="M153.852 93.8731C153.552 94.2559 153.224 94.6234 152.87 94.9746L142.769 105.003L142.397 105.373L136.394 111.329L127.945 119.712L120.062 127.526L119.978 127.445L113.551 121.152C113.338 120.837 113.143 120.513 112.964 120.182C112.924 120.107 112.884 120.032 112.847 119.957C112.807 119.882 112.77 119.807 112.733 119.731C112.672 119.607 112.614 119.482 112.559 119.356C112.542 119.317 112.525 119.278 112.509 119.239C112.484 119.183 112.46 119.125 112.435 119.068C112.416 119.019 112.396 118.969 112.376 118.919C112.311 118.757 112.251 118.593 112.195 118.429C112.177 118.376 112.159 118.322 112.141 118.268C112.124 118.214 112.106 118.16 112.089 118.104C112.054 117.994 112.022 117.884 111.991 117.775C111.976 117.719 111.96 117.664 111.946 117.608L111.903 117.442C111.888 117.382 111.874 117.322 111.861 117.262C111.848 117.211 111.836 117.159 111.825 117.107C111.813 117.052 111.801 116.996 111.79 116.94C111.778 116.884 111.767 116.828 111.757 116.771C111.749 116.727 111.741 116.683 111.733 116.638C111.711 116.513 111.692 116.389 111.674 116.264C111.665 116.208 111.658 116.151 111.651 116.095C111.643 116.038 111.637 115.982 111.63 115.925C111.624 115.865 111.617 115.804 111.611 115.744C111.601 115.635 111.592 115.525 111.584 115.415C111.576 115.305 111.57 115.195 111.565 115.086V115.074C111.563 115.017 111.561 114.959 111.56 114.903C111.557 114.803 111.556 114.703 111.556 114.603V114.35C111.56 114.197 111.563 114.046 111.567 113.899C111.609 111.943 111.584 110.535 111.567 109.928C111.568 109.923 111.567 109.918 111.567 109.913C111.563 109.795 111.561 109.708 111.559 109.656C111.558 109.616 111.557 109.595 111.557 109.595L111.568 81.5837L111.574 65.5319C111.574 59.7536 115.756 54.9431 121.285 53.9144H122.703C126.053 53.9144 129.264 55.2323 131.632 57.58L143.69 69.5323C143.77 69.6117 143.852 69.6911 143.934 69.7726L154.457 80.2027C154.533 80.319 154.607 80.4365 154.678 80.5539C157.173 84.687 156.896 90.0032 153.851 93.8731H153.852Z" fill="#BC8EE0"/>
<g style="mix-blend-mode:multiply">
<path d="M153.851 93.722L119.97 127.526L113.542 121.19C113.329 120.872 113.134 120.546 112.955 120.213C112.094 118.611 111.628 116.853 111.556 115.081V113.887L111.558 109.888C111.559 109.883 111.558 109.878 111.558 109.873L111.57 81.3474H155.231C157.11 85.3328 156.649 90.1416 153.851 93.722Z" fill="#BC8EE0"/>
</g>
<g style="mix-blend-mode:multiply">
<path d="M152.447 94.933L142.449 104.975L142.081 105.345L136.14 111.308L127.778 119.702L119.975 127.526L113.531 121.144C113.32 120.828 113.127 120.504 112.95 120.173C112.069 118.524 111.605 116.71 111.56 114.887C111.557 114.787 111.556 114.686 111.556 114.586C111.556 114.486 111.556 114.378 111.56 114.274C111.636 111.349 112.787 108.447 115.014 106.215C115.014 106.215 139.514 81.6382 139.683 81.4454C139.878 81.2233 140.063 80.9947 140.237 80.7617C143.545 76.3718 143.399 70.2018 139.801 65.9698C139.621 65.7564 139.43 65.5484 139.232 65.3448C139.59 65.7031 141.188 67.2937 143.363 69.4582C143.442 69.5377 143.522 69.6171 143.604 69.6988C144.766 70.8551 146.081 72.1638 147.452 73.528C149.062 75.1306 150.749 76.8106 152.36 78.4143C152.874 78.9261 153.38 79.4291 153.873 79.9201C153.923 79.9941 153.972 80.0671 154.02 80.1422C156.98 84.7281 156.454 90.9155 152.447 94.933Z" fill="#AA82CA"/>
</g>
</g>
</g>
</g>
<defs>
<clipPath id="clip0_8254_558">
<rect width="234" height="234" fill="white"/>
</clipPath>
<clipPath id="clip1_8254_558">
<rect width="164.598" height="116.59" fill="white" transform="translate(32 53)"/>
</clipPath>
</defs>
</svg>
