<svg viewBox="0 0 600 600" fill="none" xmlns="http://www.w3.org/2000/svg" role="img" aria-labelledby="ama-title">
<title id="ama-title">React Native AMA</title>
<g clip-path="url(#clip0_8282_461)">
<path fill-rule="evenodd" clip-rule="evenodd" d="M342.243 9.08174L538.21 97.0737C575.804 113.925 600 151.564 600 193.037V406.963C600 448.436 575.804 485.974 538.21 502.926L342.243 590.918C315.347 603.027 284.653 603.027 257.657 590.918L61.6897 502.926C24.196 485.873 0 448.335 0 406.862V192.936C0 151.463 24.196 113.925 61.7897 96.9728L257.657 9.08174C284.553 -3.02725 315.347 -3.02725 342.243 9.08174Z" fill="#202020"/>
<path opacity="0.5" d="M553.103 445.911C546.01 456.929 535.82 465.926 523.432 471.485L332.515 557.101C311.935 566.3 288.458 566.3 267.877 557.101L76.7609 471.485C64.3728 465.926 54.1825 456.929 47.0894 445.911C39.9962 434.893 36 421.753 36 408.006V191.994C36 178.247 39.9962 165.208 47.0894 154.089C54.1825 143.071 64.3728 134.074 76.7609 128.515L267.677 42.8988C288.258 33.7004 311.735 33.7004 332.315 42.8988L523.232 128.515C535.62 134.074 545.81 143.071 552.904 154.089C559.997 165.107 563.993 178.247 563.993 191.994V408.006C564.193 421.753 560.197 434.893 553.103 445.911Z" stroke="#7134C3" stroke-width="24" stroke-miterlimit="10"/>
<path d="M572.905 457.66C563.408 472.406 549.713 484.526 533.119 491.899L337.187 579.971C313.395 590.676 286.205 590.676 262.413 579.971L66.4811 491.899C49.8868 484.425 36.1916 472.406 26.6949 457.66C17.1982 442.914 12 425.34 12 407.059V192.941C12 174.559 17.3981 157.086 26.8948 142.34C36.3915 127.594 50.0868 115.474 66.681 108.101L262.613 20.0295C286.405 9.32351 313.595 9.32351 337.387 20.0295L533.319 108.101C549.913 115.575 563.608 127.594 573.105 142.34C582.602 157.086 588 174.66 588 192.941V407.059C587.8 425.34 582.402 442.914 572.905 457.66Z" stroke="#9B5EDF" stroke-width="24" stroke-miterlimit="10"/>
<path d="M132.831 415.606H124.912V430H117.416V393.294H135.42C137.994 393.344 139.969 393.659 141.347 394.24C142.742 394.821 143.92 395.676 144.883 396.805C145.68 397.735 146.311 398.764 146.776 399.893C147.241 401.022 147.473 402.309 147.473 403.753C147.473 405.496 147.033 407.214 146.153 408.908C145.273 410.584 143.821 411.771 141.795 412.469C143.489 413.149 144.684 414.121 145.381 415.382C146.095 416.627 146.452 418.537 146.452 421.11V423.575C146.452 425.252 146.519 426.389 146.651 426.987C146.851 427.933 147.315 428.63 148.046 429.079V430H139.604C139.372 429.187 139.206 428.531 139.106 428.033C138.907 427.003 138.799 425.949 138.782 424.87L138.732 421.458C138.699 419.118 138.268 417.557 137.438 416.777C136.624 415.997 135.088 415.606 132.831 415.606ZM137.487 408.933C139.015 408.235 139.778 406.857 139.778 404.799C139.778 402.574 139.04 401.08 137.562 400.316C136.732 399.885 135.487 399.669 133.827 399.669H124.912V409.53H133.603C135.329 409.53 136.624 409.331 137.487 408.933ZM179.647 413.963H161.817V423.401H182.137V430H154.321V393.294H181.241V399.793H161.817V407.588H179.647V413.963ZM209.604 422.455H196.083L193.542 430H185.524L198.623 393.294H207.289L220.288 430H211.97L209.604 422.455ZM207.463 416.129L202.881 401.686L198.149 416.129H207.463ZM250.868 427.261C248.128 429.768 244.625 431.021 240.359 431.021C235.08 431.021 230.929 429.328 227.908 425.941C224.886 422.538 223.375 417.873 223.375 411.946C223.375 405.538 225.094 400.599 228.53 397.129C231.519 394.107 235.32 392.597 239.936 392.597C246.111 392.597 250.627 394.622 253.482 398.673C255.06 400.947 255.906 403.23 256.022 405.521H248.353C247.854 403.761 247.215 402.433 246.435 401.537C245.041 399.943 242.974 399.146 240.234 399.146C237.445 399.146 235.246 400.275 233.635 402.533C232.025 404.774 231.22 407.953 231.22 412.07C231.22 416.188 232.066 419.275 233.76 421.334C235.47 423.376 237.636 424.397 240.259 424.397C242.949 424.397 244.999 423.517 246.41 421.757C247.19 420.811 247.838 419.392 248.353 417.499H255.948C255.284 421.5 253.59 424.754 250.868 427.261ZM288.495 393.294V399.793H277.513V430H269.793V399.793H258.762V393.294H288.495ZM336.88 430H329.21L314.219 403.927V430H307.072V393.294H315.116L329.733 418.918V393.294H336.88V430ZM365.543 422.455H352.021L349.481 430H341.462L354.561 393.294H363.227L376.226 430H367.909L365.543 422.455ZM363.401 416.129L358.819 401.686L354.088 416.129H363.401ZM403.793 393.294V399.793H392.811V430H385.091V399.793H374.06V393.294H403.793ZM407.703 393.294H415.323V430H407.703V393.294ZM419.78 393.294H427.973L435.942 421.16L443.985 393.294H451.954L439.428 430H432.182L419.78 393.294ZM482.061 413.963H464.231V423.401H484.551V430H456.735V393.294H483.655V399.793H464.231V407.588H482.061V413.963ZM267.278 481.455H253.756L251.216 489H243.198L256.296 452.294H264.962L277.961 489H269.644L267.278 481.455ZM265.137 475.129L260.555 460.686L255.823 475.129H265.137ZM289.666 489H282.519V452.294H293.675L300.349 481.156L306.973 452.294H318.004V489H310.857V464.172C310.857 463.458 310.866 462.462 310.882 461.184C310.899 459.889 310.907 458.893 310.907 458.196L303.959 489H296.514L289.616 458.196C289.616 458.893 289.624 459.889 289.641 461.184C289.657 462.462 289.666 463.458 289.666 464.172V489ZM346.617 481.455H333.095L330.555 489H322.537L335.635 452.294H344.301L357.3 489H348.983L346.617 481.455ZM344.476 475.129L339.894 460.686L335.162 475.129H344.476Z" fill="#BA8CDF"/>
<g clip-path="url(#clip1_8282_461)">
<path d="M364.347 150.705L364.155 150.522H364.146L342.863 130.393C331.573 122.531 317.103 117.578 301.239 117.01C300.211 116.971 299.183 116.952 298.146 116.952C281.244 116.952 265.765 121.914 253.803 130.133L199.256 177.916C194.528 182.069 188.466 184.353 182.191 184.353H158.776C148.956 184.353 141 192.331 141 202.178V216.429C141 221.112 142.883 225.583 146.227 228.859C146.265 228.888 146.313 228.936 146.352 228.985L175.754 257.12C180.587 261.745 186.995 264.328 193.673 264.328H242.791C257.627 264.328 271.895 258.585 282.618 248.313L361.965 173.098C368.268 167.115 369.046 157.575 364.347 150.705ZM233.241 192.061C228.994 192.061 225.554 188.602 225.554 184.353C225.554 180.103 228.994 176.644 233.241 176.644C237.488 176.644 240.927 180.094 240.927 184.353C240.927 188.611 237.488 192.061 233.241 192.061Z" fill="#DFBEF9"/>
<mask id="mask0_8282_461" style="mask-type:alpha" maskUnits="userSpaceOnUse" x="239" y="150" width="220" height="211">
<path d="M459 251.512L458.933 272.181L458.836 299.738L458.615 343.454C458.587 352.973 450.89 360.711 441.397 360.74L377.04 360.894H366.884L333.158 360.981L325.164 361C315.594 360.971 307.86 353.157 307.917 343.56L307.984 332.084V331.91L308.119 331.459C308.119 331.073 308.109 330.698 308.09 330.322C308.09 330.052 308.081 329.792 308.042 329.532V329.483C308.033 329.079 307.994 328.684 307.936 328.289C307.84 327.489 307.715 326.689 307.552 325.909C307.389 325.128 307.187 324.348 306.947 323.577C306.87 323.307 306.783 323.047 306.687 322.777C306.591 322.498 306.495 322.228 306.38 321.948C306.274 321.659 306.159 321.37 306.034 321.091C306.015 321.033 305.986 320.975 305.967 320.927C305.842 320.628 305.707 320.33 305.554 320.031C305.486 319.877 305.419 319.723 305.333 319.578C305.208 319.318 305.073 319.058 304.929 318.807C304.891 318.721 304.843 318.634 304.794 318.557C304.631 318.268 304.468 317.988 304.295 317.709C304.247 317.612 304.189 317.526 304.122 317.429C303.939 317.131 303.747 316.832 303.536 316.543C303.517 316.504 303.497 316.475 303.468 316.437C303.248 316.119 303.017 315.801 302.767 315.493C302.738 315.444 302.7 315.396 302.661 315.348C302.45 315.059 302.219 314.77 301.97 314.5C301.941 314.452 301.902 314.413 301.864 314.365C301.585 314.038 301.297 313.71 300.999 313.402C300.845 313.247 300.692 313.084 300.538 312.93C300.384 312.775 300.221 312.612 300.058 312.457L257.089 271.477C252.265 266.881 245.866 264.328 239.207 264.328H242.791C257.627 264.328 271.895 258.585 282.618 248.313L290.872 240.383L290.891 240.364L292.073 239.237L299.923 231.769C300.634 231.018 301.364 230.295 302.104 229.611C302.469 229.264 306.149 225.795 311.54 220.717C311.895 220.38 312.26 220.033 312.635 219.676C313.356 218.992 314.105 218.279 314.883 217.547C332.476 200.945 361.964 173.098 361.964 173.098C368.268 167.114 369.046 157.575 364.347 150.705L386.869 171.99L386.937 172.058L387.638 172.722L400.177 184.574L431.395 214.107L440.84 223.03L450.852 232.492C456.079 237.425 459.029 244.315 459 251.512Z" fill="#CB98F3"/>
</mask>
<g mask="url(#mask0_8282_461)">
<path d="M459 251.512L458.933 272.181L458.836 299.738L458.615 343.454C458.587 352.973 450.89 360.711 441.397 360.74L377.04 360.894H366.884L333.158 360.981L325.164 361C315.594 360.971 307.86 353.157 307.917 343.56L307.984 332.084V331.91L308.119 331.459C308.119 331.073 308.109 330.698 308.09 330.322C308.09 330.052 308.081 329.792 308.042 329.532V329.483C308.033 329.079 307.994 328.684 307.936 328.289C307.84 327.489 307.715 326.689 307.552 325.909C307.389 325.128 307.187 324.348 306.947 323.577C306.87 323.307 306.783 323.047 306.687 322.777C306.591 322.498 306.495 322.228 306.38 321.948C306.274 321.659 306.159 321.37 306.034 321.091C306.015 321.033 305.986 320.975 305.967 320.927C305.842 320.628 305.707 320.33 305.554 320.031C305.486 319.877 305.419 319.723 305.333 319.578C305.208 319.318 305.073 319.058 304.929 318.807C304.891 318.721 304.843 318.634 304.794 318.557C304.631 318.268 304.468 317.988 304.295 317.709C304.247 317.612 304.189 317.526 304.122 317.429C303.939 317.131 303.747 316.832 303.536 316.543C303.517 316.504 303.497 316.475 303.468 316.437C303.248 316.119 303.017 315.801 302.767 315.493C302.738 315.444 302.7 315.396 302.661 315.348C302.45 315.059 302.219 314.77 301.97 314.5C301.941 314.452 301.902 314.413 301.864 314.365C301.585 314.038 301.297 313.71 300.999 313.402C300.845 313.247 300.692 313.084 300.538 312.93C300.384 312.775 300.221 312.612 300.058 312.457L257.089 271.477C252.265 266.881 245.866 264.328 239.207 264.328H242.791C257.627 264.328 271.895 258.585 282.618 248.313L290.872 240.383L290.891 240.364L292.073 239.237L299.923 231.769C300.634 231.018 301.364 230.295 302.104 229.611C302.469 229.264 306.149 225.795 311.54 220.717C311.895 220.38 312.26 220.033 312.635 219.676C313.356 218.992 314.105 218.279 314.883 217.547C332.476 200.945 361.964 173.098 361.964 173.098C368.268 167.114 369.046 157.575 364.347 150.705L386.869 171.99L386.937 172.058L387.638 172.722L400.177 184.574L431.395 214.107L440.84 223.03L450.852 232.492C456.079 237.425 459.029 244.315 459 251.512Z" fill="#DFBEF9"/>
<path d="M340.749 322.642V384.001H325.251C324.991 384.001 324.732 383.992 324.472 383.982C324.271 383.973 324.079 383.963 323.886 383.944C323.665 383.934 323.444 383.905 323.233 383.886C323.041 383.867 322.849 383.838 322.656 383.809C322.628 383.809 322.608 383.799 322.589 383.79C322.33 383.761 322.07 383.712 321.811 383.655C321.513 383.597 321.215 383.529 320.927 383.452C320.648 383.385 320.379 383.308 320.11 383.221C319.841 383.144 319.572 383.048 319.303 382.951C318.775 382.749 318.256 382.537 317.756 382.286C317.257 382.055 316.757 381.785 316.277 381.487C315.806 381.198 315.344 380.88 314.903 380.552C314.451 380.224 314.028 379.868 313.615 379.492C313.413 379.299 313.211 379.107 313.019 378.914C312.635 378.528 312.26 378.114 311.905 377.69C311.549 377.257 311.222 376.813 310.905 376.351C309.041 373.576 307.946 370.223 307.956 366.619L307.984 355.182V355.008L308.119 331.459C308.119 331.073 308.109 330.698 308.09 330.322C308.081 330.09 308.071 329.84 308.042 329.609V329.483C308.013 329.079 307.975 328.684 307.936 328.289C307.84 327.489 307.715 326.689 307.552 325.909C307.389 325.128 307.187 324.348 306.947 323.577C306.87 323.307 306.783 323.047 306.687 322.777C306.591 322.498 306.495 322.228 306.38 321.948C306.274 321.659 306.159 321.37 306.034 321.091C306.015 321.033 305.986 320.975 305.967 320.927C305.842 320.628 305.707 320.33 305.554 320.031C305.486 319.877 305.419 319.723 305.333 319.578C305.208 319.318 305.073 319.058 304.929 318.807C304.891 318.721 304.843 318.634 304.794 318.557C304.641 318.268 304.468 317.988 304.295 317.709C304.247 317.612 304.189 317.526 304.122 317.429C303.939 317.131 303.747 316.832 303.536 316.543C303.517 316.504 303.497 316.475 303.468 316.437C303.248 316.119 303.017 315.801 302.767 315.493C302.738 315.444 302.7 315.396 302.661 315.348C302.45 315.059 302.219 314.77 301.97 314.5C301.941 314.452 301.902 314.413 301.864 314.365C301.585 314.038 301.297 313.72 300.999 313.402C300.845 313.247 300.692 313.084 300.538 312.93C300.384 312.775 300.221 312.612 300.058 312.457L257.089 271.477C252.265 266.881 245.866 264.328 239.207 264.328H242.791C257.627 264.328 271.895 258.585 282.618 248.313L290.891 240.374V244.941C290.891 251.898 293.678 258.546 298.587 263.412C298.914 263.74 299.25 264.058 299.596 264.366L308.138 271.998L308.167 272.027H308.186L328.085 291.982C336.185 300.114 340.749 311.147 340.749 322.642Z" fill="#775D8A"/>
<path d="M308.186 272.036L328.085 291.992C336.195 300.124 340.749 311.157 340.749 322.652V384.011H325.26C315.69 384.011 307.946 376.216 307.965 366.629L308.196 272.036H308.186Z" fill="#DFBEF9"/>
<path d="M459 251.522L458.616 366.561C458.587 376.081 450.89 383.809 441.397 383.847L392.001 383.953L375.388 383.992V322.633C375.388 311.128 379.942 300.095 388.051 291.972L437.823 244.421C443.819 238.726 444.818 229.804 440.84 223.03L450.852 232.502C456.079 237.435 459.029 244.324 459 251.522Z" fill="#BA8CDF"/>
</g>
<g style="mix-blend-mode:multiply">
<path d="M392.289 184.353C392.298 184.671 392.289 184.989 392.279 185.306C392.279 185.509 392.25 185.73 392.241 185.942C392.25 185.952 392.25 185.962 392.241 185.971C391.943 189.922 390.29 193.651 387.552 196.551C386.735 197.409 309.013 271.217 308.186 272.036C299.558 264.655 290.593 257.506 290.891 244.941V136.445C290.622 119.582 308.792 108.347 323.79 114.89C329.921 116.692 338.117 126.308 342.863 130.393C353.797 140.742 375.906 161.622 386.87 171.99C390.271 175.189 392.241 179.699 392.289 184.353Z" fill="#BA8CDF"/>
</g>
<g style="mix-blend-mode:multiply">
<path d="M392.289 184.353C392.298 184.671 392.289 184.989 392.279 185.306C392.279 185.509 392.25 185.73 392.241 185.942C392.25 185.952 392.25 185.962 392.241 185.971C391.943 189.922 390.29 193.651 387.552 196.551C386.745 197.428 309.013 271.217 308.186 272.036C299.433 264.472 290.709 257.756 290.891 244.941V184.353H392.289Z" fill="#BA8CDF"/>
</g>
<g style="mix-blend-mode:multiply">
<path d="M240.927 184.353C240.927 188.602 237.488 192.061 233.241 192.061C228.994 192.061 225.554 188.602 225.554 184.353C225.554 180.103 228.994 176.644 233.241 176.644C237.488 176.644 240.927 180.094 240.927 184.353Z" fill="#7234BD"/>
</g>
<g style="mix-blend-mode:multiply">
<path d="M386.927 197.197L308.177 271.988C308.177 271.988 301.633 266.274 299.529 264.28C299.039 263.807 298.04 262.873 297.607 262.353L296.33 260.551C287.192 247.494 294.36 236.828 302.085 229.601C303.594 228.185 361.945 173.089 361.945 173.089C368.306 167.047 369.056 157.383 364.194 150.493L386.898 171.98C394.124 178.812 394.134 190.336 386.918 197.187L386.927 197.197Z" fill="#BA8CDF"/>
</g>
</g>
</g>
<defs>
<clipPath id="clip0_8282_461">
<rect width="600" height="600" fill="white"/>
</clipPath>
<clipPath id="clip1_8282_461">
<rect width="318" height="248" fill="white" transform="translate(141 113)"/>
</clipPath>
</defs>
</svg>
