<svg viewBox="0 0 253 253" fill="none" xmlns="http://www.w3.org/2000/svg" role="img" aria-labelledby="cloudsplice-title">
<title id="cloudsplice-title">CloudSplice</title>
<path fill-rule="evenodd" clip-rule="evenodd" d="M144.327 3.82173L226.961 40.9258C242.796 48.0358 253 63.891 253 81.3867V171.613C253 189.109 242.796 204.964 226.961 212.074L144.327 249.178C138.715 251.698 132.642 253 126.5 253C120.358 253 114.285 251.698 108.673 249.178L26.0388 212.074C10.2039 204.964 0 189.109 0 171.614V81.3862C0 63.891 10.2039 48.0354 26.0388 40.9258L108.673 3.82173C114.285 1.302 120.358 0 126.5 0C132.642 0 138.715 1.302 144.327 3.82173Z" fill="#202020"/>
<path opacity="0.5" fill-rule="evenodd" clip-rule="evenodd" d="M110.799 13.4836C115.741 11.2665 121.09 10.1201 126.5 10.1201C131.537 10.1201 136.521 11.1139 141.173 13.0404H141.214L142.201 13.4836L142.202 13.4836L222.687 49.5898C234.989 55.1086 242.88 67.4226 242.88 80.9689V172.031C242.88 185.578 234.989 197.891 222.687 203.41L142.201 239.517C137.259 241.734 131.91 242.88 126.5 242.88C121.09 242.88 115.741 241.734 110.799 239.517L30.313 203.41C18.0106 197.891 10.1201 185.578 10.1201 172.031V80.9689C10.1201 67.4227 18.0105 55.1087 30.313 49.5898L110.799 13.4836ZM126.5 20.2401C122.52 20.2401 118.583 21.0832 114.941 22.7171L34.4551 58.8233L32.384 54.2066L34.4551 58.8233C25.8373 62.6892 20.2401 71.3572 20.2401 80.9689V172.031C20.2401 181.643 25.8373 190.311 34.4551 194.177L114.941 230.283C118.583 231.917 122.52 232.76 126.5 232.76C130.479 232.76 134.417 231.917 138.059 230.283L218.545 194.177L220.616 198.793L218.545 194.177C227.163 190.311 232.76 181.643 232.76 172.031V80.9689C232.76 71.3574 227.163 62.6893 218.545 58.8233L220.616 54.2066L218.545 58.8233L139.048 23.1604H139.047L138.059 22.7171C134.417 21.0832 130.48 20.2401 126.5 20.2401Z" fill="#9AA5EC"/>
<path fill-rule="evenodd" clip-rule="evenodd" d="M108.658 3.82643C114.273 1.30416 120.352 0 126.501 0C132.651 0 138.73 1.30416 144.345 3.82643L142.278 8.42858L144.345 3.82644L226.98 40.9457L224.907 45.5614L226.98 40.9457C242.825 48.0627 253.001 63.9141 253.001 81.3686V171.632C253.001 189.086 242.825 204.937 226.98 212.055L144.345 249.174C138.73 251.696 132.651 253 126.501 253C120.352 253 114.273 251.696 108.658 249.174L26.0228 212.055L28.0686 207.5L26.0227 212.055C10.1779 204.937 0.00146484 189.086 0.00146484 171.632V81.3682C0.00146484 63.9141 10.1779 48.0628 26.0232 40.9457C26.0232 40.9457 26.0233 40.9456 26.0233 40.9456L108.658 3.82644L110.725 8.42889L108.658 3.82643ZM126.501 10.12C121.784 10.12 117.118 11.1203 112.805 13.0579L30.1699 50.1771L30.1697 50.1772C17.9984 55.644 10.1215 67.8561 10.1215 81.3682V171.632C10.1215 185.144 17.9984 197.356 30.1695 202.823L112.805 239.942C117.118 241.88 121.784 242.88 126.501 242.88C131.219 242.88 135.885 241.88 140.198 239.942L222.833 202.823C235.005 197.356 242.881 185.144 242.881 171.632V81.3686C242.881 67.8561 235.004 55.644 222.834 50.1772L224.646 46.1415L222.833 50.1771L140.198 13.0579C135.885 11.1203 131.219 10.12 126.501 10.12Z" fill="#B5BEF8"/>
<g clip-path="url(#clip0_8946_12796)">
<path d="M104.854 118.108C104.862 118.108 104.871 118.109 104.879 118.11C104.823 118.023 104.765 117.932 104.705 117.836C104.754 117.93 104.804 118.02 104.854 118.108Z" fill="#222222"/>
<path d="M126.361 134.287C126.354 134.272 126.346 134.259 126.34 134.244C126.372 134.336 126.409 134.431 126.448 134.529C126.727 135.144 127.218 135.912 127.927 136.767C127.759 136.54 127.603 136.322 127.457 136.111C126.931 135.405 126.568 134.785 126.362 134.286L126.361 134.287Z" fill="#222222"/>
<path d="M126.196 133.788C126.196 133.884 126.229 134.004 126.291 134.142C126.289 134.137 126.288 134.131 126.286 134.125C126.246 134.005 126.214 133.891 126.196 133.787V133.788Z" fill="#222222"/>
<path d="M126.299 134.16C126.339 134.276 126.388 134.399 126.447 134.529C126.408 134.432 126.372 134.336 126.339 134.245C126.324 134.215 126.311 134.187 126.298 134.161L126.299 134.16Z" fill="#222222"/>
<path d="M126.291 134.142C126.294 134.147 126.295 134.153 126.298 134.158C126.295 134.147 126.29 134.136 126.286 134.125C126.288 134.131 126.289 134.136 126.291 134.142Z" fill="#222222"/>
<path d="M126.303 134.139C126.263 134.018 126.226 133.901 126.196 133.788C126.211 133.844 126.226 133.901 126.242 133.957C126.259 134.015 126.28 134.076 126.303 134.139Z" fill="#222222"/>
<path d="M126.361 134.287C126.389 134.34 126.421 134.396 126.456 134.455C126.338 134.208 126.251 133.985 126.196 133.788C126.225 133.9 126.262 134.018 126.303 134.139C126.321 134.186 126.34 134.236 126.361 134.287Z" fill="#222222"/>
<path d="M126.339 134.244C126.346 134.258 126.353 134.272 126.36 134.287C126.34 134.236 126.32 134.186 126.302 134.139C126.314 134.173 126.326 134.209 126.339 134.245V134.244Z" fill="#222222"/>
<path d="M126.242 133.957C126.224 133.899 126.209 133.842 126.196 133.788C126.215 133.891 126.246 134.006 126.286 134.126C126.271 134.07 126.256 134.013 126.241 133.957H126.242Z" fill="#222222"/>
<path d="M126.196 133.788C126.208 133.842 126.224 133.899 126.242 133.957C126.227 133.901 126.212 133.844 126.196 133.788Z" fill="#222222"/>
<path d="M198.169 93.531C202.133 95.3486 205.343 100.096 205.343 106.136C205.343 116.511 192.223 126.415 179.699 128.029C179.686 128.031 179.672 128.033 179.659 128.034C179.331 128.773 178.983 129.502 178.616 130.217C173.528 140.139 164.806 147.568 155.969 147.568C190.782 147.568 212.249 129.664 212.249 110.167C212.249 103.602 207.609 94.2781 198.168 93.531H198.169Z" fill="#9AA5EC"/>
<path d="M127.456 136.112C127.601 136.323 127.758 136.54 127.926 136.768C128.479 137.434 129.162 138.151 129.981 138.889C128.909 137.883 128.072 136.939 127.457 136.113L127.456 136.112Z" fill="#222222"/>
<path d="M198.063 93.4812C198.099 93.4971 198.133 93.5149 198.169 93.5309C207.61 94.278 212.25 103.602 212.25 110.166C212.25 129.664 190.783 147.567 155.969 147.567C150.994 147.567 146.674 146.885 142.985 145.817C142.266 145.609 141.572 145.386 140.901 145.151C136.029 143.443 132.411 141.078 129.98 138.888C132.368 141.13 135.917 143.679 140.748 145.922C141.807 146.414 142.929 146.892 144.112 147.348C144.182 147.367 144.255 147.386 144.327 147.404C149.212 148.681 158.447 150.661 168.756 150.661C197.13 150.661 215.05 130.039 215.05 112.978C215.05 104.917 209.45 93.4812 198.063 93.4812Z" fill="#535FA8"/>
<path d="M127.456 136.112C127.018 135.48 126.681 134.923 126.456 134.454C126.421 134.396 126.389 134.339 126.361 134.286C126.567 134.786 126.93 135.405 127.456 136.111V136.112Z" fill="#222222"/>
<path d="M126.577 135.257C126.483 134.879 126.388 134.508 126.291 134.143C126.229 134.004 126.196 133.884 126.196 133.789C126.196 134.132 126.333 134.626 126.577 135.258V135.257Z" fill="#222222"/>
<path d="M135.996 148.645L135.962 148.637C136.101 148.827 136.241 149.018 136.38 149.209C136.253 149.022 136.125 148.835 135.996 148.645Z" fill="#222222"/>
<path d="M119.617 141.361C118.977 141.812 118.292 142.258 117.564 142.694C118.274 142.282 118.961 141.833 119.617 141.361Z" fill="#222222"/>
<path d="M179.699 128.029C179.748 127.891 179.798 127.748 179.848 127.599C179.786 127.744 179.722 127.889 179.659 128.034C179.672 128.032 179.686 128.031 179.699 128.029Z" fill="#222222"/>
<path d="M119.617 141.361C123.918 138.329 126.196 135.112 126.196 133.788C126.196 135.081 123.454 138.601 119.617 141.361Z" fill="#222222"/>
<path d="M126.303 134.139C126.28 134.076 126.259 134.015 126.241 133.957C126.256 134.013 126.271 134.069 126.287 134.126C126.291 134.138 126.296 134.149 126.299 134.16C126.311 134.187 126.325 134.216 126.34 134.244C126.327 134.208 126.316 134.173 126.304 134.138L126.303 134.139Z" fill="#222222"/>
<path d="M93.9956 181.032C93.9956 174.001 106.701 173.378 114.062 169.502C123.676 164.44 126.476 156.379 126.196 133.788C126.196 136.087 122.601 143.538 118.921 149.643C119.521 151.621 119.819 155.025 117.236 159.238C112.149 167.533 90.9155 170.955 90.9155 181.078C90.9155 184.265 93.1555 187.031 96.3289 187.031C98.6987 187.031 100.711 186.047 100.804 185.39C99.982 185.672 98.9815 185.906 97.9156 185.906C95.2089 185.906 93.9956 183.75 93.9956 181.032Z" fill="#535FA8"/>
<path d="M107.996 154.316C96.2356 164.534 78.2221 170.064 68.5154 170.064C58.8086 170.064 54.9819 164.253 54.9819 157.878C54.9819 155.956 55.4962 154.032 56.0095 152.591C56.0095 152.572 56.0086 152.554 56.0086 152.535C55.2619 152.535 52.8352 157.129 52.8352 163.503C52.8352 172.689 58.5286 178.782 68.5154 178.782C86.0678 178.782 112.697 159.325 118.913 149.615C118.916 149.624 118.919 149.633 118.921 149.643C122.601 143.538 126.196 136.087 126.196 133.788C126.196 136.132 119.756 144.099 107.996 154.316Z" fill="#535FA8"/>
<path d="M129.724 153.342C129.497 151.55 129.221 149.516 128.897 147.381C128.29 143.384 127.514 139.033 126.577 135.257C126.334 134.625 126.197 134.131 126.197 133.788C126.477 156.379 123.677 164.44 114.063 169.502C106.702 173.378 93.9963 174.001 93.9963 181.032C93.9963 183.75 95.2097 185.906 97.9164 185.906C98.9832 185.906 99.9837 185.672 100.805 185.39C100.807 185.374 100.81 185.358 100.81 185.343C98.4764 185.343 96.8897 184.031 96.8897 182.344C96.8897 177.507 111.577 176.337 121.063 172.127C126.467 169.728 129.79 164.018 129.79 157.363C129.79 156.037 129.794 154.906 129.799 153.938C129.775 153.742 129.75 153.543 129.725 153.342H129.724Z" fill="#222B64"/>
<path d="M129.799 153.938C129.799 153.858 129.799 153.78 129.8 153.703C129.775 153.582 129.75 153.461 129.724 153.342C129.749 153.543 129.774 153.742 129.799 153.938Z" fill="#222222"/>
<path d="M193.702 150.851C193.693 150.85 193.684 150.848 193.676 150.848C193.676 159.753 187.236 167.815 176.036 167.815C169.333 167.815 154.206 158.673 144.361 147.445C144.277 147.413 144.195 147.381 144.112 147.349C142.928 146.893 141.807 146.415 140.748 145.923C135.918 143.68 132.369 141.131 129.981 138.889C129.161 138.152 128.478 137.435 127.925 136.768C135.599 147.13 165.947 174.001 181.915 174.001C194.355 174.001 195.033 157.877 193.701 150.851H193.702Z" fill="#9AA5EC"/>
<path d="M144.112 147.348C144.195 147.38 144.278 147.412 144.362 147.444C144.35 147.431 144.338 147.418 144.327 147.404C144.255 147.386 144.182 147.367 144.112 147.348Z" fill="#222222"/>
<path d="M193.702 150.851C195.033 157.877 194.355 174.001 181.916 174.001C165.947 174.001 135.6 147.13 127.926 136.768C127.217 135.913 126.726 135.145 126.447 134.53C127.64 137.511 131.641 142.727 135.962 148.637L135.996 148.645C136.125 148.835 136.252 149.022 136.379 149.209C136.784 149.806 137.178 150.39 137.56 150.964C137.682 151.094 137.809 151.229 137.94 151.368C145.952 159.86 169.929 184.032 183.316 184.032C190.783 184.032 198.25 176.627 198.25 164.066C198.25 158.63 194.673 150.985 193.702 150.852V150.851Z" fill="#535FA8"/>
<path d="M137.56 150.963C137.179 150.39 136.785 149.806 136.379 149.209C136.24 149.017 136.101 148.827 135.962 148.637C131.642 142.727 127.64 137.511 126.447 134.53C126.388 134.399 126.339 134.276 126.298 134.16C126.296 134.155 126.294 134.149 126.291 134.143C126.388 134.508 126.483 134.88 126.577 135.257C128.599 140.499 138.002 155.259 138.002 172.408C138.002 178.969 134.456 182.344 123.442 180.657C112.832 179.031 109.956 183.094 109.956 186.937C109.956 189.749 112.009 191.436 114.156 191.436C115.13 191.436 115.738 191.012 116.113 190.548C116.115 190.531 116.116 190.515 116.116 190.499C110.889 190.499 111.916 184.968 116.396 184.968C120.876 184.968 129.042 186.89 135.249 186.89C143.136 186.89 145.143 180.047 145.143 173.204C145.143 163.704 142.315 158.119 137.56 150.963Z" fill="#384386"/>
<path d="M126.577 135.257C127.514 139.033 128.289 143.384 128.896 147.381C129.22 149.516 129.496 151.55 129.723 153.342C129.748 153.461 129.773 153.581 129.8 153.703C130.603 157.551 131.329 162.58 131.329 168.191C131.329 174.424 128.249 177.377 118.542 177.377C110.702 177.377 106.596 181.454 106.596 186.188C106.596 189.797 109.022 192.281 112.196 192.281C114.741 192.281 116.047 191.169 116.113 190.549C115.739 191.013 115.13 191.437 114.156 191.437C112.009 191.437 109.956 189.75 109.956 186.938C109.956 183.095 112.832 179.032 123.443 180.658C134.456 182.345 138.003 178.97 138.003 172.409C138.003 155.259 128.599 140.499 126.577 135.258V135.257Z" fill="#7480CA"/>
<path d="M74.0146 130.019C73.8074 129.635 73.6132 129.262 73.4294 128.902C73.3724 128.758 73.3174 128.616 73.2632 128.474C73.2464 128.473 73.2287 128.472 73.2119 128.471C58.9271 127.495 46.9551 115.883 46.9551 105.386C46.9551 99.6687 48.9665 96.2829 52.9173 93.8823C47.3285 95.5218 40.6084 100.378 40.6084 111.197C40.6084 132.476 63.2886 147.942 97.8223 147.942C85.6674 147.942 77.8441 137.128 74.0146 130.019Z" fill="#B5BEF8"/>
<path d="M126.196 133.788C133.775 133.788 137.655 133.273 141.969 131.442C142.351 131.28 142.736 131.107 143.127 130.924C143.13 130.923 143.135 130.921 143.139 130.919L149.429 120.02C136.416 121.287 126.196 133.788 126.196 133.788Z" fill="#CED5FF"/>
<path d="M148.035 118.259C148.042 118.245 148.049 118.232 148.056 118.219C148.041 118.22 148.026 118.222 148.011 118.223C148.018 118.235 148.027 118.246 148.034 118.258L148.035 118.259Z" fill="#222222"/>
<path d="M128.343 73.7965C141.602 73.7965 152.402 85.1668 153.045 98.59C153.065 98.021 153.076 97.4436 153.076 96.8558C153.076 80.405 141.503 69.6721 125.962 69.6721C112.802 69.6721 99.1289 80.3113 99.1289 100.605C99.1289 108.11 102.89 114.965 104.705 117.836C102.955 114.532 101.462 107.901 101.462 104.355C101.462 86.3573 112.102 73.7965 128.343 73.7965Z" fill="#B5BEF8"/>
<path d="M148.035 118.259C148.028 118.247 148.019 118.235 148.012 118.224C147.706 118.251 147.403 118.284 147.104 118.323C133.344 120.089 126.197 133.789 126.197 133.789C126.197 133.789 136.417 121.288 149.43 120.021L149.437 120.01C149.437 120.01 148.808 119.417 148.036 118.26L148.035 118.259Z" fill="#9AA5EC"/>
<path d="M192.958 73.6382C191.622 68.3739 187.425 64.6104 183.036 64.6104C174.45 64.6104 169.316 71.4532 169.316 116.916C169.316 132.945 160.683 144.568 144.956 144.568C143.885 144.568 142.795 144.431 141.708 144.19C141.512 144.147 141.317 144.1 141.121 144.05C134.355 142.316 127.822 136.694 126.456 134.454C126.681 134.922 127.018 135.48 127.456 136.112C128.071 136.939 128.909 137.883 129.981 138.888C132.412 141.077 136.031 143.443 140.901 145.151C141.572 145.386 142.266 145.609 142.985 145.818C146.674 146.886 150.994 147.568 155.97 147.568C164.807 147.568 173.528 140.139 178.617 130.217C178.984 129.502 179.332 128.773 179.66 128.034C179.724 127.889 179.787 127.744 179.849 127.599C180.666 125.19 181.636 121.306 181.636 116.447C181.636 105.948 177.81 93.4813 177.81 79.7957C177.81 66.1101 188.711 69.4509 192.958 73.6382Z" fill="#535FA8"/>
<path d="M179.396 60.2983C167.356 60.2983 163.296 76.6554 163.296 108.901C163.296 123.805 158.256 132.57 149.343 132.57C147.259 132.57 144.622 132.12 143.132 130.929C143.13 130.927 143.128 130.926 143.127 130.924C142.736 131.107 142.351 131.281 141.969 131.442C137.655 133.274 133.775 133.788 126.196 133.788C126.251 133.985 126.338 134.207 126.456 134.455C127.822 136.695 134.354 142.316 141.121 144.05C141.317 144.101 141.512 144.148 141.708 144.191C142.795 144.432 143.885 144.569 144.956 144.569C160.683 144.569 169.316 132.945 169.316 116.916C169.316 71.454 174.45 64.6112 183.036 64.6112C187.425 64.6112 191.622 68.3747 192.958 73.639C192.979 73.6605 193.002 73.6821 193.023 73.7037C193.023 65.0799 187.796 60.2993 179.396 60.2993V60.2983Z" fill="#9AA5EC"/>
<path d="M143.132 130.929L143.138 130.919C143.138 130.919 143.129 130.923 143.126 130.925C143.128 130.926 143.129 130.927 143.131 130.929H143.132Z" fill="#222222"/>
<path d="M128.342 73.7964C112.102 73.7964 101.462 86.3571 101.462 104.355C101.462 107.9 102.955 114.532 104.705 117.836C104.765 117.932 104.823 118.023 104.879 118.11C104.884 118.11 104.889 118.11 104.894 118.111C105.153 118.131 105.407 118.156 105.661 118.185C119.586 119.762 126.195 133.788 126.195 133.788C126.195 133.788 133.342 120.088 147.102 118.321C147.401 118.283 147.704 118.25 148.01 118.223C148.025 118.222 148.04 118.22 148.055 118.219C149.541 115.448 152.704 108.457 153.044 98.5898C152.401 85.1657 141.601 73.7964 128.341 73.7964H128.342Z" fill="#535FA8"/>
<path d="M109.255 130.478C109.255 130.478 109.255 130.478 109.255 130.479C109.255 130.479 109.256 130.479 109.257 130.48C109.257 130.48 109.257 130.479 109.256 130.478H109.255Z" fill="#222222"/>
<path d="M110.049 130.879C109.79 130.751 109.525 130.618 109.256 130.48C109.256 130.48 109.255 130.48 109.254 130.479C108.495 131.501 107.092 132.662 104.636 132.662C93.6222 132.662 88.3022 124.648 88.3022 97.7922C88.3022 70.9366 83.0754 60.3921 72.902 60.3921C62.7286 60.3921 59.1819 66.9537 59.1819 73.5153C59.3984 73.2537 59.6224 73.0072 59.853 72.7729C61.5096 68.206 65.6789 64.4228 70.5687 64.4228C76.9154 64.4228 81.1154 70.7969 81.1154 82.1391C81.1154 93.4812 80.5554 119.353 85.2221 128.07C89.8888 136.788 101.089 145.037 109.956 145.037C111.042 145.037 112.135 144.867 113.213 144.57C113.709 144.433 114.201 144.27 114.69 144.082C115.676 143.704 116.64 143.23 117.565 142.694C118.293 142.258 118.978 141.812 119.618 141.361C123.455 138.6 126.197 135.08 126.197 133.788C117.893 133.788 114.711 133.17 110.05 130.879H110.049Z" fill="#9AA5EC"/>
<path d="M114.689 144.082C114.201 144.27 113.709 144.433 113.212 144.57C112.134 144.867 111.041 145.037 109.955 145.037C101.088 145.037 89.8879 136.788 85.2212 128.07C80.5545 119.353 81.1145 93.4813 81.1145 82.1391C81.1145 70.797 76.9145 64.4229 70.5678 64.4229C65.678 64.4229 61.5087 68.207 59.8521 72.7729C62.107 70.4876 65.0256 69.4846 68.3277 69.4846C71.9678 69.4846 74.4878 72.0155 74.4878 77.3586C74.4878 97.6057 71.0344 101.543 71.0344 114.291C71.0344 120.455 71.4134 123.652 73.2623 128.474C73.3164 128.616 73.3715 128.758 73.4284 128.903C73.6123 129.263 73.8064 129.636 74.0137 130.019C77.8432 137.128 85.6655 147.943 97.8213 147.943C103.698 147.943 108.747 146.747 112.889 145.038C113.552 144.764 114.191 144.478 114.806 144.181C115.785 143.708 116.705 143.209 117.563 142.695C116.639 143.231 115.674 143.705 114.688 144.083L114.689 144.082Z" fill="#535FA8"/>
<path d="M104.88 118.11C104.88 118.11 104.884 118.117 104.887 118.12L104.894 118.11C104.89 118.11 104.884 118.11 104.88 118.11Z" fill="#222222"/>
<path d="M105.662 118.185C105.409 118.156 105.154 118.131 104.895 118.111L104.888 118.121L103.236 120.29C103.236 120.29 103.242 120.299 103.253 120.315C116.725 120.931 126.196 133.788 126.196 133.788C126.196 133.788 119.587 119.762 105.662 118.185Z" fill="#9AA5EC"/>
<path d="M103.253 120.315C103.537 120.72 107.259 126.055 109.255 130.479C109.255 130.479 109.255 130.48 109.256 130.481C109.525 130.619 109.79 130.752 110.049 130.88C114.71 133.171 117.892 133.789 126.196 133.789C126.196 133.789 116.725 120.932 103.253 120.316V120.315Z" fill="#E2E6FF"/>
<path d="M124.012 137.524C125.392 135.984 126.132 134.658 126.191 133.885C126.127 134.611 125.359 135.947 124.012 137.524Z" fill="#222222"/>
<path d="M126.196 133.788C126.196 133.819 126.193 133.852 126.191 133.885C126.191 133.88 126.192 133.875 126.193 133.871C126.195 133.842 126.197 133.814 126.197 133.788H126.196Z" fill="#222222"/>
<path d="M126.191 133.885C126.133 134.658 125.393 135.984 124.012 137.524C122.124 139.735 119.098 142.42 115.276 144.568C115.276 144.568 113.853 145.588 111.229 146.823C104.353 153.186 84.4727 163.503 69.7287 163.503C63.8655 163.503 56.0553 158.936 56.0095 152.591C55.4962 154.032 54.9819 155.955 54.9819 157.879C54.9819 164.253 58.8086 170.064 68.5154 170.064C78.2222 170.064 96.2357 164.534 107.996 154.317C119.623 144.214 126.048 136.312 126.192 133.871C126.192 133.875 126.191 133.88 126.19 133.885H126.191Z" fill="#9AA5EC"/>
<path d="M119.617 141.361C118.961 141.833 118.275 142.282 117.564 142.694C116.706 143.208 115.787 143.707 114.807 144.18C114.192 144.477 113.552 144.763 112.89 145.036C108.748 146.746 103.699 147.941 97.8222 147.941C63.2886 147.941 40.6083 132.475 40.6083 111.196C40.6083 100.377 47.3284 95.5218 52.9173 93.8814C53.3065 93.6452 53.7143 93.4174 54.1418 93.199C45.2751 93.1999 37.5283 100.793 37.5283 114.01C37.5283 139.881 63.8486 151.129 91.3822 151.129C100.316 151.129 107.194 148.721 111.229 146.823C113.854 145.588 115.276 144.568 115.276 144.568C119.098 142.42 122.124 139.735 124.012 137.523C122.932 138.728 121.461 140.061 119.617 141.362V141.361Z" fill="#7480CA"/>
</g>
</svg>
