<svg viewBox="0 0 600 600" fill="none" xmlns="http://www.w3.org/2000/svg" role="img" aria-labelledby="cloudsplice-title">
<title id="cloudsplice-title">CloudSplice</title>
<path fill-rule="evenodd" clip-rule="evenodd" d="M342.277 9.06339L538.248 97.0571C575.801 113.919 600 151.52 600 193.012V406.988C600 448.479 575.801 486.081 538.248 502.943L342.277 590.937C328.969 596.912 314.565 600 300 600C285.435 600 271.031 596.912 257.723 590.937L61.752 502.943C24.199 486.081 0 448.48 0 406.989V193.011C0 151.52 24.199 113.918 61.752 97.0571L257.723 9.06339C271.031 3.08776 285.435 0 300 0C314.565 0 328.969 3.08776 342.277 9.06339Z" fill="#202020"/>
<path opacity="0.5" fill-rule="evenodd" clip-rule="evenodd" d="M332.324 42.9255C322.145 38.3591 311.134 36 300 36C288.866 36 277.855 38.3591 267.676 42.9255L76.7998 128.553C51.9932 139.681 36 164.561 36 192.021V407.978C36 435.439 51.9932 460.318 76.7998 471.446L267.676 557.075C277.855 561.641 288.865 564 299.999 564C311.134 564 322.144 561.641 332.323 557.075L523.199 471.446C548.006 460.318 564 435.439 564 407.978V192.021C564 164.561 548.006 139.681 523.199 128.553L332.325 42.9255H332.324Z" stroke="#9AA5EC" stroke-width="24"/>
<path fill-rule="evenodd" clip-rule="evenodd" d="M337.402 20.0209C325.629 14.7326 312.888 12 300.003 12C287.118 12 274.377 14.7326 262.604 20.0209L66.6315 108.051C33.4101 122.972 12.0029 156.249 12.0029 192.968V407.032C12.0029 443.751 33.4101 477.028 66.6305 491.95L262.604 579.979C274.377 585.267 287.118 588 300.003 588C312.888 588 325.629 585.267 337.402 579.979L533.374 491.95C566.596 477.028 588.003 443.751 588.003 407.032V192.969C588.003 156.249 566.596 122.972 533.375 108.051L337.402 20.0209Z" stroke="#B5BEF8" stroke-width="24"/>
<path d="M467.751 430.591H450.969V439.509H470.095V445.745H443.914V411.059H469.251V417.201H450.969V424.566H467.751V430.591Z" fill="#BCCEFF"/>
<path d="M433.389 443.157C430.811 445.525 427.514 446.71 423.498 446.71C418.529 446.71 414.623 445.11 411.779 441.909C408.935 438.693 407.513 434.285 407.513 428.684C407.513 422.629 409.13 417.962 412.365 414.683C415.178 411.828 418.756 410.4 423.1 410.4C428.913 410.4 433.163 412.314 435.851 416.142C437.335 418.291 438.132 420.448 438.241 422.613H431.022C430.553 420.95 429.952 419.695 429.217 418.848C427.905 417.342 425.959 416.589 423.381 416.589C420.756 416.589 418.686 417.656 417.17 419.789C415.654 421.907 414.896 424.911 414.896 428.802C414.896 432.693 415.693 435.611 417.287 437.556C418.897 439.486 420.936 440.45 423.405 440.45C425.936 440.45 427.866 439.619 429.194 437.956C429.928 437.062 430.538 435.72 431.022 433.932H438.171C437.546 437.713 435.952 440.788 433.389 443.157Z" fill="#BCCEFF"/>
<path d="M395.091 411.059H402.264V445.745H395.091V411.059Z" fill="#BCCEFF"/>
<path d="M366.308 411.059H373.527V439.509H390.637V445.745H366.308V411.059Z" fill="#BCCEFF"/>
<path d="M348.964 433.273H341.627V445.745H334.455V411.059H349.503C352.972 411.059 355.737 411.953 357.8 413.742C359.863 415.53 360.894 418.299 360.894 422.049C360.894 426.143 359.863 429.038 357.8 430.732C355.737 432.426 352.792 433.273 348.964 433.273ZM352.339 426.049C353.276 425.218 353.745 423.9 353.745 422.096C353.745 420.291 353.269 419.005 352.315 418.236C351.378 417.468 350.057 417.083 348.354 417.083H341.627V427.296H348.354C350.057 427.296 351.386 426.88 352.339 426.049Z" fill="#BCCEFF"/>
<path d="M314.813 440.733C316.516 440.733 317.899 440.545 318.962 440.168C320.978 439.447 321.985 438.105 321.985 436.144C321.985 434.999 321.485 434.113 320.485 433.485C319.485 432.873 317.915 432.332 315.774 431.861L312.118 431.038C308.524 430.222 306.039 429.336 304.664 428.379C302.336 426.779 301.172 424.276 301.172 420.872C301.172 417.766 302.297 415.185 304.547 413.13C306.797 411.075 310.102 410.047 314.462 410.047C318.102 410.047 321.204 411.02 323.767 412.965C326.345 414.895 327.697 417.703 327.822 421.39H320.884C320.759 419.303 319.853 417.821 318.165 416.942C317.04 416.362 315.641 416.071 313.969 416.071C312.11 416.071 310.625 416.448 309.516 417.201C308.407 417.954 307.852 419.005 307.852 420.354C307.852 421.594 308.399 422.519 309.493 423.131C310.196 423.539 311.696 424.017 313.993 424.567L319.946 426.002C322.556 426.629 324.525 427.469 325.853 428.52C327.915 430.151 328.947 432.512 328.947 435.603C328.947 438.772 327.736 441.408 325.314 443.51C322.907 445.596 319.501 446.64 315.094 446.64C310.594 446.64 307.055 445.612 304.477 443.557C301.899 441.486 300.609 438.647 300.609 435.038H307.5C307.719 436.623 308.149 437.807 308.789 438.592C309.961 440.019 311.969 440.733 314.813 440.733Z" fill="#BCCEFF"/>
<path d="M282.468 445.745H267.584V411.059H282.468C284.609 411.09 286.39 411.341 287.812 411.812C290.234 412.612 292.195 414.079 293.695 416.213C294.898 417.938 295.719 419.805 296.156 421.813C296.594 423.821 296.812 425.735 296.812 427.555C296.812 432.167 295.891 436.074 294.047 439.274C291.547 443.588 287.687 445.745 282.468 445.745ZM287.835 419.907C286.726 418.025 284.531 417.083 281.249 417.083H274.593V439.721H281.249C284.656 439.721 287.031 438.035 288.375 434.662C289.109 432.811 289.476 430.606 289.476 428.049C289.476 424.519 288.929 421.805 287.835 419.907Z" fill="#BCCEFF"/>
<path d="M253.335 432.379V411.059H260.671V432.379C260.671 436.066 260.1 438.937 258.96 440.992C256.835 444.757 252.78 446.64 246.795 446.64C240.81 446.64 236.748 444.757 234.607 440.992C233.466 438.937 232.896 436.066 232.896 432.379V411.059H240.232V432.379C240.232 434.764 240.514 436.505 241.076 437.603C241.951 439.549 243.857 440.521 246.795 440.521C249.717 440.521 251.616 439.549 252.491 437.603C253.053 436.505 253.335 434.764 253.335 432.379Z" fill="#BCCEFF"/>
<path d="M210.816 446.71C205.879 446.71 202.105 445.361 199.495 442.662C195.995 439.352 194.245 434.583 194.245 428.355C194.245 422.001 195.995 417.232 199.495 414.048C202.105 411.349 205.879 410 210.816 410C215.754 410 219.528 411.349 222.137 414.048C225.622 417.232 227.364 422.001 227.364 428.355C227.364 434.583 225.622 439.352 222.137 442.662C219.528 445.361 215.754 446.71 210.816 446.71ZM217.637 437.391C219.309 435.273 220.145 432.261 220.145 428.355C220.145 424.464 219.301 421.46 217.613 419.342C215.942 417.209 213.676 416.142 210.816 416.142C207.957 416.142 205.675 417.201 203.972 419.319C202.269 421.437 201.417 424.449 201.417 428.355C201.417 432.261 202.269 435.273 203.972 437.391C205.675 439.509 207.957 440.568 210.816 440.568C213.676 440.568 215.949 439.509 217.637 437.391Z" fill="#BCCEFF"/>
<path d="M166.189 411.059H173.408V439.509H190.518V445.745H166.189V411.059Z" fill="#BCCEFF"/>
<path d="M155.876 443.157C153.298 445.525 150.001 446.71 145.985 446.71C141.016 446.71 137.11 445.11 134.266 441.909C131.422 438.693 130 434.285 130 428.684C130 422.629 131.617 417.962 134.852 414.683C137.664 411.828 141.243 410.4 145.587 410.4C151.399 410.4 155.65 412.314 158.337 416.142C159.822 418.291 160.619 420.448 160.728 422.613H153.509C153.04 420.95 152.439 419.695 151.704 418.848C150.392 417.342 148.446 416.589 145.868 416.589C143.243 416.589 141.172 417.656 139.657 419.789C138.141 421.907 137.383 424.911 137.383 428.802C137.383 432.693 138.18 435.611 139.774 437.556C141.383 439.486 143.423 440.45 145.891 440.45C148.423 440.45 150.353 439.619 151.681 437.956C152.415 437.062 153.025 435.72 153.509 433.932H160.658C160.033 437.713 158.439 440.788 155.876 443.157Z" fill="#BCCEFF"/>
<g clip-path="url(#clip0_8946_12612)">
<path d="M254.703 240.453C254.721 240.453 254.738 240.455 254.756 240.457C254.639 240.277 254.518 240.086 254.391 239.887C254.494 240.082 254.598 240.27 254.703 240.453Z" fill="#222222"/>
<path d="M299.65 274.164C299.634 274.133 299.619 274.105 299.605 274.074C299.673 274.268 299.75 274.465 299.831 274.668C300.415 275.951 301.441 277.551 302.923 279.332C302.572 278.859 302.246 278.404 301.94 277.965C300.842 276.494 300.083 275.201 299.652 274.162L299.65 274.164Z" fill="#222222"/>
<path d="M299.305 273.125C299.305 273.324 299.375 273.574 299.504 273.863C299.5 273.852 299.498 273.84 299.494 273.828C299.41 273.576 299.344 273.34 299.305 273.123V273.125Z" fill="#222222"/>
<path d="M299.52 273.9C299.603 274.143 299.707 274.398 299.83 274.67C299.748 274.467 299.674 274.268 299.603 274.076C299.572 274.016 299.545 273.957 299.518 273.902L299.52 273.9Z" fill="#222222"/>
<path d="M299.504 273.863C299.51 273.875 299.514 273.887 299.519 273.898C299.512 273.875 299.502 273.852 299.494 273.828C299.498 273.84 299.5 273.852 299.504 273.863Z" fill="#222222"/>
<path d="M299.529 273.855C299.445 273.604 299.367 273.359 299.305 273.125C299.336 273.242 299.367 273.359 299.401 273.477C299.438 273.598 299.48 273.725 299.529 273.855Z" fill="#222222"/>
<path d="M299.65 274.164C299.709 274.275 299.775 274.393 299.849 274.514C299.601 274 299.42 273.535 299.305 273.125C299.365 273.357 299.443 273.604 299.529 273.855C299.566 273.955 299.607 274.059 299.65 274.164Z" fill="#222222"/>
<path d="M299.603 274.074C299.619 274.104 299.633 274.133 299.648 274.164C299.605 274.059 299.564 273.955 299.527 273.855C299.553 273.928 299.576 274.002 299.603 274.076V274.074Z" fill="#222222"/>
<path d="M299.401 273.477C299.363 273.355 299.332 273.238 299.305 273.125C299.346 273.34 299.41 273.578 299.494 273.83C299.463 273.713 299.432 273.594 299.399 273.477H299.401Z" fill="#222222"/>
<path d="M299.305 273.125C299.33 273.236 299.363 273.355 299.401 273.477C299.369 273.359 299.338 273.242 299.305 273.125Z" fill="#222222"/>
<path d="M449.72 189.244C458.006 193.031 464.714 202.924 464.714 215.508C464.714 237.125 437.295 257.762 411.12 261.125C411.093 261.129 411.063 261.133 411.036 261.135C410.351 262.676 409.624 264.193 408.857 265.684C398.225 286.357 379.996 301.836 361.526 301.836C434.283 301.836 479.146 264.531 479.146 223.906C479.146 210.229 469.45 190.801 449.718 189.244H449.72Z" fill="#9AA5EC"/>
<path d="M301.938 277.967C302.243 278.406 302.57 278.859 302.921 279.334C304.076 280.721 305.504 282.215 307.216 283.754C304.975 281.656 303.226 279.689 301.94 277.969L301.938 277.967Z" fill="#222222"/>
<path d="M449.5 189.141C449.574 189.174 449.646 189.211 449.72 189.244C469.452 190.801 479.148 210.229 479.148 223.906C479.148 264.531 434.285 301.836 361.528 301.836C351.13 301.836 342.103 300.414 334.392 298.189C332.89 297.756 331.439 297.291 330.036 296.801C319.856 293.242 312.294 288.314 307.215 283.752C312.204 288.422 319.622 293.734 329.716 298.408C331.93 299.434 334.275 300.428 336.748 301.379C336.895 301.418 337.047 301.457 337.197 301.496C347.406 304.156 366.707 308.281 388.251 308.281C447.549 308.281 485 265.312 485 229.766C485 212.969 473.297 189.141 449.5 189.141Z" fill="#535FA8"/>
<path d="M301.938 277.967C301.023 276.65 300.319 275.49 299.849 274.512C299.775 274.391 299.709 274.273 299.65 274.162C300.081 275.203 300.84 276.494 301.938 277.965V277.967Z" fill="#222222"/>
<path d="M300.101 276.186C299.906 275.398 299.707 274.625 299.504 273.865C299.375 273.574 299.305 273.324 299.305 273.127C299.305 273.842 299.592 274.871 300.101 276.187V276.186Z" fill="#222222"/>
<path d="M319.786 304.082L319.716 304.064C320.006 304.461 320.297 304.857 320.588 305.256C320.322 304.867 320.055 304.477 319.786 304.082Z" fill="#222222"/>
<path d="M285.555 288.904C284.219 289.844 282.787 290.773 281.266 291.682C282.75 290.822 284.186 289.887 285.555 288.904Z" fill="#222222"/>
<path d="M411.12 261.125C411.223 260.838 411.327 260.539 411.432 260.229C411.301 260.531 411.169 260.834 411.036 261.135C411.063 261.131 411.093 261.129 411.12 261.125Z" fill="#222222"/>
<path d="M285.555 288.904C294.544 282.586 299.305 275.883 299.305 273.125C299.305 275.818 293.574 283.152 285.555 288.904Z" fill="#222222"/>
<path d="M299.529 273.855C299.48 273.725 299.437 273.598 299.4 273.477C299.432 273.594 299.463 273.711 299.496 273.83C299.504 273.854 299.514 273.877 299.521 273.9C299.547 273.957 299.576 274.016 299.607 274.074C299.58 274 299.556 273.928 299.531 273.854L299.529 273.855Z" fill="#222222"/>
<path d="M232.01 371.562C232.01 356.914 258.563 355.615 273.947 347.539C294.038 336.992 299.89 320.195 299.305 273.125C299.305 277.914 291.791 293.439 284.102 306.16C285.354 310.281 285.979 317.375 280.579 326.152C269.949 343.437 225.573 350.566 225.573 371.66C225.573 378.301 230.254 384.062 236.886 384.062C241.839 384.062 246.044 382.014 246.239 380.645C244.521 381.232 242.43 381.719 240.202 381.719C234.546 381.719 232.01 377.227 232.01 371.562Z" fill="#535FA8"/>
<path d="M261.269 315.898C236.691 337.187 199.045 348.711 178.759 348.711C158.473 348.711 150.476 336.602 150.476 323.32C150.476 319.314 151.551 315.307 152.623 312.303C152.623 312.264 152.621 312.227 152.621 312.187C151.061 312.187 145.99 321.758 145.99 335.039C145.99 354.18 157.888 366.875 178.759 366.875C215.442 366.875 271.094 326.334 284.085 306.102C284.09 306.121 284.096 306.141 284.102 306.16C291.791 293.439 299.305 277.916 299.305 273.125C299.305 278.008 285.846 294.609 261.269 315.898Z" fill="#535FA8"/>
<path d="M306.678 313.867C306.204 310.135 305.627 305.896 304.95 301.447C303.682 293.119 302.059 284.053 300.103 276.186C299.594 274.869 299.307 273.84 299.307 273.125C299.892 320.195 294.04 336.992 273.949 347.539C258.565 355.615 232.012 356.914 232.012 371.562C232.012 377.227 234.548 381.719 240.204 381.719C242.434 381.719 244.525 381.232 246.241 380.645C246.245 380.611 246.251 380.578 246.251 380.547C241.375 380.547 238.059 377.812 238.059 374.297C238.059 364.219 268.753 361.781 288.579 353.008C299.873 348.01 306.817 336.113 306.817 322.246C306.817 319.484 306.824 317.127 306.836 315.109C306.785 314.701 306.733 314.287 306.68 313.867H306.678Z" fill="#222B64"/>
<path d="M306.834 315.109C306.834 314.943 306.836 314.779 306.838 314.619C306.786 314.367 306.733 314.115 306.678 313.867C306.731 314.287 306.784 314.701 306.834 315.109Z" fill="#222222"/>
<path d="M440.384 308.678C440.367 308.676 440.347 308.672 440.332 308.672C440.332 327.227 426.873 344.023 403.466 344.023C389.457 344.023 357.844 324.977 337.269 301.58C337.094 301.514 336.922 301.447 336.748 301.381C334.273 300.43 331.93 299.436 329.716 298.41C319.622 293.736 312.206 288.424 307.215 283.754C305.502 282.217 304.074 280.723 302.919 279.334C318.957 300.924 382.38 356.914 415.753 356.914C441.75 356.914 443.166 323.316 440.383 308.678H440.384Z" fill="#9AA5EC"/>
<path d="M336.748 301.379C336.922 301.445 337.096 301.512 337.269 301.578C337.246 301.551 337.22 301.523 337.197 301.496C337.047 301.457 336.895 301.418 336.748 301.379Z" fill="#222222"/>
<path d="M440.384 308.678C443.168 323.316 441.75 356.914 415.754 356.914C382.38 356.914 318.959 300.924 302.921 279.334C301.439 277.553 300.413 275.953 299.83 274.67C302.322 280.883 310.685 291.75 319.716 304.064L319.786 304.082C320.055 304.477 320.322 304.867 320.588 305.256C321.434 306.5 322.257 307.717 323.055 308.912C323.311 309.184 323.576 309.465 323.849 309.754C340.593 327.449 390.703 377.814 418.68 377.814C434.285 377.814 449.89 362.385 449.89 336.213C449.89 324.887 442.415 308.957 440.384 308.68V308.678Z" fill="#535FA8"/>
<path d="M323.055 308.912C322.259 307.717 321.436 306.5 320.588 305.256C320.297 304.857 320.007 304.461 319.716 304.064C310.687 291.75 302.323 280.883 299.83 274.67C299.707 274.398 299.603 274.143 299.52 273.9C299.514 273.889 299.51 273.877 299.504 273.865C299.707 274.625 299.906 275.4 300.101 276.186C304.328 287.107 323.98 317.861 323.98 353.594C323.98 367.266 316.568 374.297 293.551 370.781C271.377 367.395 265.365 375.859 265.365 383.867C265.365 389.727 269.656 393.242 274.143 393.242C276.179 393.242 277.449 392.357 278.233 391.391C278.237 391.355 278.239 391.322 278.239 391.289C267.316 391.289 269.461 379.766 278.824 379.766C288.187 379.766 305.254 383.77 318.226 383.77C334.708 383.77 338.902 369.512 338.902 355.254C338.902 335.459 332.993 323.822 323.055 308.912Z" fill="#384386"/>
<path d="M300.101 276.186C302.059 284.053 303.68 293.119 304.948 301.447C305.625 305.896 306.202 310.135 306.676 313.867C306.729 314.115 306.781 314.365 306.836 314.619C308.516 322.639 310.033 333.117 310.033 344.807C310.033 357.795 303.596 363.947 283.31 363.947C266.925 363.947 258.343 372.443 258.343 382.307C258.343 389.826 263.414 395.002 270.046 395.002C275.365 395.002 278.094 392.686 278.233 391.393C277.451 392.359 276.179 393.244 274.142 393.244C269.656 393.244 265.365 389.729 265.365 383.869C265.365 375.861 271.377 367.396 293.551 370.783C316.568 374.299 323.98 367.268 323.98 353.596C323.98 317.861 304.328 287.107 300.101 276.188V276.186Z" fill="#7480CA"/>
<path d="M190.252 265.271C189.819 264.471 189.413 263.695 189.029 262.945C188.91 262.645 188.795 262.348 188.682 262.053C188.647 262.051 188.61 262.049 188.575 262.047C158.721 260.014 133.701 235.818 133.701 213.945C133.701 202.033 137.904 194.979 146.161 189.977C134.481 193.393 120.437 203.512 120.437 226.055C120.437 270.391 167.836 302.617 240.007 302.617C214.605 302.617 198.255 280.084 190.252 265.271Z" fill="#B5BEF8"/>
<path d="M299.305 273.125C315.144 273.125 323.254 272.053 332.27 268.236C333.067 267.898 333.871 267.539 334.688 267.158C334.696 267.154 334.706 267.15 334.714 267.146L347.861 244.438C320.664 247.078 299.305 273.125 299.305 273.125Z" fill="#CED5FF"/>
<path d="M344.946 240.768C344.96 240.74 344.976 240.713 344.989 240.686C344.958 240.688 344.927 240.691 344.896 240.693C344.911 240.719 344.929 240.742 344.945 240.766L344.946 240.768Z" fill="#222222"/>
<path d="M303.791 148.125C331.501 148.125 354.073 171.816 355.417 199.785C355.458 198.6 355.482 197.396 355.482 196.172C355.482 161.895 331.295 139.531 298.817 139.531C271.314 139.531 242.738 161.699 242.738 203.984C242.738 219.621 250.599 233.904 254.391 239.887C250.734 233.002 247.615 219.186 247.615 211.797C247.615 174.297 269.851 148.125 303.791 148.125Z" fill="#B5BEF8"/>
<path d="M344.947 240.768C344.931 240.742 344.913 240.719 344.898 240.695C344.258 240.752 343.626 240.82 343 240.9C314.244 244.582 299.307 273.127 299.307 273.127C299.307 273.127 320.666 247.08 347.863 244.439L347.876 244.416C347.876 244.416 346.562 243.182 344.948 240.77L344.947 240.768Z" fill="#9AA5EC"/>
<path d="M438.83 147.795C436.039 136.826 427.267 128.984 418.095 128.984C400.15 128.984 389.422 143.242 389.422 237.969C389.422 271.367 371.379 295.586 338.512 295.586C336.272 295.586 333.996 295.301 331.724 294.799C331.314 294.709 330.906 294.611 330.497 294.506C316.357 290.893 302.703 279.18 299.849 274.512C300.319 275.488 301.023 276.65 301.938 277.967C303.224 279.689 304.975 281.656 307.215 283.752C312.296 288.312 319.858 293.242 330.036 296.801C331.439 297.291 332.89 297.756 334.392 298.189C342.103 300.416 351.13 301.836 361.528 301.836C379.998 301.836 398.225 286.357 408.859 265.684C409.626 264.193 410.353 262.676 411.038 261.135C411.173 260.834 411.303 260.531 411.434 260.229C413.141 255.209 415.169 247.117 415.169 236.992C415.169 215.117 407.172 189.141 407.172 160.625C407.172 132.109 429.955 139.07 438.83 147.795Z" fill="#535FA8"/>
<path d="M410.488 120C385.325 120 376.84 154.082 376.84 221.27C376.84 252.324 366.307 270.586 347.679 270.586C343.326 270.586 337.813 269.648 334.7 267.168C334.696 267.164 334.692 267.162 334.688 267.158C333.871 267.539 333.067 267.9 332.27 268.236C323.254 272.053 315.144 273.125 299.305 273.125C299.42 273.535 299.601 273.998 299.849 274.514C302.703 279.182 316.355 290.895 330.497 294.508C330.906 294.613 331.314 294.711 331.724 294.801C333.996 295.303 336.272 295.588 338.512 295.588C371.379 295.588 389.422 271.369 389.422 237.971C389.422 143.244 400.15 128.986 418.095 128.986C427.267 128.986 436.039 136.828 438.83 147.797C438.875 147.842 438.921 147.887 438.966 147.932C438.966 129.963 428.043 120.002 410.488 120.002V120Z" fill="#9AA5EC"/>
<path d="M334.7 267.168L334.712 267.146C334.712 267.146 334.694 267.154 334.687 267.158C334.69 267.162 334.694 267.164 334.698 267.168H334.7Z" fill="#222222"/>
<path d="M303.791 148.125C269.851 148.125 247.615 174.297 247.615 211.797C247.615 219.184 250.734 233.002 254.391 239.887C254.518 240.086 254.639 240.277 254.756 240.457C254.766 240.457 254.777 240.457 254.787 240.459C255.327 240.502 255.86 240.553 256.39 240.613C285.491 243.9 299.303 273.125 299.303 273.125C299.303 273.125 314.241 244.58 342.996 240.898C343.622 240.818 344.254 240.75 344.894 240.693C344.925 240.691 344.956 240.688 344.988 240.686C348.095 234.912 354.703 220.344 355.415 199.785C354.071 171.814 331.499 148.125 303.789 148.125H303.791Z" fill="#535FA8"/>
<path d="M263.9 266.229C263.9 266.229 263.9 266.229 263.9 266.231C263.9 266.231 263.902 266.231 263.904 266.233C263.904 266.233 263.904 266.231 263.902 266.229H263.9Z" fill="#222222"/>
<path d="M265.56 267.062C265.018 266.797 264.466 266.52 263.902 266.232C263.902 266.232 263.9 266.232 263.898 266.23C262.312 268.359 259.381 270.779 254.247 270.779C231.23 270.779 220.111 254.08 220.111 198.123C220.111 142.166 209.188 120.195 187.927 120.195C166.666 120.195 159.253 133.867 159.253 147.539C159.706 146.994 160.174 146.48 160.656 145.992C164.118 136.477 172.831 128.594 183.05 128.594C196.314 128.594 205.092 141.875 205.092 165.508C205.092 189.141 203.922 243.047 213.675 261.211C223.427 279.375 246.834 296.562 265.365 296.562C267.635 296.562 269.919 296.209 272.172 295.59C273.208 295.305 274.238 294.965 275.258 294.574C277.32 293.785 279.335 292.799 281.268 291.682C282.789 290.773 284.221 289.844 285.557 288.904C293.576 283.15 299.307 275.816 299.307 273.125C281.953 273.125 275.303 271.838 265.562 267.062H265.56Z" fill="#9AA5EC"/>
<path d="M275.256 294.574C274.238 294.965 273.208 295.305 272.17 295.59C269.917 296.209 267.633 296.562 265.363 296.562C246.832 296.562 223.425 279.375 213.672 261.211C203.92 243.047 205.09 189.141 205.09 165.508C205.09 141.875 196.312 128.594 183.048 128.594C172.829 128.594 164.116 136.479 160.654 145.992C165.366 141.23 171.466 139.141 178.367 139.141C185.974 139.141 191.241 144.414 191.241 155.547C191.241 197.734 184.024 205.938 184.024 232.5C184.024 245.344 184.816 252.006 188.68 262.053C188.793 262.348 188.908 262.645 189.027 262.945C189.411 263.695 189.817 264.473 190.25 265.271C198.253 280.084 214.601 302.617 240.005 302.617C252.286 302.617 262.839 300.127 271.495 296.564C272.88 295.994 274.216 295.398 275.502 294.779C277.548 293.795 279.469 292.754 281.264 291.684C279.333 292.801 277.316 293.787 275.254 294.576L275.256 294.574Z" fill="#535FA8"/>
<path d="M254.758 240.457C254.758 240.457 254.767 240.472 254.773 240.48L254.788 240.459C254.778 240.459 254.767 240.459 254.758 240.457Z" fill="#222222"/>
<path d="M256.392 240.613C255.864 240.553 255.329 240.502 254.789 240.459L254.773 240.48L251.321 245C251.321 245 251.334 245.02 251.358 245.053C279.513 246.336 299.305 273.125 299.305 273.125C299.305 273.125 285.493 243.9 256.392 240.613Z" fill="#9AA5EC"/>
<path d="M251.358 245.053C251.951 245.896 259.73 257.012 263.9 266.23C263.9 266.23 263.9 266.232 263.902 266.234C264.466 266.521 265.018 266.799 265.56 267.064C275.301 271.84 281.951 273.127 299.305 273.127C299.305 273.127 279.513 246.338 251.358 245.055V245.053Z" fill="#E2E6FF"/>
<path d="M294.74 280.908C297.625 277.701 299.172 274.938 299.295 273.326C299.16 274.84 297.555 277.623 294.74 280.908Z" fill="#222222"/>
<path d="M299.305 273.125C299.305 273.189 299.299 273.258 299.295 273.326C299.295 273.316 299.297 273.307 299.299 273.297C299.303 273.238 299.307 273.18 299.307 273.125H299.305Z" fill="#222222"/>
<path d="M299.295 273.326C299.174 274.938 297.627 277.701 294.741 280.908C290.795 285.516 284.471 291.111 276.483 295.586C276.483 295.586 273.511 297.711 268.025 300.285C253.656 313.543 212.108 335.039 181.295 335.039C169.041 335.039 152.719 325.523 152.623 312.303C151.551 315.307 150.476 319.312 150.476 323.32C150.476 336.602 158.473 348.711 178.759 348.711C199.045 348.711 236.691 337.188 261.269 315.898C285.569 294.85 298.997 278.385 299.297 273.297C299.297 273.307 299.295 273.316 299.293 273.326H299.295Z" fill="#9AA5EC"/>
<path d="M285.555 288.904C284.186 289.887 282.752 290.822 281.266 291.682C279.471 292.752 277.552 293.793 275.504 294.777C274.219 295.396 272.88 295.992 271.497 296.562C262.841 300.125 252.288 302.615 240.007 302.615C167.836 302.615 120.437 270.389 120.437 226.053C120.437 203.51 134.481 193.393 146.161 189.975C146.975 189.482 147.827 189.008 148.72 188.553C130.19 188.555 114 204.375 114 231.914C114 285.82 169.006 309.258 226.548 309.258C245.219 309.258 259.593 304.24 268.025 300.285C273.512 297.711 276.483 295.586 276.483 295.586C284.471 291.111 290.795 285.516 294.741 280.908C292.484 283.418 289.41 286.195 285.555 288.906V288.904Z" fill="#7480CA"/>
</g>
</svg>
