<svg viewBox="0 0 601 600" aria-labelledby="envy-title" fill="none" xmlns="http://www.w3.org/2000/svg">
<title id="envy-title">Envy</title>
<path fill-rule="evenodd" clip-rule="evenodd" d="M342.277 9.06339L538.248 97.0571C575.801 113.919 600 151.52 600 193.012V406.988C600 448.479 575.801 486.081 538.248 502.943L342.277 590.937C328.969 596.912 314.565 600 300 600C285.435 600 271.031 596.912 257.723 590.937L61.752 502.943C24.199 486.081 0 448.48 0 406.989V193.011C0 151.52 24.199 113.918 61.752 97.0571L257.723 9.06339C271.031 3.08776 285.435 0 300 0C314.565 0 328.969 3.08776 342.277 9.06339V9.06339Z" fill="#202020"/>
<path class="inner-ring" opacity="0.5" fill-rule="evenodd" clip-rule="evenodd" d="M332.324 42.9255C322.145 38.3591 311.134 36 300 36C288.866 36 277.855 38.3591 267.676 42.9255L76.7998 128.553C51.9932 139.681 36 164.561 36 192.021V407.978C36 435.439 51.9932 460.318 76.7998 471.446L267.676 557.075C277.855 561.641 288.865 564 299.999 564C311.134 564 322.144 561.641 332.323 557.075L523.199 471.446C548.006 460.318 564 435.439 564 407.978V192.021C564 164.561 548.006 139.681 523.199 128.553L332.325 42.9255H332.324Z" stroke="#40A67B" stroke-width="24"/>
<path class="outer-ring" fill-rule="evenodd" clip-rule="evenodd" d="M337.402 20.0209C325.629 14.7326 312.888 12 300.003 12C287.118 12 274.377 14.7326 262.604 20.0209L66.6315 108.051C33.4101 122.972 12.0029 156.249 12.0029 192.968V407.032C12.0029 443.751 33.4101 477.028 66.6305 491.95L262.604 579.979C274.377 585.267 287.118 588 300.003 588C312.888 588 325.629 585.267 337.402 579.979L533.374 491.95C566.596 477.028 588.003 443.751 588.003 407.032V192.969C588.003 156.249 566.596 122.972 533.375 108.051L337.402 20.0209Z" stroke="#5AB57A" stroke-width="24"/>
<path d="M259.482 430.963H241.652V440.401H261.972V447H234.156V410.294H261.076V416.793H241.652V424.588H259.482V430.963ZM297.632 447H289.962L274.971 420.927V447H267.824V410.294H275.868L290.485 435.918V410.294H297.632V447ZM302.09 410.294H310.283L318.251 438.16L326.295 410.294H334.264L321.738 447H314.491L302.09 410.294ZM368.455 410.294L356.178 433.204V447H348.508V433.204L335.808 410.294H344.847L352.467 426.281L359.764 410.294H368.455Z" fill="#75C578"/>
<path d="M290.207 242.138H309.793L309.793 214.717C309.793 214.717 309.793 204.924 300 204.924C290.206 204.924 290.207 214.717 290.207 214.717L290.207 242.138Z" fill="#299679"/>
<path d="M300 212.759C297.295 212.759 295.103 214.951 295.103 217.655V217.655C295.103 220.36 297.295 222.552 300 222.552V222.552C302.704 222.552 304.896 220.36 304.896 217.655V217.655C304.896 214.951 302.704 212.759 300 212.759V212.759Z" fill="#93D375"/>
<path d="M300 343.986C300 343.986 309.793 312.648 309.793 296.979C309.793 281.31 309.793 224.51 309.793 224.51L300 234.303L290.207 224.51C290.207 224.51 290.207 281.31 290.207 296.979C290.207 312.648 300 343.986 300 343.986Z" fill="#04756F"/>
<path d="M299.999 343.986L304.896 248.993C304.896 248.993 304.896 244.097 299.999 244.097C295.103 244.097 295.103 248.993 295.103 248.993L299.999 343.986Z" fill="#5AB57A"/>
<path d="M290.207 265.641L275.517 231.366L260.828 197.09L206.966 154L158 167.71L172.69 226.469L206.966 253.89L180.524 304.814L206.966 363.572C206.966 363.572 252.993 373.366 260.828 369.448C268.662 365.531 280.414 343.986 280.414 343.986L290.207 289.145" fill="#148575"/>
<path d="M233.407 324.4L280.414 343.986L290.207 289.145V275.434L233.407 324.4Z" fill="#299679"/>
<path d="M206.966 363.572C206.966 363.572 252.994 373.366 260.828 369.448C268.662 365.531 280.414 343.986 280.414 343.986L233.407 324.4L206.966 363.572Z" fill="#40A67B"/>
<path d="M206.966 363.572L233.407 324.4L180.524 304.814L206.966 363.572Z" fill="#D5EE6F"/>
<path d="M206.965 253.89L180.524 304.814L233.407 324.4L206.965 253.89Z" fill="#75C578"/>
<path d="M206.966 253.89L276.007 287.676L290.207 275.434L206.966 253.89Z" fill="#93D375"/>
<path d="M158 167.71L206.966 210.8L290.207 275.434V265.641L260.828 197.09L206.966 154L158 167.71Z" fill="#299679"/>
<path d="M158 167.71L206.966 218.634V154L158 167.71Z" fill="#40A67B"/>
<path d="M206.965 154V210.8L260.827 197.09L206.965 154Z" fill="#5AB57A"/>
<path d="M206.966 210.8L172.69 226.469L206.966 253.89V210.8Z" fill="#75C578"/>
<path d="M206.966 210.8L158 167.71L172.69 226.469L206.966 210.8Z" fill="#B3E172"/>
<path d="M206.965 210.8V253.89L233.407 260.745L290.207 275.434L206.965 210.8Z" fill="#5AB57A"/>
<path d="M309.793 265.641L324.483 231.366L339.172 197.09L393.034 154L442 167.71L427.31 226.469L393.034 253.89L419.476 304.814L393.034 363.572C393.034 363.572 347.007 373.366 339.172 369.448C331.338 365.531 319.586 343.986 319.586 343.986L309.793 289.145" fill="#148575"/>
<path d="M366.593 324.4L319.586 343.986L309.793 289.145V275.434L366.593 324.4Z" fill="#299679"/>
<path d="M393.034 363.572C393.034 363.572 347.007 373.366 339.172 369.448C331.338 365.531 319.586 343.986 319.586 343.986L366.593 324.4L393.034 363.572Z" fill="#40A67B"/>
<path d="M393.034 363.572L366.593 324.4L419.476 304.814L393.034 363.572Z" fill="#D5EE6F"/>
<path d="M393.035 253.89L419.476 304.814L366.593 324.4L393.035 253.89Z" fill="#75C578"/>
<path d="M393.034 253.89L323.993 287.676L309.793 275.434L393.034 253.89Z" fill="#93D375"/>
<path d="M442 167.71L393.034 210.8L309.793 275.434V265.641L339.172 197.09L393.034 154L442 167.71Z" fill="#299679"/>
<path d="M442 167.71L393.034 218.634V154L442 167.71Z" fill="#40A67B"/>
<path d="M393.034 154V210.8L339.172 197.09L393.034 154Z" fill="#5AB57A"/>
<path d="M393.034 210.8L427.31 226.469L393.034 253.89V210.8Z" fill="#75C578"/>
<path d="M393.034 210.8L442 167.71L427.31 226.469L393.034 210.8Z" fill="#B3E172"/>
<path d="M393.034 210.8V253.89L366.593 260.745L309.793 275.434L393.034 210.8Z" fill="#5AB57A"/>
</svg>
