<svg viewBox="0 0 250 250" fill="none" xmlns="http://www.w3.org/2000/svg" role="img" aria-labelledby="envy-title">
<title id="envy-title">Envy</title>
<path fill-rule="evenodd" clip-rule="evenodd" d="M142.615 3.77641L224.27 40.4405C239.917 47.4662 250 63.1334 250 80.4216V169.578C250 186.866 239.917 202.534 224.27 209.56L142.615 246.224C137.07 248.713 131.069 250 125 250C118.931 250 112.93 248.713 107.385 246.224L25.73 209.56C10.0829 202.534 0 186.867 0 169.579V80.4212C0 63.1334 10.0829 47.4658 25.73 40.4405L107.385 3.77641C112.93 1.28657 118.931 0 125 0C131.069 0 137.07 1.28657 142.615 3.77641Z" fill="#202020"/>
<path opacity="0.5" fill-rule="evenodd" clip-rule="evenodd" d="M138.468 17.8856C134.227 15.983 129.639 15 125 15C120.361 15 115.773 15.983 111.531 17.8856L31.9999 53.5637C21.6638 58.2004 15 68.5671 15 80.0087V169.991C15 181.433 21.6638 191.799 31.9999 196.436L111.531 232.114C115.773 234.017 120.361 235 125 235C129.639 235 134.227 234.017 138.468 232.114L218 196.436C228.336 191.799 235 181.433 235 169.991V80.0087C235 68.5671 228.336 58.2004 218 53.5637L138.469 17.8856H138.468Z" stroke="#5AB57A" stroke-width="10"/>
<path fill-rule="evenodd" clip-rule="evenodd" d="M140.584 8.34205C135.679 6.13859 130.37 5 125.001 5C119.632 5 114.324 6.13859 109.418 8.34205L27.7631 45.0211C13.9209 51.2385 5.00122 65.1039 5.00122 80.4033V169.597C5.00122 184.896 13.9209 198.762 27.7627 204.979L109.418 241.658C114.324 243.861 119.632 245 125.001 245C130.37 245 135.679 243.861 140.584 241.658L222.239 204.979C236.082 198.762 245.001 184.896 245.001 169.597V80.4038C245.001 65.1039 236.082 51.2385 222.24 45.0211L140.584 8.34205Z" stroke="#5AB57A" stroke-width="10"/>
<path d="M120.5 115H130.5L130.5 101C130.5 101 130.5 96 125.5 96C120.5 96 120.5 101 120.5 101L120.5 115Z" fill="#299679"/>
<path d="M125.5 100C124.119 100 123 101.119 123 102.5C123 103.881 124.119 105 125.5 105C126.881 105 128 103.881 128 102.5C128 101.119 126.881 100 125.5 100Z" fill="#93D375"/>
<path d="M125.5 167C125.5 167 130.5 151 130.5 143C130.5 135 130.5 106 130.5 106L125.5 111L120.5 106C120.5 106 120.5 135 120.5 143C120.5 151 125.5 167 125.5 167Z" fill="#04756F"/>
<path d="M125.5 167L128 118.5C128 118.5 128 116 125.5 116C123 116 123 118.5 123 118.5L125.5 167Z" fill="#5AB57A"/>
<path d="M120.5 127L113 109.5L105.5 92L78 70L53 77L60.5001 107L78 121L64.5001 147L78 177C78 177 101.5 182 105.5 180C109.5 178 115.5 167 115.5 167L120.5 139" fill="#148575"/>
<path d="M91.5 157L115.5 167L120.5 139V132L91.5 157Z" fill="#299679"/>
<path d="M78 177C78 177 101.5 182 105.5 180C109.5 178 115.5 167 115.5 167L91.4999 157L78 177Z" fill="#40A67B"/>
<path d="M78 177L91.4999 157L64.5 147L78 177Z" fill="#D5EE6F"/>
<path d="M77.9999 121L64.5 147L91.4999 157L77.9999 121Z" fill="#75C578"/>
<path d="M78 121L113.25 138.25L120.5 132L78 121Z" fill="#93D375"/>
<path d="M53 77L78 99L120.5 132V127L105.5 92L78 70L53 77Z" fill="#299679"/>
<path d="M53 77L78 103V70L53 77Z" fill="#40A67B"/>
<path d="M78 70V99L105.5 92L78 70Z" fill="#5AB57A"/>
<path d="M78 99L60.5 107L78 121V99Z" fill="#75C578"/>
<path d="M78 99L53 77L60.5001 107L78 99Z" fill="#B3E172"/>
<path d="M78 99V121L91.5 124.5L120.5 132L78 99Z" fill="#5AB57A"/>
<path d="M130.5 127L138 109.5L145.5 92L173 70L198 77L190.5 107L173 121L186.5 147L173 177C173 177 149.5 182 145.5 180C141.5 178 135.5 167 135.5 167L130.5 139" fill="#148575"/>
<path d="M159.5 157L135.5 167L130.5 139V132L159.5 157Z" fill="#299679"/>
<path d="M173 177C173 177 149.5 182 145.5 180C141.5 178 135.5 167 135.5 167L159.5 157L173 177Z" fill="#40A67B"/>
<path d="M173 177L159.5 157L186.5 147L173 177Z" fill="#D5EE6F"/>
<path d="M173 121L186.5 147L159.5 157L173 121Z" fill="#75C578"/>
<path d="M173 121L137.75 138.25L130.5 132L173 121Z" fill="#93D375"/>
<path d="M198 77L173 99L130.5 132V127L145.5 92L173 70L198 77Z" fill="#299679"/>
<path d="M198 77L173 103V70L198 77Z" fill="#40A67B"/>
<path d="M173 70V99L145.5 92L173 70Z" fill="#5AB57A"/>
<path d="M173 99L190.5 107L173 121V99Z" fill="#75C578"/>
<path d="M173 99L198 77L190.5 107L173 99Z" fill="#B3E172"/>
<path d="M173 99V121L159.5 124.5L130.5 132L173 99Z" fill="#5AB57A"/>
</svg>
