<svg viewBox="0 0 600 600" fill="none" xmlns="http://www.w3.org/2000/svg" role="img" aria-labelledby="figlog-title">
<title id="figlog-title">FigLog</title>
<path fill-rule="evenodd" clip-rule="evenodd" d="M342.277 9.06339L538.248 97.0571C575.801 113.919 600 151.52 600 193.012V406.988C600 448.479 575.801 486.081 538.248 502.943L342.277 590.937C328.969 596.912 314.565 600 300 600C285.435 600 271.031 596.912 257.723 590.937L61.752 502.943C24.199 486.081 0 448.48 0 406.989V193.011C0 151.52 24.199 113.918 61.752 97.0571L257.723 9.06339C271.031 3.08776 285.435 0 300 0C314.565 0 328.969 3.08776 342.277 9.06339Z" fill="#202020"/>
<path opacity="0.5" fill-rule="evenodd" clip-rule="evenodd" d="M332.324 42.9255C322.145 38.3591 311.134 36 300 36C288.866 36 277.855 38.3591 267.676 42.9255L76.7998 128.553C51.9932 139.681 36 164.561 36 192.021V407.978C36 435.439 51.9932 460.318 76.7998 471.446L267.676 557.075C277.855 561.641 288.865 564 299.999 564C311.134 564 322.144 561.641 332.323 557.075L523.199 471.446C548.006 460.318 564 435.439 564 407.978V192.021C564 164.561 548.006 139.681 523.199 128.553L332.325 42.9255H332.324Z" stroke="#68A7B8" stroke-width="24"/>
<path fill-rule="evenodd" clip-rule="evenodd" d="M337.402 20.0209C325.629 14.7326 312.888 12 300.003 12C287.118 12 274.377 14.7326 262.604 20.0209L66.6315 108.051C33.4101 122.972 12.0029 156.249 12.0029 192.968V407.032C12.0029 443.751 33.4101 477.028 66.6305 491.95L262.604 579.979C274.377 585.267 287.118 588 300.003 588C312.888 588 325.629 585.267 337.402 579.979L533.374 491.95C566.596 477.028 588.003 443.751 588.003 407.032V192.969C588.003 156.249 566.596 122.972 533.375 108.051L337.402 20.0209Z" stroke="#68A7B8" stroke-width="24"/>
<path d="M231.091 416.793H212.688V425.235H228.8V431.61H212.688V447H205.068V410.344H231.091V416.793ZM235.648 410.294H243.269V447H235.648V410.294ZM272.952 446.104C270.927 447.349 268.437 447.971 265.481 447.971C260.617 447.971 256.633 446.286 253.528 442.916C250.291 439.529 248.672 434.897 248.672 429.021C248.672 423.077 250.308 418.312 253.578 414.727C256.849 411.141 261.173 409.348 266.552 409.348C271.217 409.348 274.961 410.535 277.783 412.909C280.622 415.266 282.249 418.213 282.664 421.749H275.119C274.538 419.242 273.118 417.491 270.86 416.495C269.599 415.947 268.196 415.673 266.652 415.673C263.697 415.673 261.265 416.793 259.355 419.035C257.463 421.259 256.517 424.613 256.517 429.095C256.517 433.611 257.546 436.807 259.604 438.683C261.663 440.559 264.004 441.497 266.627 441.497C269.2 441.497 271.309 440.758 272.952 439.28C274.596 437.786 275.608 435.835 275.99 433.428H267.499V427.302H282.789V447H277.708L276.937 442.418C275.459 444.161 274.131 445.39 272.952 446.104ZM290.135 410.294H297.805V440.401H315.983V447H290.135V410.294ZM337.549 448.021C332.303 448.021 328.293 446.593 325.521 443.738C321.802 440.235 319.943 435.188 319.943 428.597C319.943 421.874 321.802 416.827 325.521 413.457C328.293 410.601 332.303 409.173 337.549 409.173C342.795 409.173 346.804 410.601 349.577 413.457C353.279 416.827 355.13 421.874 355.13 428.597C355.13 435.188 353.279 440.235 349.577 443.738C346.804 446.593 342.795 448.021 337.549 448.021ZM344.795 438.16C346.572 435.918 347.46 432.731 347.46 428.597C347.46 424.48 346.563 421.301 344.771 419.06C342.994 416.802 340.587 415.673 337.549 415.673C334.511 415.673 332.087 416.793 330.277 419.035C328.468 421.276 327.563 424.463 327.563 428.597C327.563 432.731 328.468 435.918 330.277 438.16C332.087 440.401 334.511 441.521 337.549 441.521C340.587 441.521 343.002 440.401 344.795 438.16ZM383.519 446.104C381.493 447.349 379.003 447.971 376.048 447.971C371.184 447.971 367.199 446.286 364.095 442.916C360.857 439.529 359.239 434.897 359.239 429.021C359.239 423.077 360.874 418.312 364.145 414.727C367.415 411.141 371.74 409.348 377.119 409.348C381.784 409.348 385.527 410.535 388.35 412.909C391.188 415.266 392.815 418.213 393.23 421.749H385.685C385.104 419.242 383.685 417.491 381.427 416.495C380.165 415.947 378.762 415.673 377.218 415.673C374.263 415.673 371.831 416.793 369.922 419.035C368.029 421.259 367.083 424.613 367.083 429.095C367.083 433.611 368.112 436.807 370.171 438.683C372.229 440.559 374.57 441.497 377.193 441.497C379.767 441.497 381.875 440.758 383.519 439.28C385.162 437.786 386.175 435.835 386.557 433.428H378.065V427.302H393.355V447H388.275L387.503 442.418C386.025 444.161 384.697 445.39 383.519 446.104Z" fill="#68A7B8"/>
<path d="M272.075 186.987H133.421C107.22 188.733 102.998 216.413 102.998 216.413C102.998 216.413 102 216.912 102 245.341C102 250.768 102.028 257.791 102.998 263.296C105.075 275.095 109.737 286.797 115.466 297.212C129.063 321.929 151.493 341.168 174.319 352.573C211.251 371.027 249.344 369.531 258.11 369.531H274.07C281.657 369.298 289.331 368.836 296.972 368.035C313.877 366.263 330.617 362.833 345.89 356.563C369.581 346.837 378.682 340.603 392.773 328.134C406.864 315.665 413.518 306.189 418.708 297.212C423.899 288.234 430.179 275.349 431.676 270.778C438.913 247.336 443.895 233.87 444.145 209.93C423.215 235.343 404.359 246.353 383.297 250.329C362.235 254.304 342.899 257.214 320.953 245.341C308.66 238.13 304.77 226.717 301.848 216.414C300.324 211.04 299.064 205.967 297.012 201.95C291.716 191.576 281.302 187.486 272.075 186.987Z" fill="#23738E"/>
<path d="M444.145 209.929C423.215 235.343 404.359 246.353 383.297 250.328C376.227 251.663 369.352 252.877 362.507 253.453L418.645 297.32L418.708 297.211C423.899 288.234 430.179 275.349 431.676 270.777C438.913 247.336 443.895 233.87 444.145 209.929Z" fill="#5B9CAF"/>
<path d="M272.075 186.987H133.421C107.22 188.733 102.998 216.413 102.998 216.413C102.998 216.413 102 216.912 102 245.341C102 250.768 102.028 257.791 102.998 263.296C105.075 275.095 109.737 286.797 115.466 297.212C129.063 321.929 151.493 341.168 174.319 352.573C211.251 371.027 249.344 369.531 258.11 369.531H274.07C281.657 369.298 289.331 368.836 296.972 368.035L297.012 201.95C291.716 191.576 281.302 187.486 272.075 186.987Z" fill="#41879F"/>
<path d="M102.998 216.413C102.998 216.413 102 216.912 102 245.341C102 250.768 102.028 257.791 102.998 263.296C105.075 275.095 109.737 286.797 115.466 297.212C118.296 302.356 121.509 307.263 125.028 311.912L222.698 186.987H133.421C107.22 188.733 102.998 216.413 102.998 216.413Z" fill="#5B9CAF"/>
<path d="M102.998 216.413C102.998 216.413 102 217.91 102 246.339H133.421V186.987C107.22 188.733 102.998 216.413 102.998 216.413Z" fill="#41879F"/>
<g style="mix-blend-mode:multiply">
<path d="M267.087 288.234C267.087 293.193 263.068 297.212 258.11 297.212C253.151 297.212 249.132 293.193 249.132 288.234C249.132 283.276 253.151 279.257 258.11 279.257C263.068 279.257 267.087 283.276 267.087 288.234Z" fill="#0D6986"/>
</g>
<path d="M174.319 352.573C211.251 371.027 249.344 369.531 258.11 369.531H274.07C281.657 369.298 289.331 368.836 296.972 368.035L102.998 216.413C102.998 216.413 102 216.912 102 245.341C102 250.768 102.028 257.791 102.998 263.296C105.075 275.095 109.737 286.797 115.466 297.211C129.063 321.929 151.493 341.168 174.319 352.573Z" fill="#5B9CAF"/>
<path d="M102.998 216.413C102.998 216.413 102 216.912 102 245.341C102 250.768 102.028 257.791 102.998 263.296C105.075 275.095 109.737 286.797 115.466 297.211C129.063 321.929 151.493 341.168 174.319 352.573C195.783 363.298 217.64 367.285 233.903 368.742L258.159 337.696L102.998 216.413Z" fill="#74B1C0"/>
<path d="M102.998 216.413C102.998 216.413 102 216.912 102 245.341C102 250.768 102.028 257.791 102.998 263.296C105.075 275.095 109.737 286.797 115.466 297.211L206.366 297.212L102.998 216.413Z" fill="#81BCC9"/>
<path d="M102.998 216.413C102.998 216.413 102 216.912 102 245.341C102 250.768 102.028 257.791 102.998 263.296L162.977 263.297L102.998 216.413Z" fill="#8EC7D2"/>
<path d="M358.828 359.019C380.463 369.829 402.778 368.953 407.913 368.953H417.262C421.707 368.816 426.202 368.545 430.678 368.076L317.049 279.257C317.049 279.257 316.464 279.549 316.464 296.202C316.464 299.381 316.48 303.495 317.048 306.72C318.265 313.632 320.996 320.487 324.352 326.588C332.317 341.068 345.457 352.337 358.828 359.019Z" fill="#327D96"/>
<path d="M317.049 279.257C317.049 279.257 316.464 279.549 316.464 296.202C316.464 299.381 316.48 303.495 317.048 306.72C318.265 313.632 320.996 320.487 324.352 326.588C332.317 341.068 345.457 352.337 358.828 359.019C364.64 361.923 370.501 363.983 376.065 365.444L395.531 340.603L317.049 279.257Z" fill="#68A7B8"/>
<path d="M317.049 279.257C317.049 279.257 316.464 279.549 316.464 296.202C316.464 296.53 316.464 296.867 316.465 297.212H340.019L317.049 279.257Z" fill="#81BCC9"/>
<path d="M380.593 229.382C356.605 210.429 356.356 189.731 355.367 182L380.593 182C392.564 182.604 400.254 181.501 414.718 191.726C426.22 201.995 428.683 209.93 428.683 224.394V237.86C408.067 238.663 395.679 238.858 380.593 229.382Z" fill="#4E92A7"/>
<path d="M380.593 229.382C356.605 210.429 356.356 189.731 355.367 182L392.773 210.678L428.683 237.86C408.067 238.663 395.679 238.858 380.593 229.382Z" fill="#81BCC9"/>
<path d="M476.773 229.382C500.761 210.429 501.011 189.731 502 182L476.773 182C464.803 182.604 457.112 181.501 442.648 191.726C431.147 201.995 428.683 209.93 428.683 224.394V237.86C449.3 238.663 461.688 238.858 476.773 229.382Z" fill="#4E92A7"/>
<path d="M476.773 229.382C500.761 210.429 501.011 189.731 502 182L464.594 210.678L428.683 237.86C449.3 238.663 461.688 238.858 476.773 229.382Z" fill="#81BCC9"/>
</svg>
