<svg viewBox="0 0 250 250" fill="none" xmlns="http://www.w3.org/2000/svg" role="img" aria-labelledby="figlog-title">
<title id="figlog-title">FigLog</title>
<path fill-rule="evenodd" clip-rule="evenodd" d="M142.615 3.77641L224.27 40.4405C239.917 47.4662 250 63.1334 250 80.4216V169.578C250 186.866 239.917 202.534 224.27 209.56L142.615 246.224C137.07 248.713 131.069 250 125 250C118.931 250 112.93 248.713 107.385 246.224L25.73 209.56C10.0829 202.534 0 186.867 0 169.579V80.4212C0 63.1334 10.0829 47.4658 25.73 40.4405L107.385 3.77641C112.93 1.28657 118.931 0 125 0C131.069 0 137.07 1.28657 142.615 3.77641Z" fill="#202020"/>
<path opacity="0.5" fill-rule="evenodd" clip-rule="evenodd" d="M138.468 17.8856C134.227 15.983 129.639 15 125 15C120.361 15 115.773 15.983 111.531 17.8856L31.9999 53.5637C21.6638 58.2004 15 68.5671 15 80.0087V169.991C15 181.433 21.6638 191.799 31.9999 196.436L111.531 232.114C115.773 234.017 120.361 235 125 235C129.639 235 134.227 234.017 138.468 232.114L218 196.436C228.336 191.799 235 181.433 235 169.991V80.0087C235 68.5671 228.336 58.2004 218 53.5637L138.469 17.8856H138.468Z" stroke="#68A7B8" stroke-width="10"/>
<path fill-rule="evenodd" clip-rule="evenodd" d="M140.584 8.34205C135.679 6.13859 130.37 5 125.001 5C119.632 5 114.324 6.13859 109.418 8.34205L27.7631 45.0211C13.9209 51.2385 5.00122 65.1039 5.00122 80.4033V169.597C5.00122 184.896 13.9209 198.762 27.7627 204.979L109.418 241.658C114.324 243.861 119.632 245 125.001 245C130.37 245 135.679 243.861 140.584 241.658L222.239 204.979C236.082 198.762 245.001 184.896 245.001 169.597V80.4038C245.001 65.1039 236.082 51.2385 222.24 45.0211L140.584 8.34205Z" stroke="#68A7B8" stroke-width="10"/>
<path d="M113.132 91.1445H53.5112C42.2446 91.8952 40.4292 103.798 40.4292 103.798C40.4292 103.798 40.0001 104.012 40 116.237C40 118.57 40.012 121.59 40.4289 123.958C41.3225 129.031 43.327 134.063 45.7905 138.541C51.6372 149.17 61.2821 157.442 71.0973 162.347C86.978 170.282 103.358 169.638 107.127 169.638H113.99C117.253 169.538 120.553 169.339 123.838 168.995C131.107 168.233 138.305 166.758 144.873 164.062C155.06 159.88 158.973 157.199 165.032 151.838C171.091 146.476 173.953 142.401 176.185 138.541C178.416 134.681 181.117 129.14 181.761 127.174C184.873 117.095 187.015 111.304 187.122 101.01C178.123 111.938 170.014 116.672 160.958 118.381C151.901 120.091 143.587 121.342 134.15 116.237C128.864 113.136 127.191 108.229 125.935 103.798C125.28 101.487 124.738 99.306 123.855 97.5784C121.578 93.118 117.1 91.359 113.132 91.1445Z" fill="#23738E"/>
<path d="M187.122 101.01C178.122 111.938 170.014 116.672 160.957 118.381C157.917 118.955 154.961 119.477 152.018 119.725L176.157 138.588L176.184 138.541C178.416 134.681 181.117 129.14 181.76 127.174C184.872 117.095 187.015 111.304 187.122 101.01Z" fill="#5B9CAF"/>
<path d="M113.132 91.1445H53.5112C42.2446 91.8952 40.4292 103.798 40.4292 103.798C40.4292 103.798 40.0001 104.012 40 116.237C40 118.57 40.012 121.59 40.4289 123.958C41.3225 129.031 43.327 134.063 45.7905 138.541C51.6372 149.17 61.2821 157.442 71.0973 162.347C86.978 170.282 103.358 169.638 107.127 169.638H113.99C117.253 169.538 120.553 169.339 123.838 168.995L123.855 97.5784C121.578 93.118 117.1 91.359 113.132 91.1445Z" fill="#41879F"/>
<path d="M40.4292 103.798C40.4292 103.798 40.0001 104.012 40 116.237C40 118.57 40.012 121.59 40.4289 123.958C41.3225 129.031 43.327 134.063 45.7905 138.541C47.0074 140.753 48.3888 142.863 49.902 144.862L91.9002 91.1445H53.5112C42.2446 91.8952 40.4292 103.798 40.4292 103.798Z" fill="#5B9CAF"/>
<path d="M40.4292 103.798C40.4292 103.798 40.0001 104.441 40 116.666H53.5112V91.1445C42.2446 91.8952 40.4292 103.798 40.4292 103.798Z" fill="#41879F"/>
<g style="mix-blend-mode:multiply">
<path d="M110.987 134.681C110.987 136.813 109.259 138.541 107.127 138.541C104.995 138.541 103.267 136.813 103.267 134.681C103.267 132.549 104.995 130.821 107.127 130.821C109.259 130.821 110.987 132.549 110.987 134.681Z" fill="#0D6986"/>
</g>
<path d="M71.0973 162.346C86.978 170.282 103.358 169.638 107.127 169.638H113.99C117.253 169.538 120.553 169.339 123.838 168.995L40.4292 103.798C40.4292 103.798 40.0001 104.012 40 116.237C40 118.57 40.012 121.59 40.4289 123.957C41.3225 129.031 43.327 134.063 45.7905 138.541C51.6372 149.17 61.2821 157.442 71.0973 162.346Z" fill="#5B9CAF"/>
<path d="M40.4292 103.798C40.4292 103.798 40.0001 104.012 40 116.237C40 118.57 40.012 121.59 40.4289 123.957C41.3225 129.031 43.327 134.063 45.7905 138.541C51.6372 149.17 61.2821 157.442 71.0973 162.346C80.3268 166.958 89.725 168.672 96.7183 169.299L107.148 155.949L40.4292 103.798Z" fill="#74B1C0"/>
<path d="M40.4292 103.798C40.4292 103.798 40.0001 104.012 40 116.237C40 118.57 40.012 121.59 40.4289 123.957C41.3225 129.031 43.327 134.063 45.7905 138.541L84.8774 138.541L40.4292 103.798Z" fill="#81BCC9"/>
<path d="M40.4292 103.798C40.4292 103.798 40.0001 104.012 40 116.237C40 118.57 40.012 121.59 40.4289 123.957L66.2203 123.958L40.4292 103.798Z" fill="#8EC7D2"/>
<path d="M150.436 165.118C159.739 169.766 169.334 169.39 171.543 169.39H175.563C177.474 169.331 179.407 169.215 181.332 169.013L132.471 130.82C132.471 130.82 132.22 130.946 132.219 138.107C132.219 139.474 132.226 141.243 132.471 142.63C132.994 145.602 134.168 148.549 135.612 151.173C139.037 157.399 144.686 162.245 150.436 165.118Z" fill="#327D96"/>
<path d="M132.471 130.82C132.471 130.82 132.22 130.946 132.219 138.107C132.219 139.474 132.226 141.243 132.471 142.63C132.994 145.602 134.168 148.549 135.612 151.173C139.037 157.399 144.686 162.245 150.436 165.118C152.935 166.367 155.455 167.253 157.848 167.881L166.218 157.199L132.471 130.82Z" fill="#68A7B8"/>
<path d="M132.471 130.82C132.471 130.82 132.22 130.946 132.219 138.107C132.219 138.248 132.22 138.393 132.22 138.541H142.348L132.471 130.82Z" fill="#81BCC9"/>
<path d="M159.795 109.374C149.48 101.224 149.373 92.3242 148.948 89L159.795 89C164.942 89.2599 168.25 88.7854 174.469 93.182C179.415 97.5979 180.474 101.01 180.474 107.229V113.02C171.609 113.365 166.282 113.449 159.795 109.374Z" fill="#4E92A7"/>
<path d="M159.795 109.374C149.48 101.224 149.373 92.3242 148.948 89L165.033 101.332L180.474 113.02C171.609 113.365 166.282 113.449 159.795 109.374Z" fill="#81BCC9"/>
<path d="M201.152 109.374C211.467 101.224 211.575 92.3242 212 89L201.152 89C196.005 89.2599 192.698 88.7854 186.479 93.182C181.533 97.5979 180.474 101.01 180.474 107.229V113.02C189.339 113.365 194.666 113.449 201.152 109.374Z" fill="#4E92A7"/>
<path d="M201.152 109.374C211.467 101.224 211.575 92.3242 212 89L195.915 101.332L180.474 113.02C189.339 113.365 194.666 113.449 201.152 109.374Z" fill="#81BCC9"/>
</svg>
