<svg viewBox="0 0 250 250" fill="none" xmlns="http://www.w3.org/2000/svg" role="img" aria-labelledby="groqd-title">
<title id="groqd-title">Groqd</title>
<path fill-rule="evenodd" clip-rule="evenodd" d="M142.615 3.77641L224.27 40.4405C239.917 47.4662 250 63.1334 250 80.4216V169.578C250 186.866 239.917 202.534 224.27 209.56L142.615 246.224C137.07 248.713 131.069 250 125 250C118.931 250 112.93 248.713 107.385 246.224L25.73 209.56C10.0829 202.534 0 186.867 0 169.579V80.4212C0 63.1334 10.0829 47.4658 25.73 40.4405L107.385 3.77641C112.93 1.28657 118.931 0 125 0C131.069 0 137.07 1.28657 142.615 3.77641Z" fill="#202020"/>
<path opacity="0.5" fill-rule="evenodd" clip-rule="evenodd" d="M138.468 17.8856C134.227 15.983 129.639 15 125 15C120.361 15 115.773 15.983 111.531 17.8856L31.9999 53.5637C21.6638 58.2004 15 68.5671 15 80.0087V169.991C15 181.433 21.6638 191.799 31.9999 196.436L111.531 232.114C115.773 234.017 120.361 235 125 235C129.639 235 134.227 234.017 138.468 232.114L218 196.436C228.336 191.799 235 181.433 235 169.991V80.0087C235 68.5671 228.336 58.2004 218 53.5637L138.469 17.8856H138.468Z" stroke="#F4A306" stroke-width="10"/>
<path fill-rule="evenodd" clip-rule="evenodd" d="M140.584 8.34205C135.679 6.13859 130.37 5 125.001 5C119.632 5 114.324 6.13859 109.418 8.34205L27.7631 45.0211C13.9209 51.2385 5.00122 65.1039 5.00122 80.4033V169.597C5.00122 184.896 13.9209 198.762 27.7627 204.979L109.418 241.658C114.324 243.861 119.632 245 125.001 245C130.37 245 135.679 243.861 140.584 241.658L222.239 204.979C236.082 198.762 245.001 184.896 245.001 169.597V80.4038C245.001 65.1039 236.082 51.2385 222.24 45.0211L140.584 8.34205Z" stroke="#F4A306" stroke-width="10"/>
<path d="M106.239 106.506C111.721 110.877 118.6 115.607 126.471 119.395C124.937 131.956 120.926 141.872 114.653 148.449C111.585 151.669 108.492 153.563 106.239 154.633C103.986 153.563 100.901 151.669 97.825 148.449C91.5524 141.872 87.5411 131.956 86.007 119.395C93.8776 115.607 100.758 110.885 106.239 106.506ZM106.239 81.7275C106.239 81.7275 88.8436 101.48 67.1013 107.098C67.1013 167.25 106.239 173.779 106.239 173.779C106.239 173.779 145.377 167.258 145.377 107.098C123.634 101.48 106.239 81.7275 106.239 81.7275Z" fill="#FFDE9E"/>
<path d="M106.239 94.5206C112.743 100.426 123.411 108.768 136.108 113.642C133.95 153.107 112.408 162.504 106.239 164.398C100.07 162.512 78.5358 153.107 76.3703 113.642C89.0673 108.76 99.7267 100.426 106.239 94.5206ZM106.239 81.7197C106.239 81.7197 88.8436 101.472 67.1013 107.09C67.1013 167.243 106.239 173.771 106.239 173.771C106.239 173.771 145.377 167.251 145.377 107.09C123.634 101.472 106.239 81.7197 106.239 81.7197Z" fill="#FFBF43"/>
<path d="M106.239 81.7278C106.239 81.7278 123.634 101.48 145.377 107.098C145.377 167.251 106.239 173.779 106.239 173.779C106.239 173.779 67.1012 167.259 67.1012 107.098C88.8435 101.48 106.239 81.7278 106.239 81.7278ZM106.223 68L99.423 75.7029C99.2632 75.8787 83.5058 93.4579 64.8239 98.2842L58 100.05V107.098C58 121.992 60.2773 135.185 64.776 146.307C68.5236 155.568 73.7973 163.415 80.4455 169.64C91.9039 180.355 103.45 182.537 104.729 182.752L106.223 183L107.717 182.752C108.996 182.537 120.542 180.363 132 169.64C138.657 163.415 143.93 155.568 147.67 146.307C152.169 135.185 154.446 121.992 154.446 107.098V100.05L147.622 98.2842C128.94 93.4579 113.183 75.8787 113.023 75.7029L106.191 68H106.223Z" fill="#F4A306"/>
<path d="M157.185 164.561H127.272V172.432H157.185V164.561Z" fill="#F4A306"/>
<path d="M169.652 107.884H148.788V115.756H169.652V107.884Z" fill="#F4A306"/>
<path d="M176.995 123.62C183.496 123.62 188.767 118.335 188.767 111.816C188.767 105.297 183.496 100.012 176.995 100.012C170.494 100.012 165.223 105.297 165.223 111.816C165.223 118.335 170.494 123.62 176.995 123.62Z" fill="#FFDE9E"/>
<path d="M191.745 151.958C198.247 151.958 203.517 146.673 203.517 140.154C203.517 133.635 198.247 128.35 191.745 128.35C185.244 128.35 179.974 133.635 179.974 140.154C179.974 146.673 185.244 151.958 191.745 151.958Z" fill="#FFDE9E"/>
<path d="M159.774 180.297C166.276 180.297 171.546 175.012 171.546 168.493C171.546 161.974 166.276 156.689 159.774 156.689C153.273 156.689 148.002 161.974 148.002 168.493C148.002 175.012 153.273 180.297 159.774 180.297Z" fill="#FFDE9E"/>
<path d="M161.991 164.561H146.247C144.073 164.561 142.311 166.323 142.311 168.496C142.311 170.67 144.073 172.432 146.247 172.432H161.991C164.164 172.432 165.927 170.67 165.927 168.496C165.927 166.323 164.164 164.561 161.991 164.561Z" fill="#FFBF43"/>
<path d="M188.147 136.222H144.59V144.094H188.147V136.222Z" fill="#F4A306"/>
<path d="M193.801 136.222H178.057C175.883 136.222 174.121 137.984 174.121 140.158C174.121 142.332 175.883 144.094 178.057 144.094H193.801C195.975 144.094 197.737 142.332 197.737 140.158C197.737 137.984 195.975 136.222 193.801 136.222Z" fill="#FFBF43"/>
<path d="M179.28 107.884H163.536C161.362 107.884 159.6 109.646 159.6 111.82C159.6 113.993 161.362 115.756 163.536 115.756H179.28C181.453 115.756 183.215 113.993 183.215 111.82C183.215 109.646 181.453 107.884 179.28 107.884Z" fill="#FFBF43"/>
<path d="M159.96 95.2812C166.462 95.2812 171.732 89.9965 171.732 83.4774C171.732 76.9583 166.462 71.6736 159.96 71.6736C153.459 71.6736 148.188 76.9583 148.188 83.4774C148.188 89.9965 153.459 95.2812 159.96 95.2812Z" fill="#FFDE9E"/>
<path d="M152.458 79.5454H114.677V87.4172H152.458V79.5454Z" fill="#F4A306"/>
<path d="M162.17 79.5454H146.427C144.253 79.5454 142.491 81.3076 142.491 83.4813C142.491 85.655 144.253 87.4172 146.427 87.4172H162.17C164.344 87.4172 166.106 85.655 166.106 83.4813C166.106 81.3076 164.344 79.5454 162.17 79.5454Z" fill="#FFBF43"/>
</svg>
