<svg viewBox="0 0 601 600" aria-labelledby="groqd-title" fill="none" xmlns="http://www.w3.org/2000/svg" role="img">
    <title id="groqd-title">Groqd</title>
    <path fill-rule="evenodd" clip-rule="evenodd" d="M342.277 9.06339L538.248 97.0571C575.801 113.919 600 151.52 600 193.012V406.988C600 448.479 575.801 486.081 538.248 502.943L342.277 590.937C328.969 596.912 314.565 600 300 600C285.435 600 271.031 596.912 257.723 590.937L61.752 502.943C24.199 486.081 0 448.48 0 406.989V193.011C0 151.52 24.199 113.918 61.752 97.0571L257.723 9.06339C271.031 3.08776 285.435 0 300 0C314.565 0 328.969 3.08776 342.277 9.06339Z" fill="#202020"/>
    <path class="inner-ring" opacity="0.5" fill-rule="evenodd" clip-rule="evenodd" d="M332.324 42.9255C322.145 38.3591 311.134 36 300 36C288.866 36 277.855 38.3591 267.676 42.9255L76.7998 128.553C51.9932 139.681 36 164.561 36 192.021V407.978C36 435.439 51.9932 460.318 76.7998 471.446L267.676 557.075C277.855 561.641 288.865 564 299.999 564C311.134 564 322.144 561.641 332.323 557.075L523.199 471.446C548.006 460.318 564 435.439 564 407.978V192.021C564 164.561 548.006 139.681 523.199 128.553L332.325 42.9255H332.324Z" stroke="#F4A306" stroke-width="24"/>
    <path class="outer-ring"  fill-rule="evenodd" clip-rule="evenodd" d="M337.402 20.0209C325.629 14.7326 312.888 12 300.003 12C287.118 12 274.377 14.7326 262.604 20.0209L66.6315 108.051C33.4101 122.972 12.0029 156.249 12.0029 192.968V407.032C12.0029 443.751 33.4101 477.028 66.6305 491.95L262.604 579.979C274.377 585.267 287.118 588 300.003 588C312.888 588 325.629 585.267 337.402 579.979L533.374 491.95C566.596 477.028 588.003 443.751 588.003 407.032V192.969C588.003 156.249 566.596 122.972 533.375 108.051L337.402 20.0209Z" stroke="#F4A306" stroke-width="24"/>
    <path d="M229.5 446.104C227.474 447.349 224.984 447.971 222.029 447.971C217.165 447.971 213.18 446.286 210.076 442.916C206.838 439.529 205.22 434.897 205.22 429.021C205.22 423.077 206.855 418.312 210.125 414.727C213.396 411.141 217.721 409.348 223.1 409.348C227.765 409.348 231.508 410.535 234.331 412.909C237.169 415.266 238.796 418.213 239.211 421.749H231.666C231.085 419.242 229.666 417.491 227.408 416.495C226.146 415.947 224.743 415.673 223.199 415.673C220.244 415.673 217.812 416.793 215.903 419.035C214.01 421.259 213.064 424.613 213.064 429.095C213.064 433.611 214.093 436.807 216.152 438.683C218.21 440.559 220.551 441.497 223.174 441.497C225.748 441.497 227.856 440.758 229.5 439.28C231.143 437.786 232.156 435.835 232.538 433.428H224.046V427.302H239.336V447H234.256L233.484 442.418C232.006 444.161 230.678 445.39 229.5 446.104ZM262.271 432.606H254.352V447H246.856V410.294H264.861C267.434 410.344 269.41 410.659 270.788 411.24C272.182 411.821 273.361 412.676 274.324 413.805C275.121 414.735 275.751 415.764 276.216 416.893C276.681 418.022 276.914 419.309 276.914 420.753C276.914 422.496 276.474 424.214 275.594 425.908C274.714 427.584 273.261 428.771 271.236 429.469C272.929 430.149 274.125 431.121 274.822 432.382C275.536 433.627 275.893 435.537 275.893 438.11V440.575C275.893 442.252 275.959 443.389 276.092 443.987C276.291 444.933 276.756 445.63 277.486 446.079V447H269.044C268.812 446.187 268.646 445.531 268.546 445.033C268.347 444.003 268.239 442.949 268.223 441.87L268.173 438.458C268.14 436.118 267.708 434.557 266.878 433.777C266.064 432.997 264.529 432.606 262.271 432.606ZM266.928 425.933C268.455 425.235 269.219 423.857 269.219 421.799C269.219 419.574 268.48 418.08 267.002 417.316C266.172 416.885 264.927 416.669 263.267 416.669H254.352V426.53H263.043C264.77 426.53 266.064 426.331 266.928 425.933ZM299.774 448.021C294.528 448.021 290.519 446.593 287.746 443.738C284.027 440.235 282.168 435.188 282.168 428.597C282.168 421.874 284.027 416.827 287.746 413.457C290.519 410.601 294.528 409.173 299.774 409.173C305.02 409.173 309.029 410.601 311.802 413.457C315.504 416.827 317.355 421.874 317.355 428.597C317.355 435.188 315.504 440.235 311.802 443.738C309.029 446.593 305.02 448.021 299.774 448.021ZM307.021 438.16C308.797 435.918 309.685 432.731 309.685 428.597C309.685 424.48 308.789 421.301 306.996 419.06C305.219 416.802 302.812 415.673 299.774 415.673C296.736 415.673 294.312 416.793 292.502 419.035C290.693 421.276 289.788 424.463 289.788 428.597C289.788 432.731 290.693 435.918 292.502 438.16C294.312 440.401 296.736 441.521 299.774 441.521C302.812 441.521 305.228 440.401 307.021 438.16ZM345.295 447.199C343.652 447.747 341.685 448.021 339.394 448.021C334.612 448.021 330.661 446.593 327.54 443.738C323.755 440.301 321.862 435.254 321.862 428.597C321.862 421.89 323.805 416.818 327.689 413.382C330.86 410.576 334.803 409.173 339.518 409.173C344.266 409.173 348.25 410.659 351.471 413.631C355.19 417.067 357.049 421.874 357.049 428.049C357.049 431.32 356.651 434.059 355.854 436.267C355.207 438.375 354.252 440.127 352.99 441.521L357.224 445.481L353.214 449.665L348.782 445.481C347.437 446.294 346.275 446.867 345.295 447.199ZM343.652 440.575L339.941 437.039L343.901 432.905L347.611 436.441C348.192 435.246 348.599 434.2 348.832 433.304C349.197 431.959 349.379 430.39 349.379 428.597C349.379 424.48 348.533 421.301 346.839 419.06C345.163 416.802 342.706 415.673 339.468 415.673C336.43 415.673 334.006 416.752 332.197 418.91C330.387 421.068 329.482 424.297 329.482 428.597C329.482 433.627 330.777 437.23 333.367 439.405C335.044 440.816 337.053 441.521 339.394 441.521C340.273 441.521 341.12 441.414 341.934 441.198C342.382 441.082 342.955 440.874 343.652 440.575ZM378.739 447H362.926V410.294H378.739C381.014 410.327 382.906 410.593 384.417 411.091C386.99 411.938 389.074 413.49 390.667 415.748C391.946 417.574 392.817 419.549 393.282 421.674C393.747 423.799 393.979 425.825 393.979 427.75C393.979 432.631 393 436.765 391.041 440.152C388.385 444.717 384.284 447 378.739 447ZM384.442 419.657C383.263 417.665 380.931 416.669 377.444 416.669H370.372V440.625H377.444C381.063 440.625 383.587 438.84 385.015 435.271C385.795 433.312 386.185 430.979 386.185 428.273C386.185 424.538 385.604 421.666 384.442 419.657Z" fill="#F4A306"/>
    <path d="M263.921 215.376C274.367 223.704 287.476 232.718 302.474 239.936C299.551 263.871 291.907 282.767 279.955 295.299C274.108 301.435 268.215 305.043 263.921 307.084C259.627 305.043 253.75 301.435 247.888 295.299C235.935 282.767 228.292 263.871 225.368 239.936C240.366 232.718 253.476 223.72 263.921 215.376ZM263.921 168.159C263.921 168.159 230.774 205.798 189.343 216.502C189.343 331.126 263.921 343.566 263.921 343.566C263.921 343.566 338.5 331.141 338.5 216.502C297.069 205.798 263.921 168.159 263.921 168.159Z" fill="#FFDE9E"/>
    <path d="M263.921 192.536C276.316 203.788 296.643 219.685 320.837 228.973C316.726 304.176 275.676 322.082 263.921 325.69C252.167 322.097 211.132 304.176 207.005 228.973C231.2 219.669 251.512 203.788 263.921 192.536ZM263.921 168.144C263.921 168.144 230.774 205.783 189.343 216.487C189.343 331.111 263.921 343.551 263.921 343.551C263.921 343.551 338.5 331.126 338.5 216.487C297.069 205.783 263.921 168.144 263.921 168.144Z" fill="#FFBF43"/>
    <path d="M263.921 168.159C263.921 168.159 297.069 205.798 338.5 216.502C338.5 331.126 263.921 343.566 263.921 343.566C263.921 343.566 189.343 331.141 189.343 216.502C230.774 205.798 263.921 168.159 263.921 168.159ZM263.891 142L250.933 156.678C250.629 157.013 220.602 190.511 185.003 199.708L172 203.073V216.502C172 244.884 176.34 270.023 184.912 291.218C192.053 308.865 202.102 323.817 214.771 335.679C236.605 356.097 258.607 360.254 261.044 360.665L263.891 361.137L266.738 360.665C269.174 360.254 291.176 356.112 313.011 335.679C325.694 323.817 335.744 308.865 342.87 291.218C351.442 270.023 355.782 244.884 355.782 216.502V203.073L342.778 199.708C307.179 190.511 277.153 157.013 276.848 156.678L263.83 142H263.891Z" fill="#F4A306"/>
    <path d="M361 326H304V341H361V326Z" fill="#F4A306"/>
    <path d="M384.758 218H345V233H384.758V218Z" fill="#F4A306"/>
    <path d="M398.75 247.985C411.138 247.985 421.181 237.915 421.181 225.493C421.181 213.07 411.138 203 398.75 203C386.361 203 376.318 213.07 376.318 225.493C376.318 237.915 386.361 247.985 398.75 247.985Z" fill="#FFDE9E"/>
    <path d="M426.857 301.985C439.245 301.985 449.288 291.915 449.288 279.493C449.288 267.07 439.245 257 426.857 257C414.468 257 404.425 267.07 404.425 279.493C404.425 291.915 414.468 301.985 426.857 301.985Z" fill="#FFDE9E"/>
    <path d="M365.934 355.985C378.323 355.985 388.366 345.915 388.366 333.493C388.366 321.07 378.323 311 365.934 311C353.546 311 343.503 321.07 343.503 333.493C343.503 345.915 353.546 355.985 365.934 355.985Z" fill="#FFDE9E"/>
    <path d="M370.158 326H340.158C336.016 326 332.658 329.358 332.658 333.5C332.658 337.642 336.016 341 340.158 341H370.158C374.3 341 377.658 337.642 377.658 333.5C377.658 329.358 374.3 326 370.158 326Z" fill="#FFBF43"/>
    <path d="M420 272H337V287H420V272Z" fill="#F4A306"/>
    <path d="M430.773 272H400.773C396.631 272 393.273 275.358 393.273 279.5C393.273 283.642 396.631 287 400.773 287H430.773C434.916 287 438.273 283.642 438.273 279.5C438.273 275.358 434.916 272 430.773 272Z" fill="#FFBF43"/>
    <path d="M403.103 218H373.103C368.96 218 365.603 221.358 365.603 225.5C365.603 229.642 368.96 233 373.103 233H403.103C407.245 233 410.603 229.642 410.603 225.5C410.603 221.358 407.245 218 403.103 218Z" fill="#FFBF43"/>
    <path d="M366.289 193.985C378.678 193.985 388.72 183.915 388.72 171.493C388.72 159.07 378.678 149 366.289 149C353.9 149 343.857 159.07 343.857 171.493C343.857 183.915 353.9 193.985 366.289 193.985Z" fill="#FFDE9E"/>
    <path d="M351.994 164H280V179H351.994V164Z" fill="#F4A306"/>
    <path d="M370.5 164H340.5C336.358 164 333 167.358 333 171.5C333 175.642 336.358 179 340.5 179H370.5C374.642 179 378 175.642 378 171.5C378 167.358 374.642 164 370.5 164Z" fill="#FFBF43"/>
</svg>
