<svg viewBox="0 0 250 250" fill="none" xmlns="http://www.w3.org/2000/svg" role="img" aria-labelledby="nuka-title">
<title id="nuka-title">Nuka</title>
<g clip-path="url(#clip0_6595_22971)">
<path fill-rule="evenodd" clip-rule="evenodd" d="M142.601 3.78406L224.254 40.4474C239.918 47.4689 250 63.1517 250 80.4322V169.568C250 186.848 239.918 202.489 224.254 209.553L142.601 246.216C131.395 251.261 118.605 251.261 107.357 246.216L25.7041 209.553C10.0817 202.447 0 186.806 0 169.526V80.3902C0 63.1097 10.0817 47.4689 25.7457 40.4053L107.357 3.78406C118.564 -1.26135 131.395 -1.26135 142.601 3.78406Z" fill="#202020"/>
<path opacity="0.5" d="M230.46 185.796C227.504 190.387 223.258 194.136 218.097 196.452L138.548 232.125C129.973 235.958 120.191 235.958 111.616 232.125L31.9837 196.452C26.822 194.136 22.5761 190.387 19.6206 185.796C16.6651 181.206 15 175.73 15 170.002V79.9976C15 74.2696 16.6651 68.8365 19.6206 64.2036C22.5761 59.6128 26.822 55.8644 31.9837 53.5479L111.532 17.8745C120.107 14.0418 129.89 14.0418 138.465 17.8745L218.013 53.5479C223.175 55.8644 227.421 59.6128 230.376 64.2036C233.332 68.7944 234.997 74.2696 234.997 79.9976V170.002C235.08 175.73 233.415 181.206 230.46 185.796Z" stroke="#E569E3" stroke-width="10" stroke-miterlimit="10"/>
<path d="M238.71 190.692C234.754 196.836 229.047 201.886 222.133 204.958L140.495 241.654C130.581 246.115 119.252 246.115 109.339 241.654L27.7005 204.958C20.7862 201.844 15.0798 196.836 11.1229 190.692C7.16591 184.548 5 177.225 5 169.608V80.3919C5 72.7328 7.24922 65.4524 11.2062 59.3083C15.1631 53.1641 20.8695 48.1141 27.7838 45.0421L109.422 8.34561C119.335 3.8848 130.665 3.8848 140.578 8.34561L222.216 45.0421C229.131 48.1562 234.837 53.1641 238.794 59.3083C242.751 65.4524 245 72.7748 245 80.3919V169.608C244.917 177.225 242.667 184.548 238.71 190.692Z" stroke="#E569E3" stroke-width="10" stroke-miterlimit="10"/>
<path d="M43 158.394V125.368L75.9279 92.4889L92.4163 92.4399V141.905H59.4884L43 158.394Z" fill="#5B2A5A"/>
<path d="M92.4164 76L75.928 92.4884L92.4164 92.4395V76Z" fill="#893F88"/>
<path d="M108.861 76H92.4213V92.4395H108.861V76Z" fill="#E569E3"/>
<path d="M108.91 141.905L108.861 92.4399H92.4213V141.905H108.91Z" fill="#893F88"/>
<path d="M125.393 141.905H108.905L108.856 92.4399H125.393V141.905Z" fill="#E569E3"/>
<path d="M125.393 76H108.856V92.4395H125.393V76Z" fill="#EFA5EE"/>
<path d="M141.873 76H125.384L141.873 92.4395V76Z" fill="#FBE2FA"/>
<path d="M125.384 92.4395V76L141.873 92.4395H125.384Z" fill="#F5C3F4"/>
<path d="M141.873 158.394L125.384 141.905V92.4399H141.873V158.394Z" fill="#EFA5EE"/>
<path d="M207.486 120.23L158.314 169.304L153.079 174.539L152.785 174.833H125.337L132.579 167.64L141.826 158.491V76H158.755C184.099 76.1957 204.893 95.473 207.437 120.181C207.486 120.23 207.486 120.23 207.486 120.23Z" fill="#F5C3F4"/>
<path d="M207.74 125.416C207.74 152.717 185.625 174.832 158.324 174.832H152.795L153.088 174.539L158.324 169.304L207.446 120.279C207.642 121.942 207.74 123.655 207.74 125.416Z" fill="#E569E3"/>
<path d="M163.9 108.928C163.9 111.961 161.404 114.457 158.371 114.457C155.337 114.457 152.842 111.961 152.842 108.928C152.842 105.894 155.337 103.399 158.371 103.399C161.404 103.399 163.9 105.894 163.9 108.928Z" fill="#5B2A5A"/>
<path d="M158.366 85.6382C151.908 85.6382 146.086 88.2802 141.878 92.488V125.465L141.927 125.514H141.878V158.442L174.806 125.514C179.062 121.306 181.655 115.435 181.655 108.976C181.655 96.0596 171.234 85.6382 158.366 85.6382ZM158.366 103.399C161.4 103.399 163.895 105.894 163.895 108.927C163.895 111.961 161.4 114.456 158.366 114.456C155.333 114.456 152.837 111.961 152.837 108.927C152.837 105.894 155.284 103.399 158.366 103.399Z" fill="#FBE2FA"/>
</g>
</svg>
