<svg
  xmlns="http://www.w3.org/2000/svg"
  viewBox="0 0 600 600"
  fill="none"
  role="img"
  aria-labelledby="nuka-title"
>
  <title id="nuka-title">Nuka</title>
  <g>
    <path
      style="fill-rule: evenodd; clip-rule: evenodd; fill: #202020"
      d="M342.2770081,9.0633898l195.9709778,87.9937057
		C575.8010254,113.9189987,600,151.5200043,600,193.0119934v213.9760132c0,41.4909973-24.1989746,79.0929871-61.7520142,95.9549866
		l-195.9709778,87.9940186C328.9689941,596.9119873,314.5650024,600,300,600s-28.9689941-3.0880127-42.2770081-9.0629883
		l-195.970993-87.9940186C24.1989994,486.0809937,0,448.480011,0,406.9890137V193.0110016
		c0-41.4909973,24.1989994-79.0930023,61.7519989-95.9539032l195.970993-87.9937057C271.0310059,3.08776,285.4349976,0,300,0
		S328.9689941,3.08776,342.2770081,9.0633898L342.2770081,9.0633898z"
    />
    <g
      stroke-width="24"
      stroke-miterlimit="10"
      stroke="#e569e3"
    >
      <path
        style="fill: none"
        class="inner-ring"
        opacity="0.5"
        d="
		M332.3240051,42.925499C322.144989,38.3591003,311.1340027,36,300,36s-22.144989,2.3591003-32.3240051,6.925499
		L76.7997971,128.5529938C51.9931984,139.6809998,36,164.5610046,36,192.0209961v215.9570007
		c0,27.4609985,15.9931984,52.3399963,40.7997971,63.4680176l190.8761902,85.6289978
		C277.855011,561.6409912,288.8649902,564,299.9989929,564c11.1350098,0,22.1450195-2.3590088,32.3240051-6.9249878
		l190.8759766-85.6289978C548.0059814,460.3179932,564,435.4389954,564,407.9779968V192.0209961
		c0-27.4599915-15.9940186-52.3399963-40.8010254-63.4680023L332.3250122,42.925499H332.3240051z"
      />
      <path
        style="fill: none"
        class="outer-ring"
        d="M337.4020081,20.0209007
		C325.6289978,14.7326002,312.8880005,12,300.0029907,12c-12.8849792,0-25.6259766,2.7326002-37.3989868,8.0209007
		L66.6315002,108.0510025c-33.2214012,14.9209976-54.6286011,48.1979904-54.6286011,84.9169998v214.0640106
		c0,36.7189941,21.4071999,69.9960022,54.6276016,84.9179993l195.9735107,88.0289917
		C274.3770142,585.2670288,287.1180115,588,300.0029907,588c12.8850098,0,25.6260071-2.7329712,37.3990173-8.0209961
		l195.9720154-88.0289917c33.2219849-14.9219971,54.6289673-48.1990051,54.6289673-84.9179993V192.9689941
		c0-36.7200012-21.4069824-69.996994-54.6279907-84.9179916L337.4020081,20.0209007z"
      />
    </g>
  </g>
  <g>
    <rect
      x="261.3499756"
      y="160"
      style="fill: #f5c3f4"
      width="33.8000488"
      height="33.5999756"
    />
    <path
      style="fill: #202020"
      d="M462.9000244,250.4000244l-100.5,100.2999878l-10.7000122,10.7000122L351.0999756,362H295
		l14.7999878-14.7000122l18.9000244-18.7000122v-0.2999878l0.0999756,0.1000366v-0.0500488l-33.6499634-33.6499634V160h68.1499634
		c51.7999878,0.4000244,94.2999878,39.7999878,99.5,90.2999878
		C462.9000244,250.4000244,462.9000244,250.4000244,462.9000244,250.4000244z"
    />
  </g>
  <rect
    x="286.7510071"
    y="159.9500122"
    style="fill-rule: evenodd; clip-rule: evenodd; fill: #fbe2fa"
    width="50.1992188"
    height="36.8708801"
  />
  <g>
    <polygon
      style="fill: #f5c3f4"
      points="328.8499756,193.5999756 328.8499756,328.4000244 295.1500244,294.7000122 
		295.1500244,193.5999756 261.3499756,193.5999756 261.3499756,160 295.1500244,160 	"
    />
  </g>
  <g>
    <polygon
      style="fill: #efa5ee"
      points="328.7999878,193.5999756 328.7999878,328.4000244 295.0999756,294.7000122 
		295.0999756,294.6500244 261.4000244,294.6500244 261.2999878,193.5999756 261.2999878,193.5499878 227.7000122,193.5499878 
		227.7000122,159.9500122 261.2999878,159.9500122 261.2999878,160 295.0999756,160 295.0999756,193.5999756 	"
    />
  </g>
  <g>
    <g>
      <path
        style="fill: #e569e3"
        d="M227.1999969,407.8999939h8L249.8000031,433.5v-25.6000061h7.0999908v36.7000122h-7.6999969
			l-14.8999939-26v26h-7.1000061V407.8999939z"
      />
    </g>
    <g>
      <path
        style="fill: #e569e3"
        d="M265.1000061,407.8999939h7.7999878v22.5c0,2.5,0.2999878,4.3999939,0.8999939,5.5
			C274.6999817,438,276.6999817,439,279.8999939,439c3.1000061,0,5.1000061-1,6-3.1000061
			c0.6000061-1.2000122,0.8999939-3,0.8999939-5.5v-22.5h7.7999878V430.5c0,3.8999939-0.6000061,6.8999939-1.7999878,9.1000061
			c-2.2999878,4-6.6000061,6-12.8999939,6s-10.7000122-2-12.8999939-6
			c-1.2000122-2.2000122-1.7999878-5.2000122-1.7999878-9.1000061v-22.6000061H265.1000061z"
      />
    </g>
    <g>
      <path
        style="fill: #e569e3"
        d="M303.1000061,407.8999939h7.5V423l14.2000122-15.1000061h9.8999939L319.6000061,423
			l15.7999878,21.6000061H325.5l-11.2999878-16L310.5,432.3000183v12.2999878H303v-36.7000122H303.1000061z"
      />
    </g>
    <g>
      <path
        style="fill: #e569e3"
        d="M351.2000122,407.8999939h8.7000122l13,36.7000122h-8.2999878l-2.3999939-7.5h-13.5l-2.5,7.5h-8
			L351.2000122,407.8999939z M350.7000122,430.7000122h9.3999939L355.5,416.3000183L350.7000122,430.7000122z"
      />
    </g>
  </g>
  <g>
    <polygon
      style="fill: #e569e3"
      points="295.0999756,193.5499878 295.0999756,294.6500244 227.7000122,294.6500244 
		227.7000122,193.5499878 194,193.6500244 227.7000122,159.9500122 261.2999878,159.9500122 261.2999878,193.5499878 	"
    />
  </g>
  <g>
    <polygon
      style="fill: #893f88"
      points="261.4000244,294.7000122 160.4000244,294.7000122 126.7000122,328.4000244 
		126.7000122,260.9000244 194,193.7000122 227.7000122,160 227.7000122,193.5999756 261.2999878,193.5999756 	"
    />
  </g>
  <g>
    <polygon
      style="fill: #5b2a5a"
      points="126.6999969,328.3999939 126.6999969,260.8999939 194,193.6999969 227.6999969,193.6000061 
		227.6999969,294.7000122 160.3999939,294.7000122 	"
    />
  </g>
  <g>
    <path
      style="fill: #fbe2fa"
      d="M462.9000244,250.4000244l-100.5,100.2999878l-10.7000122,10.7000122L351.0999756,362H295
		l14.7999878-14.7000122l18.9000244-18.7000122V160h34.5999756c51.7999878,0.4000244,94.2999878,39.7999878,99.5,90.2999878
		C462.9000244,250.4000244,462.9000244,250.4000244,462.9000244,250.4000244z"
    />
  </g>
  <g>
    <polygon
      style="fill: #fbe2fa"
      points="295.1500244,160 295.1500244,160.0499878 295.0999756,160 	"
    />
  </g>
  <g>
    <path
      style="fill: #e569e3"
      d="M463.4000244,261c0,55.7999878-45.2000122,101-101,101h-37.4100342l130.5800171-140.0900269
		c3.7199707,8.8900146,6.2000122,18.4200439,7.2299805,28.3900146c0.1000366,0.1000366,0.1000366,0.1000366,0.1000366,0.1000366
		L462.7999878,250.5C463.2000122,253.9000244,463.4000244,257.4000244,463.4000244,261z"
    />
  </g>
  <g>
    <path
      style="fill: #f5c3f4"
      d="M462.8999939,250.3999939l-100.5,100.3000183l-10.7000122,10.7000122l-0.6000061,0.6000061
		h-56.1000061l14.7999878-14.7000122l18.8999939-18.7000122V160h34.6000061
		c51.7999878,0.3999939,94.3000183,39.8000031,99.5,90.3000031
		C462.8999939,250.3999939,462.8999939,250.3999939,462.8999939,250.3999939z"
    />
  </g>
  <g>
    <path
      style="fill: #5b2a5a"
      d="M392.8195801,231.6896973c0,7.588623-3.046936,14.4874115-8.048584,19.4315491
		l-38.6906128,38.6906433v-38.6906433h0.0574951l-0.0574951-0.0575104v-38.7481079
		c4.9441528-4.9441376,11.7854004-8.0485687,19.374054-8.0485687
		C380.5742493,204.2670593,392.8195801,216.5123749,392.8195801,231.6896973z"
    />
  </g>
  <g>
    <path
      style="fill: #fbe2fa"
      d="M362.5,179.6999969c-13.2000122,0-25.1000061,5.3999939-33.7000122,14v67.4000092
		l0.1000061,0.1000061h-0.1000061V328.5l67.2999878-67.2999878c8.7000122-8.6000061,14-20.6000061,14-33.8000031
		C410.1000061,201,388.7999878,179.6999969,362.5,179.6999969z M362.5,216c6.2000122,0,11.2999878,5.1000061,11.2999878,11.3000031
		S368.6999817,238.6000061,362.5,238.6000061S351.2000122,233.5,351.2000122,227.3000031S356.2000122,216,362.5,216z"
    />
  </g>
  <g>
    <polygon
      style="fill: #f5c3f4"
      points="323.7999878,328.3499756 323.7999878,328.4000244 323.7000122,328.2999878 
		323.7000122,328.25 	"
    />
  </g>
</svg>
