<?xml version="1.0" encoding="utf-8"?>
<!-- Generator: Adobe Illustrator 25.2.3, SVG Export Plug-In . SVG Version: 6.00 Build 0)  -->
<svg version="1.1" id="Layer_1" xmlns="http://www.w3.org/2000/svg" xmlns:xlink="http://www.w3.org/1999/xlink" x="0px" y="0px"
	 viewBox="0 0 600 594.3" style="enable-background:new 0 0 600 594.3;" xml:space="preserve">
<style type="text/css">
	.st0{fill-rule:evenodd;clip-rule:evenodd;fill:#202020;}
	.st1{fill:#F5C3F4;}
	.st2{fill:#5B2A5A;}
	.st3{opacity:0.5;fill:none;stroke:#E569E3;stroke-width:24;stroke-miterlimit:10;}
	.st4{fill:none;stroke:#E569E3;stroke-width:24;stroke-miterlimit:10;}
	.st5{fill:#893F88;}
	.st6{fill:#FBE2FA;}
	.st7{fill:#EFA5EE;}
	.st8{fill:#E569E3;}
	.st9{fill:none;}
</style>
<path id="Polygon-Copy-4_6_" class="st0" d="M340.6,20.5l188.1,83.7c36.1,16,59.3,51.8,59.3,91.2v203.5c0,39.5-23.2,75.2-59.3,91.2
	l-188.1,83.7c-25.8,11.5-55.3,11.5-81.2,0L71.3,490.2c-36.1-16-59.3-51.8-59.3-91.2V195.4c0-39.5,23.2-75.2,59.3-91.2l188.1-83.7
	C285.3,9,314.7,9,340.6,20.5z"/>
<path class="st1" d="M322.3,327.7l-33.7,33.7v0H356c3.8,0,7.6-0.2,11.2-0.6c16.5-1.8,31.8-7.6,44.9-16.4c2.6-1.7,5.1-3.6,7.5-5.5
	c7.9-6.4,14.8-14,20.5-22.5c4.6-6.9,8.4-14.4,11.2-22.4c2.5-7.1,4.3-14.6,5.1-22.4c0.4-3.7,0.6-7.5,0.6-11.3c0-3.6-0.2-7.2-0.6-10.7
	c0-0.2,0-0.3,0-0.5c-0.8-7.8-2.6-15.4-5.2-22.6c-2.8-8-6.6-15.5-11.2-22.4c-5.7-8.5-12.6-16.1-20.5-22.5c-2.4-1.9-4.8-3.7-7.3-5.4
	c-13.1-8.8-28.4-14.6-44.9-16.4c-3.7-0.4-7.5-0.6-11.2-0.6h-67.4l33.7,33.6v0h0l0,0l0,0h-33.7l0,0V294l22.4,22.4L322.3,327.7
	L322.3,327.7L322.3,327.7 M367.3,227.5c-0.2,2.7-1.4,5.2-3.3,7c-2,2-4.9,3.3-8,3.3c-6.2,0-11.3-5.1-11.3-11.3c0-3.1,1.3-5.9,3.3-8
	c2-2,4.9-3.3,8-3.3c5.9,0,10.8,4.5,11.2,10.3c0,0.3,0,0.7,0,1C367.3,226.9,367.3,227.2,367.3,227.5z M389.7,260.3L389.7,260.3
	L389.7,260.3L389.7,260.3z"/>
<path class="st2" d="M254.9,192.9h-33.6v-33.6h-0.2l-33.6,33.7l-67.2,67.2v67.5l11.3-11.3L154,294h101L254.9,192.9L254.9,192.9z
	 M221.3,226.8l-0.2-0.2h0.2V226.8z"/>
<path id="Polygon-Copy-5_6_" class="st3" d="M553.2,441.6c-7.1,10.9-17.3,19.8-29.7,25.3l-191.1,84.7c-20.6,9.1-44.1,9.1-64.7,0
	L76.4,466.9c-12.4-5.5-22.6-14.4-29.7-25.3s-11.1-23.9-11.1-37.5V190.4c0-13.6,4-26.5,11.1-37.5c7.1-10.9,17.3-19.8,29.7-25.3
	l191.1-84.7c20.6-9.1,44.1-9.1,64.7,0l191.1,84.7c12.4,5.5,22.6,14.4,29.7,25.3c7.1,10.9,11.1,23.9,11.1,37.5v213.7
	C564.3,417.7,560.3,430.7,553.2,441.6z"/>
<path id="Polygon-Copy_6_" class="st4" d="M573.1,453.3c-9.5,14.6-23.2,26.6-39.8,33.9l-196,87.2c-23.8,10.6-51,10.6-74.8,0
	l-196-87.2c-16.6-7.4-30.3-19.3-39.8-33.9S12,421.3,12,403.2v-212c0-18.2,5.4-35.5,14.9-50.1c9.5-14.6,23.2-26.6,39.8-33.9l196-87.2
	c23.8-10.6,51-10.6,74.8,0l196,87.2c16.6,7.4,30.3,19.3,39.8,33.9c9.5,14.6,14.9,32,14.9,50.1v212
	C588,421.3,582.6,438.7,573.1,453.3z"/>
<polygon class="st5" points="221.3,159.3 221.3,192.9 187.5,192.9 221.1,159.3 "/>
<polygon class="st2" points="221.3,192.9 221.3,192.9 187.6,192.9 187.6,192.9 "/>
<polygon class="st6" points="322.3,159.3 322.3,192.9 322.3,192.9 322.3,192.9 288.6,192.9 288.6,159.3 288.6,159.3 288.6,159.3 "/>
<polygon class="st7" points="322.3,192.9 254.9,192.9 254.9,159.3 288.6,159.3 303.4,174 311.1,181.7 "/>
<polygon class="st1" points="322.3,192.9 288.6,192.9 288.6,159.3 288.6,159.3 303.4,174 311.1,181.7 "/>
<path class="st6" d="M322.3,327.7L322.3,327.7l11.3-11.3h0L356,294l11.2-11.2h0l11.1-11.1l11.3-11.3l0,0c0.8-0.8,1.6-1.7,2.4-2.5
	c1.1-1.3,2.2-2.7,3.2-4.1c1-1.4,1.9-2.9,2.7-4.5c0.2-0.4,0.5-0.8,0.7-1.3c0.6-1.3,1.2-2.6,1.8-3.9c2.1-5.4,3.3-11.2,3.3-17.4
	c0-4-0.5-8-1.4-11.7c-0.9-3.8-2.3-7.3-4.1-10.7c-5.5-10.4-14.8-18.5-25.9-22.5c-1.6-0.6-3.2-1.1-4.9-1.5c-3.6-0.9-7.4-1.3-11.2-1.3
	c-5.7,0-11.1,1-16.2,2.8c-6.2,2.2-11.9,5.8-16.6,10.2c-0.3,0.3-0.6,0.6-0.9,0.9v0h0v0h0l0,0l0,0h-33.7l0,0V294l22.4,22.4
	L322.3,327.7 M367.3,227.5c-0.2,2.7-1.4,5.2-3.3,7c-2,2-4.9,3.3-8,3.3c-6.2,0-11.3-5.1-11.3-11.3c0-3.1,1.3-5.9,3.3-8
	c2-2,4.9-3.3,8-3.3c5.9,0,10.8,4.5,11.2,10.3c0,0.3,0,0.7,0,1C367.3,226.9,367.3,227.2,367.3,227.5z"/>
<polygon class="st7" points="322.3,192.9 322.3,294 322.3,294 322.3,327.7 311,316.4 288.6,294 254.9,294 254.9,192.9 254.9,192.9 
	322.3,192.9 322.3,192.9 322.3,192.9 "/>
<polygon class="st8" points="288.6,192.9 288.6,294 221.3,294 221.3,159.3 288.6,159.3 288.6,192.9 "/>
<path class="st1" d="M322.3,192.9C322.3,192.9,322.3,192.9,322.3,192.9C322.3,192.9,322.3,192.9,322.3,192.9L322.3,192.9
	L322.3,192.9z"/>
<polygon class="st5" points="254.9,192.9 254.9,294 221.3,294 221.3,192.9 254.9,192.9 "/>
<path class="st2" d="M367.3,226.6c0,0.3,0,0.6,0,1c-0.2,2.7-1.4,5.2-3.3,7c-2,2-4.9,3.3-8,3.3c-6.2,0-11.3-5.1-11.3-11.3
	c0-3.1,1.3-5.9,3.3-8c2-2,4.9-3.3,8-3.3c5.9,0,10.8,4.5,11.3,10.3C367.3,225.9,367.3,226.3,367.3,226.6z"/>
<path class="st8" d="M457.1,260.4c0,3.8-0.2,7.6-0.6,11.3c-0.8,7.7-2.6,15.2-5.1,22.4c-2.8,8-6.6,15.5-11.2,22.4
	c-5.7,8.5-12.6,16.1-20.5,22.5c-2.4,2-4.9,3.8-7.5,5.5c-13.1,8.8-28.4,14.6-44.9,16.4c-3.7,0.4-7.5,0.6-11.3,0.6h-11.3l111.8-111.8
	C456.9,253.2,457.1,256.7,457.1,260.4z"/>
<line class="st9" x1="456.7" y1="249.4" x2="456.5" y2="249.6"/>
<g>
	<path class="st8" d="M227.1,403.9h8l14.6,25.6v-25.6h7.1v36.7h-7.7l-14.9-26v26h-7.1V403.9z"/>
	<path class="st8" d="M266,403.9h7.8v22.5c0,2.5,0.3,4.4,0.9,5.5c0.9,2.1,2.9,3.1,6.1,3.1c3.1,0,5.1-1,6-3.1c0.6-1.2,0.9-3,0.9-5.5
		v-22.5h7.8v22.6c0,3.9-0.6,6.9-1.8,9.1c-2.3,4-6.6,6-12.9,6s-10.7-2-12.9-6c-1.2-2.2-1.8-5.2-1.8-9.1V403.9z"/>
	<path class="st8" d="M304.9,403.9h7.5V419l14.2-15.1h9.9L321.5,419l15.8,21.6h-9.9l-11.3-16l-3.7,3.7v12.3h-7.5V403.9z"/>
	<path class="st8" d="M354.1,403.9h8.7l13,36.7h-8.3l-2.4-7.5h-13.5l-2.5,7.5h-8L354.1,403.9z M353.6,426.7h9.4l-4.6-14.4
		L353.6,426.7z"/>
</g>
<path class="st6" d="M389.7,260.3L389.7,260.3L389.7,260.3L389.7,260.3z M381.1,186.1c-1.2-0.8-2.5-1.5-3.8-2.1
	C378.6,184.6,379.9,185.3,381.1,186.1z M369.8,180.9c0.8,0.2,1.6,0.5,2.4,0.8c1.4,0.5,2.8,1.1,4.1,1.7c-1.3-0.6-2.7-1.2-4.1-1.7
	C371.4,181.4,370.6,181.2,369.8,180.9z M364.5,179.7c0.9,0.2,1.8,0.4,2.7,0.6c0.8,0.2,1.7,0.4,2.5,0.7c-0.8-0.2-1.6-0.5-2.5-0.7
	C366.4,180,365.5,179.8,364.5,179.7z M335,183.8c1.6-0.8,3.2-1.5,4.9-2.1c3.2-1.1,6.5-2,9.9-2.4c-3.4,0.5-6.7,1.3-9.9,2.4
	C338.2,182.3,336.6,183,335,183.8z M335,183.8c-1.2,0.6-2.3,1.2-3.5,1.9C332.7,185,333.8,184.4,335,183.8z M330.5,186.4
	c-1.5,0.9-2.9,1.9-4.2,3C327.6,188.3,329,187.3,330.5,186.4z M326.2,189.4c-1,0.8-2,1.7-2.9,2.6
	C324.2,191.1,325.2,190.2,326.2,189.4z M322.3,192.9c0.3-0.3,0.6-0.6,0.9-0.9C323,192.3,322.7,192.6,322.3,192.9L322.3,192.9z"/>
<path class="st7" d="M322.3,192.9c0.3-0.3,0.6-0.6,0.9-0.9C323,192.3,322.7,192.6,322.3,192.9L322.3,192.9z"/>
<path class="st7" d="M323.3,192c0.9-0.9,1.9-1.8,2.9-2.6C325.2,190.2,324.2,191.1,323.3,192z"/>
<path class="st7" d="M339.9,181.7c3.2-1.1,6.5-2,9.9-2.4C346.3,179.8,343,180.6,339.9,181.7c-1.7,0.6-3.3,1.3-4.9,2.1
	C336.6,183,338.2,182.3,339.9,181.7z"/>
<path class="st7" d="M367.3,180.3c0.8,0.2,1.7,0.4,2.5,0.7C368.9,180.7,368.1,180.5,367.3,180.3c-0.9-0.2-1.8-0.4-2.7-0.6
	C365.5,179.8,366.4,180,367.3,180.3z"/>
<path class="st7" d="M372.2,181.7c1.4,0.5,2.8,1.1,4.1,1.7C374.9,182.8,373.6,182.2,372.2,181.7c-0.8-0.3-1.6-0.5-2.4-0.8
	C370.6,181.2,371.4,181.4,372.2,181.7z"/>
<path class="st7" d="M377.3,183.9c1.3,0.7,2.6,1.4,3.8,2.1C379.9,185.3,378.6,184.6,377.3,183.9z"/>
<polygon class="st7" points="389.7,260.3 389.7,260.3 389.7,260.3 "/>
<polygon class="st7" points="322.3,192.9 288.6,192.9 288.6,159.3 288.6,159.3 303.4,174 311.1,181.7 "/>
<polygon class="st1" points="322.3,192.9 288.6,192.9 288.6,159.3 288.6,159.3 303.4,174 311.1,181.7 "/>
<polygon class="st6" points="322.3,192.9 288.6,192.9 288.6,159.3 288.6,159.3 288.6,159.3 303.4,174 311.1,181.7 "/>
<polygon class="st7" points="322.3,192.9 254.9,192.9 254.9,159.3 288.6,159.3 288.6,159.3 303.4,174 311.1,181.7 "/>
<polygon class="st1" points="322.3,192.9 288.6,192.9 288.6,159.3 288.6,159.3 288.6,159.3 303.4,174 311.1,181.7 "/>
<polygon class="st7" points="322.3,192.9 288.6,192.9 288.6,159.3 288.6,159.3 288.6,159.3 303.4,174 311.1,181.7 "/>
<polygon class="st1" points="322.3,192.9 288.6,192.9 288.6,159.3 288.6,159.3 288.6,159.3 303.4,174 311.1,181.7 "/>
<polygon class="st1" points="389.7,260.3 389.7,260.3 389.7,260.3 "/>
<polygon class="st8" points="254.9,192.9 254.9,294 221.3,294 221.3,159.3 254.9,159.3 254.9,192.9 "/>
<polygon class="st5" points="254.9,192.9 254.9,294 221.3,294 221.3,192.9 254.9,192.9 "/>
<polygon class="st7" points="322.3,192.9 288.6,192.9 288.6,159.3 288.6,159.3 288.6,159.3 303.4,174 311.1,181.7 "/>
<polygon class="st1" points="322.3,192.9 288.6,192.9 288.6,159.3 288.6,159.3 288.6,159.3 303.4,174 311.1,181.7 "/>
</svg>
