<svg xmlns="http://www.w3.org/2000/svg" viewBox="0 0 600 600" fill="none" role="img" aria-labelledby="nuka-title"><title id="nuka-title">Nuka</title><path fill-rule="evenodd" d="M342.243 9.082L538.21 97.074c37.594 16.851 61.79 54.49 61.79 95.963v213.926c0 41.473-24.196 79.011-61.79 95.963l-195.967 87.992c-26.896 12.109-57.59 12.109-84.586 0L61.69 502.926C24.196 485.873 0 448.335 0 406.862V192.936c0-41.473 24.196-79.011 61.79-95.963L257.657 9.082a103.02 103.02 0 0 1 84.586 0z" fill="#202020"/><g stroke="#e569e3" stroke-width="24" stroke-miterlimit="10"><path class="inner-ring" opacity=".5" d="M553.103 445.911c-7.093 11.018-17.283 20.015-29.671 25.574l-190.917 85.616c-20.58 9.199-44.057 9.199-64.638 0L76.761 471.485c-12.388-5.559-22.578-14.556-29.672-25.574S36 421.753 36 408.006V191.994c0-13.747 3.996-26.786 11.089-37.905 7.093-11.018 17.283-20.015 29.672-25.574l190.916-85.616a79.15 79.15 0 0 1 64.638 0l190.917 85.616c12.388 5.559 22.578 14.556 29.672 25.574s11.089 24.158 11.089 37.905v216.012c.2 13.747-3.796 26.887-10.89 37.905z"/><path class="outer-ring" d="M572.905 457.66c-9.497 14.746-23.192 26.866-39.786 34.239l-195.932 88.072c-23.792 10.705-50.982 10.705-74.774 0L66.481 491.899c-16.594-7.474-30.289-19.493-39.786-34.239S12 425.34 12 407.059V192.941a93.38 93.38 0 0 1 14.895-50.601c9.497-14.746 23.192-26.866 39.786-34.239L262.613 20.03c23.792-10.706 50.982-10.706 74.774 0l195.932 88.072c16.594 7.474 30.289 19.493 39.786 34.239S588 174.66 588 192.941v214.118c-.2 18.281-5.598 35.855-15.095 50.601z"/></g><path d="M259.857 447h-7.669l-14.992-26.073V447h-7.147v-36.706h8.044l14.617 25.624v-25.624h7.147V447zm28.887-14.145v-22.561h7.795v22.561c0 3.902-.606 6.94-1.818 9.115-2.258 3.984-6.566 5.976-12.925 5.976s-10.674-1.992-12.949-5.976c-1.212-2.175-1.818-5.213-1.818-9.115v-22.561h7.795v22.561c0 2.524.299 4.367.896 5.529.93 2.058 2.955 3.088 6.076 3.088 3.105 0 5.122-1.03 6.052-3.088.597-1.162.896-3.005.896-5.529zM336.407 447h-9.861l-11.331-16.037-3.66 3.76V447h-7.546v-36.706h7.546v15.116l14.169-15.116h9.911l-15.041 15.116L336.407 447zm25.824-7.545h-13.522l-2.54 7.545h-8.019l13.099-36.706h8.666L372.914 447h-8.317l-2.366-7.545zm-2.142-6.326l-4.582-14.443-4.731 14.443h9.313z" fill="#e569e3"/><path d="M132 327.4v-67.5l67.3-67.2 33.7-.1v101.1h-67.3L132 327.4z" fill="#5b2a5a"/><path d="M233 159l-33.7 33.7 33.7-.1V159z" fill="#893f88"/><path d="M266.6 159H233v33.6h33.6V159z" fill="#e569e3"/><path d="M266.7 293.7l-.1-101.1H233v101.1h33.7z" fill="#893f88"/><path d="M300.4 293.7h-33.7l-.1-101.1h33.8v101.1z" fill="#e569e3"/><path d="M300.4 159h-33.8v33.6h33.8V159z" fill="#efa5ee"/><path d="M334.1 159h-33.7l33.7 33.6V159z" fill="#fbe2fa"/><path d="M300.4 192.6V159l33.7 33.6h-33.7z" fill="#f5c3f4"/><path d="M334.1 327.4l-33.7-33.7V192.6h33.7v134.8z" fill="#efa5ee"/><path d="M468.2 249.4L367.7 349.7 357 360.4l-.6.6h-56.1l14.8-14.7 18.9-18.7V159h34.6c51.8.4 94.3 39.8 99.5 90.3l.1.1z" fill="#f5c3f4"/><path d="M468.7 260c0 55.8-45.2 101-101 101h-11.3l.6-.6 10.7-10.7 100.4-100.2c.4 3.4.6 6.9.6 10.5z" fill="#e569e3"/><path d="M379.1 226.3c0 6.2-5.1 11.3-11.3 11.3s-11.3-5.1-11.3-11.3 5.1-11.3 11.3-11.3 11.3 5.1 11.3 11.3z" fill="#5b2a5a"/><path d="M367.8 178.7c-13.2 0-25.1 5.4-33.7 14v67.4l.1.1h-.1v67.3l67.3-67.3c8.7-8.6 14-20.6 14-33.8 0-26.4-21.3-47.7-47.6-47.7zm0 36.3c6.2 0 11.3 5.1 11.3 11.3s-5.1 11.3-11.3 11.3-11.3-5.1-11.3-11.3a11.29 11.29 0 0 1 11.3-11.3z" fill="#fbe2fa"/></svg>