<svg viewBox="0 0 250 250" fill="none" xmlns="http://www.w3.org/2000/svg" role="img" aria-labelledby="owl-title">
<title id="owl-title">React Native Owl</title>
<g clip-path="url(#clip0_6595_23111)">
<path d="M142.616 3.77651L224.27 40.4402C239.917 47.4663 250 63.1336 250 80.4214V169.579C250 186.866 239.917 202.534 224.27 209.56L142.616 246.224C137.071 248.713 131.069 250 125 250C118.931 250 112.93 248.713 107.385 246.224L25.7309 209.56C10.0827 202.534 0 186.866 0 169.579V80.4214C0 63.1336 10.0827 47.4663 25.73 40.4402L107.384 3.77651C112.929 1.2866 118.931 0 125 0C131.069 0 137.071 1.2866 142.616 3.77651Z" fill="#202020"/>
<path opacity="0.5" fill-rule="evenodd" clip-rule="evenodd" d="M138.468 18.2285C133.734 16.1077 128.621 14.8034 123.557 15.0243C119.448 15.2033 115.373 16.5076 111.531 18.2285L32.0002 53.8504C21.6638 58.4798 15 68.83 15 80.2535V170.094C15 181.518 21.6638 191.868 32.0002 196.497L111.531 232.119C115.773 234.019 120.361 235 125 235C129.639 235 134.227 234.019 138.468 232.119L218 196.497C228.336 191.868 235 181.518 235 170.094V80.2535C235 68.8295 228.336 58.4798 218 53.8499L138.468 18.2289L138.468 18.2285Z" stroke="#95DD77" stroke-width="10"/>
<path fill-rule="evenodd" clip-rule="evenodd" d="M140.583 8.34197C135.678 6.13856 130.369 5 125 5C119.632 5 114.323 6.13856 109.418 8.34197L27.7615 45.0208C13.9193 51.2386 5 65.1037 5 80.4033V169.597C5 184.896 13.9193 198.762 27.7615 204.979L109.417 241.658C114.322 243.861 119.631 245 125 245C130.369 245 135.677 243.861 140.583 241.658L222.239 204.979C236.08 198.761 245 184.896 245 169.597V80.4033C245 65.1037 236.08 51.2382 222.239 45.0208L140.583 8.34197V8.34197Z" stroke="#95DD77" stroke-width="10"/>
<path fill-rule="evenodd" clip-rule="evenodd" d="M124.708 160.937C119.533 166.065 113.073 169.683 106.016 171.407C111.368 177.466 117.669 182.657 124.708 186.71C131.748 182.657 138.049 177.466 143.401 171.407C136.344 169.683 129.884 166.065 124.708 160.938" fill="#74BC53"/>
<path fill-rule="evenodd" clip-rule="evenodd" d="M124.713 104.005C131.874 97.0031 141.693 92.6782 152.531 92.6782V92.6431H172.043C181.086 92.6431 188.417 85.3563 188.417 76.3688V69C188.417 73.0697 185.098 76.3688 181.003 76.3688H152.531V76.3617C135.846 76.3617 120.867 83.6062 110.594 95.0992C115.879 97.0368 120.692 100.072 124.713 104.005Z" fill="#ACEF90"/>
<path fill-rule="evenodd" clip-rule="evenodd" d="M77.3735 92.6431H96.8863V92.6788C107.725 92.6788 117.543 97.0031 124.703 104.005C128.724 100.072 133.537 97.0365 138.824 95.0992C128.55 83.6062 113.57 76.3617 96.8863 76.3617V76.3688H68.4136C64.32 76.3688 61 73.0692 61 69V76.3688C61 85.3563 68.3309 92.6431 77.3735 92.6431Z" fill="#ACEF90"/>
<path fill-rule="evenodd" clip-rule="evenodd" d="M124.812 104.103C128.795 100.144 133.572 97.0835 138.824 95.1254C134.811 90.5693 130.089 86.6647 124.812 83.6177C119.536 86.6647 114.814 90.5693 110.802 95.1248C116.053 97.083 120.83 100.143 124.812 104.102M133.219 132.525C133.219 152.466 117.137 168.63 97.3009 168.63C77.4623 168.63 61.3815 152.466 61.3815 132.525C61.3815 112.585 77.4623 96.4206 97.3009 96.4206C117.138 96.4206 133.219 112.585 133.219 132.526" fill="#95DD77"/>
<path fill-rule="evenodd" clip-rule="evenodd" d="M188.417 132.471C188.417 152.441 172.362 168.63 152.557 168.63C132.752 168.63 116.697 152.441 116.697 132.471C116.697 112.501 132.752 96.3118 152.557 96.3118C172.362 96.3118 188.417 112.501 188.417 132.471" fill="#95DD77"/>
<path fill-rule="evenodd" clip-rule="evenodd" d="M116.794 132.471C116.794 143.306 108.061 152.089 97.2903 152.089C86.5176 152.089 77.7855 143.306 77.7855 132.471C77.7855 121.636 86.5176 112.853 97.2903 112.853C108.061 112.853 116.794 121.636 116.794 132.471ZM172.013 132.471C172.013 143.306 163.281 152.089 152.509 152.089C141.737 152.089 133.005 143.306 133.005 132.471C133.005 121.636 141.737 112.853 152.509 112.853C163.281 112.853 172.013 121.636 172.013 132.471Z" fill="#CAFFB4"/>
<path fill-rule="evenodd" clip-rule="evenodd" d="M116.697 132.471C116.697 141.08 119.775 148.979 124.9 155.167C130.025 148.979 133.101 141.08 133.101 132.471C133.101 123.862 130.025 115.964 124.9 109.775C119.775 115.964 116.697 123.862 116.697 132.471Z" fill="#74BC53"/>
<path fill-rule="evenodd" clip-rule="evenodd" d="M124.708 160.937C120.694 164.879 115.883 167.931 110.594 169.891C114.641 174.414 119.398 178.293 124.708 181.325C130.019 178.293 134.776 174.415 138.824 169.891C133.534 167.931 128.723 164.879 124.708 160.937Z" fill="#95DD77"/>
</g>
</svg>
