<svg viewBox="0 0 250 250" fill="none" xmlns="http://www.w3.org/2000/svg" role="img" aria-labelledby="renature-title">
<title id="renature-title">Renature</title>
<g clip-path="url(#clip0_6595_23174)">
<path d="M142.615 3.77647L224.27 40.4405C239.917 47.4658 250 63.1333 250 80.4213V169.578C250 186.866 239.917 202.533 224.27 209.56L142.615 246.224C137.07 248.713 131.069 250 125 250C118.931 250 112.929 248.713 107.384 246.224L25.7303 209.56C10.0831 202.534 0 186.866 0 169.578V80.4213C0 63.1333 10.0827 47.4662 25.7299 40.4405L107.385 3.77647C112.93 1.28658 118.931 0 125 0C131.069 0 137.071 1.28658 142.616 3.77647H142.615Z" fill="#202020"/>
<path opacity="0.5" fill-rule="evenodd" clip-rule="evenodd" d="M138.469 17.8857C134.227 15.983 129.639 15 125 15C120.361 15 115.773 15.983 111.531 17.8857L32.0002 53.564C21.6641 58.2007 15 68.5674 15 80.0089V169.991C15 181.433 21.6637 191.799 32.0002 196.436L111.531 232.114C115.773 234.017 120.36 235 125 235C129.639 235 134.227 234.017 138.468 232.114L218 196.436C228.336 191.799 235 181.433 235 169.991V80.0093C235 68.5674 228.336 58.2011 218 53.5644L138.468 17.8861L138.469 17.8857Z" stroke="#9580FF" stroke-width="10"/>
<path fill-rule="evenodd" clip-rule="evenodd" d="M140.583 8.34198C135.678 6.13856 130.369 5 125 5C119.632 5 114.323 6.13856 109.418 8.34198L27.7612 45.021C13.9194 51.2384 5 65.104 5 80.4032V169.597C5 184.896 13.9194 198.762 27.7612 204.979L109.417 241.658C114.322 243.861 119.631 245 125 245C130.369 245 135.678 243.861 140.583 241.658L222.239 204.979C236.081 198.762 245 184.896 245 169.597V80.4032C245 65.1036 236.081 51.2384 222.239 45.021L140.583 8.34198Z" stroke="#9580FF" stroke-width="10"/>
<path d="M133.312 147.451C85.0292 168.69 42.5485 178.137 38.4289 168.552C34.3092 158.967 70.1107 133.98 118.394 112.742C166.677 91.5034 209.157 82.0563 213.277 91.6411C217.397 101.226 181.595 126.213 133.312 147.451Z" fill="#202020"/>
<path d="M134.271 147.038C84.0467 169.132 39.6366 178.446 35.0789 167.841C30.5212 157.237 67.5417 130.729 117.766 108.635C167.991 86.5417 212.401 77.2279 216.959 87.8326C221.517 98.4372 184.496 124.945 134.271 147.038Z" fill="#202020"/>
<path d="M144.334 169.476C169.222 158.516 180.685 129.336 169.937 104.301C159.188 79.2666 130.299 67.8565 105.41 78.8164C80.5215 89.7762 69.0586 118.956 79.8071 143.99C90.5556 169.025 119.445 180.435 144.334 169.476Z" fill="#D8D8D8"/>
<mask id="mask0_6595_23174" style="mask-type:alpha" maskUnits="userSpaceOnUse" x="75" y="74" width="99" height="100">
<path d="M144.302 169.443C169.208 158.466 180.699 129.286 169.968 104.269C159.237 79.2521 130.348 67.8708 105.442 78.8483C80.5356 89.8258 69.0445 119.005 79.7755 144.022C90.5066 169.04 119.396 180.421 144.302 169.443Z" fill="white"/>
</mask>
<g mask="url(#mask0_6595_23174)">
<path d="M59.8065 97.4702L151.935 56.865L188.19 141.383L96.061 181.988L59.8065 97.4702Z" fill="#7860ED"/>
<path d="M80.7224 118.031C103.094 105.552 128.322 94.4907 156.406 84.8462L165.854 99.5921C142.781 111.861 116.367 120.823 86.6141 126.48C82.8041 122.175 80.8399 119.358 80.7226 118.031L80.7224 118.031Z" fill="#6C55D6"/>
<path d="M75.7874 112.409C107.49 92.2487 130.412 80.3257 144.556 76.6388C159.063 71.8474 163.835 74.6909 158.871 85.1691C117.706 100.492 88.9675 114.317 72.6558 126.645C56.3443 138.974 57.3887 134.228 75.7874 112.409ZM79.1742 145.908C115.129 135.987 146.215 122.293 172.432 104.828C188.841 99.9985 190.572 104.033 177.627 116.931L84.3685 158.012L79.1738 145.909L79.1742 145.908Z" fill="#6551C5"/>
<path d="M85.8374 155.387L174.995 116.094L176.006 129.928L90.6959 161.427L85.8374 155.387ZM63.409 104.356C85.471 89.4407 111.07 79.2373 140.206 73.7461L153.578 78.8973C130.058 82.6898 101.622 93.1894 68.267 110.397C65.0162 107.397 63.3969 105.383 63.409 104.356Z" fill="#6C55D6"/>
</g>
<path d="M106.831 170.207C132.035 180.162 160.39 169.548 171.08 142.337C171.08 142.337 141.865 162.433 109.727 145.153C77.5888 127.874 90.3304 88.3088 90.406 88.1164C60.8862 124.556 81.6268 160.252 106.831 170.207Z" fill="#4C4086"/>
<path d="M107.366 166.664C132.569 176.618 160.923 166.006 171.612 138.795C171.612 138.795 142.399 158.89 110.262 141.612C78.1248 124.333 91.316 87.0736 91.3915 86.8812C61.8729 123.32 82.1627 156.71 107.366 166.664Z" fill="#1F1F1F"/>
<path d="M144.206 169.532C169.095 158.572 180.558 129.393 169.809 104.358C159.061 79.323 130.171 67.9129 105.283 78.8728C80.394 89.8326 68.9311 119.012 79.6796 144.047C90.4281 169.082 119.318 180.492 144.206 169.532Z" stroke="#1F1F1F" stroke-width="2.40149"/>
<path d="M213.973 91.348C218.092 100.932 182.291 125.919 134.009 147.156C99.9332 162.144 68.7473 171.26 51.8971 171.957C69.161 167.562 92.179 159.418 116.821 148.579C165.935 126.975 202.907 102.848 199.4 94.6893C197.63 90.5724 185.894 91.3078 168.391 95.8209C168.066 95.3592 167.734 94.9031 167.394 94.4526C192.955 86.8781 211.334 85.2085 213.973 91.348Z" fill="#202020"/>
<path d="M64.0142 141.425L63.7127 141.677C57.3875 146.978 54.2926 151.287 55.4318 153.937C58.5075 161.091 91.3715 153.667 131.081 137.301C169.615 119.191 197.03 100.142 193.973 93.0324C192.834 90.3825 187.607 89.7324 179.461 90.7965L179.072 90.8476C191.35 88.3605 199.491 88.5562 200.982 92.0259C204.313 99.7741 173.228 120.912 131.552 139.24C116.715 145.765 102.536 151.054 90.2752 154.811C88.4501 155.37 86.6189 155.91 84.782 156.428C65.4335 161.892 51.8916 163.012 49.9237 158.435C48.432 154.965 53.8422 148.81 64.0144 141.425L64.0142 141.425Z" fill="#D6CFF9"/>
<path d="M133.337 144.922C85.0564 166.157 42.5776 175.603 38.4581 166.02C35.8195 159.881 49.56 147.423 72.4686 133.679C72.5626 134.238 72.6659 134.795 72.7783 135.35C57.5775 145.22 49.0423 153.402 50.8116 157.518C53.963 164.849 88.7272 156.792 131.381 139.409C173.04 119.708 202.574 99.4847 199.422 92.1534C197.653 88.0373 185.917 88.7722 168.414 93.2856C168.089 92.824 167.757 92.3679 167.417 91.9175C192.978 84.3431 211.356 82.6741 213.994 88.8126C218.114 98.3963 182.314 123.38 134.033 144.616L133.338 144.922L133.337 144.922Z" fill="#B5ACE1"/>
</g>
</svg>
