<svg viewBox="0 0 604 598" xmlns="http://www.w3.org/2000/svg" xmlns:xlink="http://www.w3.org/1999/xlink" role="img" aria-labelledby="renature-title">
    <title id="renature-title">Renature</title>
  <defs>
    <circle id="a" cx="98.239" cy="98.239" r="98.239"/>
  </defs>
  <g fill="none" fill-rule="evenodd">
    <path d="M344.08 9.423l197.004 87.624c37.75 16.79 62.077 54.234 62.077 95.551v213.078c0 41.317-24.326 78.76-62.077 95.552L344.08 588.852a104.577 104.577 0 01-85 0L62.078 501.228C24.327 484.437 0 446.993 0 405.676V192.598c0-41.317 24.326-78.76 62.077-95.551L259.081 9.423a104.577 104.577 0 0185 0z" fill="#202020" fill-rule="nonzero"/>
    <path d="M334.02 43.503a80.297 80.297 0 00-65.083 0l-192.154 85.18c-24.973 11.07-41.074 35.82-41.074 63.136v214.828c0 27.317 16.1 52.066 41.074 63.136l192.154 85.18a80.297 80.297 0 0065.082 0l192.155-85.18c24.973-11.07 41.074-35.82 41.074-63.136V191.82c0-27.317-16.101-52.066-41.074-63.136l-192.155-85.18z" stroke="#9580FF" stroke-width="24.374" class="inner-ring" opacity=".499"/>
    <path d="M339.176 20.448a92.51 92.51 0 00-75.191 0L66.98 108.072c-33.395 14.853-54.914 47.977-54.914 84.526v213.078c0 36.55 21.519 69.673 54.914 84.527l197.004 87.623a92.51 92.51 0 0075.191 0l197.004-87.623c33.395-14.854 54.914-47.977 54.914-84.527V192.598c0-36.55-21.519-69.673-54.914-84.526L339.176 20.448z" stroke="#9580FF" stroke-width="24.133" class="outer-ring"/>
    <text fill="#9580FF" font-family="Helvetica-Bold, Helvetica" font-size="51" font-weight="bold" letter-spacing="2">
      <tspan x="153" y="455">RENATURE</tspan>
    </text>
    <g transform="rotate(-23.5 629.254 -64.262)">
      <ellipse fill="#202020" fill-rule="nonzero" transform="matrix(-1 0 0 1 393.732 0)" cx="196.866" cy="111.856" rx="190.87" ry="37.71"/>
      <ellipse fill="#202020" fill-rule="nonzero" transform="matrix(-1 0 0 1 397.916 0)" cx="198.958" cy="107.879" rx="198.54" ry="41.719"/>
      <circle cx="98.239" cy="98.239" r="98.239" fill="#D8D8D8" fill-rule="nonzero" transform="translate(101.531 2.01)"/>
      <g transform="translate(101.531 2.01)">
        <mask id="b" fill="#fff">
          <use xlink:href="#a"/>
        </mask>
        <g fill-rule="nonzero" mask="url(#b)">
          <path fill="#7860ED" d="M0-2.707h200.732V180.62H0z"/>
          <path d="M22.056 51.675c50.903-4.814 105.932-4.733 165.086.24l5.718 34.59C140.834 90.37 85.284 85.494 26.21 71.879c-3.6-10.945-4.985-17.68-4.154-20.203z" fill="#6C55D6"/>
          <path d="M17.457 37.389c74.036-11.322 125.479-14.658 154.33-10.01 30.388 2.922 36.904 11.96 19.546 27.112C103.745 49.355 40.135 51.486.502 60.884c-39.633 9.399-33.98 1.567 16.955-23.495zM-2.707 101.333c73.775 10.812 141.588 10.812 203.44 0 33.906 4.383 33.906 13.15 0 26.3H-2.708v-26.3z" fill="#6551C5"/>
          <path fill="#6C55D6" d="M2.144 123.936h194.334l-9.026 26.062L6.3 138.868zM1.16 12.763c52.171-9.476 107.12-7.508 164.847 5.905l20.462 20.157C140.373 26.829 79.989 23.119 5.315 27.695 1.715 19.605.33 14.628 1.16 12.763z"/>
        </g>
      </g>
      <path d="M130.412 169.715c38.365 38.365 98.69 41.777 139.699.768 0 0-69.364 13.178-114.674-44.099-45.31-57.276 9.182-119.151 9.472-119.441-82.786 42.716-72.861 124.407-34.497 162.772z" fill="#4C4086" fill-rule="nonzero"/>
      <path d="M134.193 163.696c38.364 38.364 98.689 41.777 139.698.767 0 0-69.363 13.178-114.674-44.098C113.907 63.088 167.41 5.774 167.7 5.484 84.914 48.2 95.828 125.33 134.193 163.696z" fill="#1F1F1F" fill-rule="nonzero"/>
      <circle stroke="#1F1F1F" stroke-width="5.802" cx="199.491" cy="100.25" r="98.239"/>
      <path d="M389.255 111.856c0 20.827-85.456 37.71-190.87 37.71-74.397 0-138.853-8.41-170.343-20.68 35.168 5.845 83.86 9.464 137.661 9.464 107.23 0 194.157-14.373 194.157-32.102 0-8.946-22.13-17.036-57.83-22.858a101.652 101.652 0 00-.751-3.302c52.913 6.705 87.976 18.427 87.976 31.768z" fill="#202020" fill-rule="nonzero"/>
      <path d="M74.37 82.87l-.753.219c-15.8 4.605-24.885 9.994-24.885 15.754 0 15.551 66.21 28.4 152.05 30.404 85.058-2.127 150.44-14.911 150.44-30.365 0-5.76-9.084-11.15-24.884-15.754l-.754-.219c24.51 5.324 39.304 12.226 39.304 19.768 0 16.842-73.771 30.494-164.772 30.494-32.397 0-62.61-1.73-88.09-4.719a506.717 506.717 0 01-11.364-1.46c-39.844-5.566-65.596-14.404-65.596-24.354 0-7.542 14.794-14.444 39.304-19.767z" fill="#D6CFF9" fill-rule="nonzero"/>
      <path d="M198.91 144.974c-105.414 0-190.869-16.883-190.869-37.71 0-13.34 35.063-25.063 87.976-31.767a101.654 101.654 0 00-.75 3.302c-35.702 5.82-57.832 13.912-57.832 22.857 0 15.932 70.193 29.153 162.235 31.67 92.043-2.518 162.235-15.738 162.235-31.67 0-8.945-22.13-17.036-57.831-22.857a101.652 101.652 0 00-.751-3.302c52.913 6.704 87.976 18.427 87.976 31.767 0 20.827-85.455 37.71-190.87 37.71h-1.518z" fill="#B5ACE1" fill-rule="nonzero"/>
    </g>
  </g>
</svg>
