<svg xmlns="http://www.w3.org/2000/svg" viewBox="0 0 600 600" fill="none" role="img" aria-labelledby="spectacle-title"><title id="spectacle-title">Spectacle</title><g clip-path="url(#A)"><path fill-rule="evenodd" d="M342.277 9.064l195.97 87.994C575.801 113.919 600 151.52 600 193.012v213.976c0 41.491-24.199 79.093-61.752 95.955l-195.971 87.994C328.969 596.912 314.565 600 300 600s-28.969-3.088-42.277-9.063L61.752 502.943C24.198 486.081 0 448.48 0 406.989V193.011c0-41.491 24.198-79.093 61.752-95.954l195.97-87.994A103.2 103.2 0 0 1 300 0c14.565 0 28.968 3.088 42.277 9.064z" fill="#202020"/><g stroke="#fc6986" stroke-width="24"><path class="inner-ring" opacity=".5" d="M332.324 42.925a78.96 78.96 0 0 0-64.648 0L76.801 128.553C51.994 139.681 36 164.561 36 192.021v215.957c0 27.461 15.994 52.34 40.801 63.468l190.875 85.629C277.855 561.641 288.866 564 300 564s22.145-2.359 32.324-6.925l190.875-85.629C548.006 460.318 564 435.439 564 407.978V192.021c0-27.46-15.994-52.34-40.801-63.468L332.324 42.925z"/><path class="outer-ring" d="M337.4 20.021C325.627 14.733 312.885 12 300 12s-25.626 2.733-37.399 8.021l-195.973 88.03C33.407 122.972 12 156.249 12 192.968v214.064c0 36.719 21.407 69.995 54.628 84.918L262.6 579.979C274.373 585.267 287.115 588 300 588s25.627-2.733 37.4-8.021l195.972-88.029C566.593 477.027 588 443.751 588 407.032V192.969c0-36.72-21.406-69.997-54.627-84.918L337.4 20.021z"/></g><path d="M163.606 441.696c1.81 0 3.279-.199 4.408-.598 2.141-.764 3.212-2.183 3.212-4.258 0-1.212-.531-2.15-1.594-2.814-1.062-.648-2.731-1.22-5.005-1.718l-3.885-.872c-3.818-.863-6.458-1.801-7.919-2.814-2.473-1.693-3.71-4.341-3.71-7.944 0-3.287 1.195-6.018 3.586-8.193s5.902-3.262 10.533-3.262c3.869 0 7.164 1.029 9.887 3.088 2.739 2.042 4.175 5.014 4.308 8.915h-7.371c-.133-2.208-1.096-3.777-2.889-4.706-1.195-.615-2.681-.922-4.458-.922-1.975 0-3.552.399-4.731 1.195s-1.768 1.91-1.768 3.337c0 1.312.581 2.291 1.743 2.939.747.431 2.341.938 4.781 1.519l6.326 1.519c2.772.664 4.864 1.552 6.275 2.664 2.191 1.727 3.287 4.226 3.287 7.496 0 3.354-1.287 6.143-3.86 8.367-2.556 2.208-6.176 3.312-10.857 3.312-4.781 0-8.542-1.087-11.281-3.262-2.739-2.191-4.109-5.196-4.109-9.015h7.321c.233 1.677.689 2.931 1.37 3.761 1.245 1.51 3.378 2.266 6.4 2.266zm36.283-7.894h-7.795V447h-7.62v-36.706h15.987c3.686 0 6.624.946 8.816 2.839s3.287 4.823 3.287 8.79c0 4.333-1.096 7.396-3.287 9.189s-5.321 2.69-9.388 2.69zm3.586-7.645c.996-.88 1.494-2.275 1.494-4.184s-.507-3.27-1.519-4.084c-.996-.813-2.399-1.22-4.209-1.22h-7.147v10.808h7.147c1.81 0 3.221-.44 4.234-1.32zm40.391 4.806h-17.83v9.438h20.32V447h-27.815v-36.706h26.919v6.499h-19.424v7.795h17.83v6.375zm34.365 13.298c-2.739 2.507-6.242 3.76-10.508 3.76-5.28 0-9.43-1.693-12.452-5.08-3.021-3.403-4.532-8.068-4.532-13.995 0-6.408 1.719-11.347 5.155-14.817 2.988-3.022 6.79-4.532 11.405-4.532 6.176 0 10.692 2.025 13.547 6.076 1.577 2.274 2.424 4.557 2.54 6.848h-7.67c-.498-1.76-1.137-3.088-1.917-3.984-1.395-1.594-3.462-2.391-6.201-2.391-2.789 0-4.989 1.129-6.599 3.387-1.61 2.241-2.416 5.42-2.416 9.537s.847 7.205 2.541 9.264c1.709 2.042 3.876 3.063 6.499 3.063 2.689 0 4.74-.88 6.151-2.64.78-.946 1.428-2.365 1.942-4.258h7.596c-.665 4.001-2.358 7.255-5.081 9.762zm37.628-33.967v6.499h-10.982V447h-7.72v-30.207h-11.032v-6.499h29.734zm22.213 29.161H324.55L322.01 447h-8.019l13.099-36.706h8.666L348.755 447h-8.317l-2.366-7.545zm-2.142-6.326l-4.582-14.443-4.731 14.443h9.313zm43.405 11.132c-2.739 2.507-6.242 3.76-10.509 3.76-5.279 0-9.43-1.693-12.451-5.08-3.021-3.403-4.532-8.068-4.532-13.995 0-6.408 1.718-11.347 5.155-14.817 2.988-3.022 6.79-4.532 11.405-4.532 6.176 0 10.691 2.025 13.547 6.076 1.577 2.274 2.424 4.557 2.54 6.848h-7.67c-.498-1.76-1.137-3.088-1.918-3.984-1.394-1.594-3.461-2.391-6.2-2.391-2.789 0-4.989 1.129-6.599 3.387-1.611 2.241-2.416 5.42-2.416 9.537s.847 7.205 2.54 9.264c1.71 2.042 3.877 3.063 6.5 3.063 2.689 0 4.739-.88 6.15-2.64.781-.946 1.428-2.365 1.943-4.258h7.595c-.664 4.001-2.357 7.255-5.08 9.762zm10.957-33.967h7.67v30.107h18.179V447h-25.849v-36.706zm56.728 20.669h-17.831v9.438h20.321V447h-27.816v-36.706h26.919v6.499h-19.424v7.795h17.831v6.375z" fill="#fc6986"/><g fill-rule="evenodd"><path d="M288.735 354.664L181.03 248.955c-13.184-12.94-11.647-34.827 3.212-45.737s35.823-5.547 43.809 11.209l65.239 136.891c1.39 2.915-2.262 5.597-4.556 3.346" fill="#f14e74"/><path d="M293.285 351.292l-65.356-136.833c-8.001-16.749.853-36.767 18.501-41.831s35.52 7.284 37.346 25.805l14.921 151.307c.318 3.223-4.02 4.467-5.411 1.553" fill="#fc6986"/><path d="M285.518 359.344L148.54 297.73c-16.767-7.542-22.749-28.628-12.499-44.064s31.751-17.724 44.933-4.783l107.688 105.726c2.293 2.252-.226 6.047-3.144 4.734" fill="#e13e65"/><path d="M134.999 255.46c.734-1.519 6.477-12.36 22.219-15.025 7.141-1.208 17.376 1.157 25.927 10.682l99.147 97.152.714 4.181-97.77-77.641s-15.541-12.302-33.317-.773l-.042-.046c-1.995 1.259-4.3 1.928-6.653 1.929-7.004 0-12.68-5.763-12.68-12.871a12.92 12.92 0 0 1 2.455-7.588z" fill="#fc6986"/><g fill="#ff92ac"><path d="M182.36 204.601c1.202-1.175 10.245-9.375 25.938-6.428 7.119 1.337 15.943 7.106 20.779 19.02l60.486 126.199-.735 4.179-65.753-107.383s-10.471-16.947-31.056-12.266l-.024-.059a12.42 12.42 0 0 1-6.903-.49c-6.582-2.426-9.981-9.809-7.591-16.489a12.77 12.77 0 0 1 4.859-6.283zm61.999-31.173c1.525-.684 12.798-5.224 26.532 3.027 6.23 3.741 12.559 12.24 13.059 25.116l13.986 139.619-2.106 3.665-25.314-123.791s-4.085-19.571-24.998-22.367l-.004-.062c-2.33-.342-4.517-1.338-6.314-2.874-5.357-4.576-6.045-12.695-1.535-18.132 1.729-2.088 4.075-3.56 6.694-4.201z"/><path d="M282.025 190.737l-1.021 134.332s4.049 30.135 9.09 36.335l-23.624-10.599c-8.926-7.669-6.582-24.776-6.582-24.776l22.137-135.292z"/></g><path d="M299.635 362.926c-17.61 0-31.885-14.488-31.885-32.36l18.545-181.358c.708-6.938 6.469-12.208 13.341-12.208s12.631 5.27 13.341 12.208l18.544 181.358c0 17.872-14.276 32.36-31.885 32.36" fill="#e13e65"/><path d="M290.36 167.955l9.29 16.623 9.338-16.41" fill="#ff92ac"/><path d="M312.96 150.525c0 7.469-2.81 24.238-13.324 24.238-10.076 0-13.327-16.769-13.327-24.238S292.276 137 299.636 137s13.325 6.055 13.325 13.525h-.001zm40.458 22.102c-15.41-4.423-30.99 4.435-35.909 19.085l16.547 102.02 37.863-79.271c8.001-16.75-.854-36.77-18.501-41.834zm-53.176 166.849c-1.095-.138-17.89-2.601-17.479-22.583l3.584-89.886c.491-12.305-.964-24.611-4.311-36.454L267.74 330.584a7.5 7.5 0 0 0 .075 2.051c.369 5.055 2.528 18.254 14.896 25.51 4.181 2.452 9.644 4.714 16.368 4.772l.002-.027c.107.003.21.017.318.017 6.386 0 11.564-5.254 11.564-11.738 0-6.192-4.729-11.254-10.722-11.693" fill="#fc6986"/><path d="M271.619 226.424s2.254 13.918-.283 29.553l2.536-8.007 2.443-19.067-4.696-2.479zm90.564-48.795a12.58 12.58 0 0 0-6.693-4.201c-1.526-.684-12.798-5.224-26.533 3.026-4.505 2.706-9.051 7.913-11.417 15.451l7.853 48.423 3.94-19.264s4.084-19.569 24.998-22.367l.004-.062a12.52 12.52 0 0 0 6.313-2.873c5.358-4.577 6.045-12.696 1.535-18.133z" fill="#ff92ac"/><path d="M415.606 203.218c-14.859-10.911-35.823-5.546-43.809 11.209l-37.755 79.22 5.319 32.792a14.93 14.93 0 0 0 .058.443l79.399-77.927c13.184-12.94 11.646-34.827-3.212-45.737z" fill="#f14e74"/><path d="M422.348 210.884c-.916-2.564-2.618-4.765-4.859-6.283-1.202-1.176-10.246-9.376-25.939-6.427-7.118 1.336-15.943 7.104-20.778 19.018l-36.709 76.588 2.074 12.774 40.636-66.365s10.472-16.948 31.056-12.267l.024-.059a12.42 12.42 0 0 0 6.903-.491c6.583-2.425 9.982-9.808 7.592-16.488z" fill="#ff92ac"/><path d="M463.808 253.666c-10.25-15.435-31.752-17.724-44.933-4.783l-79.455 78.008c.323 2.723 1.607 17.109-6.408 24.05l118.297-53.211c16.767-7.542 22.748-28.628 12.499-44.064z" fill="#e13e65"/><path d="M464.85 255.46c-.735-1.519-6.478-12.36-22.22-15.025-7.141-1.209-17.376 1.157-25.927 10.682l-77.285 75.759c.128 1.066.406 3.98.2 7.539l74.995-59.605s15.541-12.304 33.316-.774l.042-.046a12.47 12.47 0 0 0 6.654 1.929c7.002 0 12.68-5.763 12.68-12.871 0-2.841-.919-5.458-2.456-7.588" fill="#fc6986"/></g></g><defs><clipPath id="A"><path fill="#fff" d="M0 0h600v600H0z"/></clipPath></defs></svg>