<svg viewBox="0 0 601 595" xmlns="http://www.w3.org/2000/svg" role="img" aria-labelledby="spectacle-title">
<title id="spectacle-title">Specatcle</title>
  <g fill="none" fill-rule="evenodd">
    <path d="M342.944 9.4l195.97 87.165c37.554 16.703 61.753 53.95 61.753 95.051v211.961c0 41.1-24.199 78.348-61.752 95.051l-195.971 87.165a104.029 104.029 0 01-84.554 0L62.419 498.628C24.865 481.925.667 444.678.667 403.578V191.615c0-41.1 24.198-78.348 61.752-95.05L258.389 9.4a104.029 104.029 0 0184.555 0z" fill="#202020"/>
    <path d="M332.935 43.303a79.877 79.877 0 00-64.74 0L77.047 128.036c-24.842 11.012-40.859 35.632-40.859 62.805v213.702c0 27.174 16.017 51.793 40.859 62.805l191.148 84.734a79.877 79.877 0 0064.74 0l191.148-84.734c24.842-11.012 40.859-35.631 40.859-62.805V190.841c0-27.173-16.017-51.793-40.859-62.805L332.935 43.303z" stroke="#FC6986" class="inner-ring" stroke-width="24.247" opacity=".499"/>
    <path d="M338.066 20.368a92.026 92.026 0 00-74.798 0L67.297 107.533c-33.22 14.775-54.627 47.725-54.627 84.083v211.961c0 36.358 21.407 69.308 54.627 84.084l195.97 87.164a92.026 92.026 0 0074.799 0l195.97-87.164c33.22-14.776 54.627-47.726 54.627-84.084v-211.96c0-36.359-21.406-69.309-54.626-84.084L338.066 20.368z" stroke="#FC6986" class="outer-ring" stroke-width="24.007"/>
    <path d="M288.664 351.514L180.78 246.686c-13.206-12.832-11.667-34.537 3.217-45.356 14.884-10.82 35.883-5.501 43.882 11.116l65.348 135.75c1.392 2.891-2.266 5.55-4.564 3.318" fill="#F14E74"/>
    <path d="M293.222 348.17l-65.465-135.692c-8.014-16.61.855-36.461 18.532-41.483 17.678-5.023 35.579 7.223 37.408 25.59l14.946 150.046c.319 3.196-4.027 4.43-5.42 1.54" fill="#FC6986"/>
    <path d="M285.442 356.155l-137.206-61.1c-16.795-7.48-22.787-28.39-12.52-43.697 10.266-15.307 31.804-17.577 45.008-4.743L288.591 351.46c2.297 2.233-.226 5.996-3.149 4.694" fill="#E13E65"/>
    <path d="M134.672 253.137c.735-1.507 6.488-12.257 22.256-14.9 7.153-1.198 17.405 1.147 25.97 10.593l99.313 96.342.715 4.147-97.933-76.994s-15.567-12.2-33.373-.767l-.042-.046a12.583 12.583 0 01-6.664 1.913c-7.015 0-12.701-5.715-12.701-12.763 0-2.818.92-5.413 2.459-7.525" fill="#FC6986"/>
    <path d="M182.112 202.702c1.204-1.166 10.262-9.297 25.981-6.375 7.131 1.326 15.97 7.047 20.814 18.862l60.587 125.147-.736 4.144-65.863-106.488s-10.489-16.806-31.108-12.164l-.024-.058a12.569 12.569 0 01-6.914-.486c-6.593-2.406-9.998-9.727-7.604-16.352a12.68 12.68 0 014.867-6.23M244.214 171.788c1.528-.678 12.82-5.18 26.577 3.002 6.24 3.71 12.58 12.138 13.08 24.907l14.01 138.455-2.11 3.635-25.356-122.76s-4.092-19.407-25.04-22.18l-.004-.062a12.587 12.587 0 01-6.324-2.85c-5.366-4.538-6.055-12.589-1.538-17.981a12.619 12.619 0 016.705-4.166" fill="#FF92AC"/>
    <path d="M281.943 188.953l-1.022 133.213s4.055 29.884 9.105 36.032l-23.664-10.511c-8.94-7.605-6.593-24.569-6.593-24.569l22.174-134.165z" fill="#FF92AC"/>
    <path d="M299.583 359.707c-17.64 0-31.939-14.367-31.939-32.09L286.22 147.77c.71-6.88 6.48-12.106 13.364-12.106 6.883 0 12.652 5.226 13.363 12.106l18.575 179.847c0 17.723-14.3 32.09-31.938 32.09" fill="#E13E65"/>
    <path fill="#FF92AC" d="M290.292 166.361l9.306 16.484 9.353-16.273"/>
    <path d="M312.93 149.076c0 7.407-2.815 24.036-13.347 24.036-10.092 0-13.349-16.629-13.349-24.036s5.977-13.412 13.349-13.412 13.348 6.005 13.348 13.412M353.455 170.994c-15.436-4.386-31.042 4.398-35.969 18.926l16.575 101.17 37.926-78.611c8.014-16.61-.855-36.463-18.532-41.485M300.19 336.453c-1.096-.137-17.919-2.58-17.508-22.395l3.59-89.137a114.848 114.848 0 00-4.318-36.15l-14.32 138.864a7.42 7.42 0 00.075 2.034c.37 5.013 2.533 18.102 14.921 25.297 4.188 2.432 9.66 4.675 16.396 4.732l.002-.026c.107.003.21.016.318.016 6.397 0 11.583-5.21 11.583-11.64 0-6.14-4.737-11.16-10.74-11.595" fill="#FC6986"/>
    <path d="M271.52 224.343s2.258 13.802-.283 29.306l2.54-7.94 2.447-18.908-4.704-2.458zM362.235 175.954a12.619 12.619 0 00-6.704-4.166c-1.529-.678-12.82-5.18-26.577 3.001-4.513 2.684-9.066 7.847-11.436 15.322l7.866 48.02 3.946-19.104s4.091-19.406 25.04-22.18l.004-.062a12.592 12.592 0 006.323-2.849c5.367-4.539 6.056-12.59 1.538-17.982" fill="#FF92AC"/>
    <path d="M415.747 201.33c-14.884-10.82-35.883-5.5-43.882 11.116l-37.818 78.56 5.328 32.518s.024.156.058.44l79.531-77.278c13.206-12.832 11.666-34.537-3.217-45.356" fill="#F14E74"/>
    <path d="M422.5 208.932a12.685 12.685 0 00-4.867-6.23c-1.204-1.166-10.263-9.298-25.982-6.374-7.13 1.325-15.97 7.045-20.813 18.86l-36.77 75.95 2.077 12.667 40.704-65.812s10.49-16.807 31.108-12.165l.024-.058c2.233.468 4.614.353 6.914-.487 6.594-2.405 9.999-9.726 7.605-16.351" fill="#FF92AC"/>
    <path d="M464.029 251.358c-10.267-15.307-31.805-17.577-45.008-4.743l-79.587 77.358c.324 2.7 1.61 16.966-6.419 23.849l118.494-52.767c16.795-7.48 22.786-28.39 12.52-43.697" fill="#E13E65"/>
    <path d="M465.073 253.137c-.736-1.507-6.489-12.257-22.257-14.9-7.153-1.199-17.405 1.147-25.97 10.593l-77.414 75.128c.128 1.057.407 3.946.2 7.476l75.12-59.109s15.567-12.201 33.372-.767l.042-.046a12.58 12.58 0 006.665 1.913c7.014 0 12.701-5.715 12.701-12.763 0-2.818-.92-5.413-2.46-7.525" fill="#FC6986"/>
    <text font-family="Helvetica-Bold, Helvetica" font-size="52.014" font-weight="bold" letter-spacing="3.853" fill="#FC6986" transform="translate(.667 -10)">
      <tspan x="125.5" y="467">SPECTACLE</tspan>
    </text>
  </g>
</svg>
