<svg viewBox="0 0 250 250" fill="none" xmlns="http://www.w3.org/2000/svg" role="img" aria-labelledby="spectacle-title">
<title id="spectacle-title">Spectacle</title>
<path fill-rule="evenodd" clip-rule="evenodd" d="M142.615 3.7765L224.27 40.4406C239.917 47.4663 250 63.1334 250 80.4217V169.578C250 186.866 239.917 202.534 224.27 209.56L142.615 246.224C137.07 248.713 131.069 250 125 250C118.931 250 112.93 248.713 107.385 246.224L25.73 209.56C10.0825 202.534 0 186.867 0 169.579V80.4213C0 63.1334 10.0825 47.4659 25.73 40.4406L107.384 3.7765C112.929 1.2866 118.931 0 125 0C131.069 0 137.07 1.2866 142.615 3.7765Z" fill="#202020"/>
<path opacity="0.5" fill-rule="evenodd" clip-rule="evenodd" d="M138.468 17.8855C134.227 15.9829 129.639 15 125 15C120.361 15 115.773 15.9829 111.532 17.8855L32.0003 53.5636C21.6642 58.2004 15 68.567 15 80.0086V169.991C15 181.433 21.6642 191.799 32.0003 196.436L111.532 232.114C115.773 234.017 120.361 235 125 235C129.639 235 134.227 234.017 138.468 232.114L218 196.436C228.336 191.799 235 181.433 235 169.991V80.0086C235 68.567 228.336 58.2004 218 53.5636L138.468 17.8855Z" stroke="#FC6986" stroke-width="10"/>
<path fill-rule="evenodd" clip-rule="evenodd" d="M140.582 8.34205C135.676 6.13858 130.367 5 124.999 5C119.63 5 114.321 6.13858 109.416 8.34205L27.7612 45.0211C13.9196 51.2385 5 65.1038 5 80.4033V169.597C5 184.896 13.9196 198.761 27.7612 204.979L109.415 241.658C114.321 243.861 119.63 245 124.999 245C130.367 245 135.676 243.861 140.582 241.658L222.236 204.979C236.078 198.761 244.997 184.896 244.997 169.597V80.4037C244.997 65.1038 236.078 51.2385 222.236 45.0211L140.582 8.34205Z" stroke="#FC6986" stroke-width="10"/>
<path fill-rule="evenodd" clip-rule="evenodd" d="M119.798 178.067L65.3031 124.612C58.6324 118.069 59.4098 107.001 66.9281 101.484C74.4463 95.9668 85.0534 98.6791 89.0938 107.152L122.103 176.375C122.806 177.849 120.958 179.205 119.797 178.067" fill="#F14E74"/>
<path fill-rule="evenodd" clip-rule="evenodd" d="M122.094 176.361L89.0266 107.168C84.9785 98.6982 89.4584 88.5757 98.3875 86.0149C107.317 83.4535 116.359 89.6981 117.283 99.0638L124.833 175.576C124.994 177.206 122.799 177.835 122.095 176.361" fill="#FC6986"/>
<path fill-rule="evenodd" clip-rule="evenodd" d="M118.181 180.434L48.8747 149.278C40.3912 145.463 37.3645 134.801 42.5506 126.996C47.7362 119.19 58.6155 118.033 65.2851 124.577L119.771 178.04C120.931 179.179 119.657 181.098 118.181 180.434" fill="#E13E65"/>
<path fill-rule="evenodd" clip-rule="evenodd" d="M42.0293 127.902C42.4006 127.134 45.3066 121.652 53.2713 120.305C56.8845 119.694 62.063 120.889 66.3894 125.706L116.555 174.833L116.916 176.948L67.4476 137.687C67.4476 137.687 59.5843 131.466 50.5901 137.296L50.5689 137.272C49.5595 137.909 48.3932 138.247 47.2028 138.248C43.6594 138.248 40.7872 135.334 40.7872 131.74C40.7872 130.303 41.2519 128.979 42.0293 127.902Z" fill="#FC6986"/>
<path fill-rule="evenodd" clip-rule="evenodd" d="M65.964 102.183C66.5722 101.589 71.1476 97.4427 79.0876 98.9327C82.6896 99.6089 87.1544 102.526 89.6012 108.551L120.205 172.366L119.833 174.48L86.5644 120.179C86.5644 120.179 81.2662 111.609 70.8511 113.976L70.8389 113.946C69.6748 114.196 68.4646 114.11 67.3465 113.699C64.0162 112.472 62.2963 108.739 63.5056 105.36C63.9687 104.064 64.8301 102.951 65.964 102.183ZM97.3331 86.4196C98.1049 86.0739 103.809 83.7782 110.758 87.9504C113.91 89.8423 117.112 94.1399 117.365 100.651L124.441 171.253L123.376 173.106L110.568 110.508C110.568 110.508 108.501 100.612 97.9195 99.1979L97.9175 99.1662C96.7389 98.9934 95.6321 98.4899 94.7231 97.713C92.0126 95.3989 91.6646 91.2935 93.9462 88.544C94.8211 87.4885 96.0082 86.7439 97.3331 86.4196Z" fill="#FF92AC"/>
<path fill-rule="evenodd" clip-rule="evenodd" d="M116.379 95.1738L115.863 163.102C115.863 163.102 117.911 178.341 120.462 181.476L108.508 176.116C103.993 172.238 105.178 163.588 105.178 163.588L116.379 95.1738Z" fill="#FF92AC"/>
<path fill-rule="evenodd" clip-rule="evenodd" d="M125.298 182.245C116.388 182.245 109.165 174.919 109.165 165.882L118.548 74.1732C118.907 70.6649 121.822 68 125.299 68C128.776 68 131.69 70.6649 132.049 74.1732L141.431 165.882C141.431 174.919 134.208 182.245 125.299 182.245" fill="#E13E65"/>
<path fill-rule="evenodd" clip-rule="evenodd" d="M120.617 83.6526L125.318 92.0582L130.042 83.7602" fill="#FF92AC"/>
<path fill-rule="evenodd" clip-rule="evenodd" d="M132.064 74.8391C132.064 78.6161 130.642 87.0957 125.322 87.0957C120.225 87.0957 118.579 78.6161 118.579 74.8391C118.579 71.0621 121.599 68 125.322 68C129.046 68 132.065 71.0621 132.065 74.8391H132.064ZM152.534 86.0156C144.737 83.7791 136.854 88.2583 134.366 95.6665L142.738 147.256L161.895 107.17C165.943 98.7 161.463 88.5765 152.534 86.0156ZM125.629 170.387C125.075 170.317 116.578 169.072 116.785 158.968L118.599 113.514C118.847 107.292 118.111 101.069 116.418 95.0806L109.184 165.891C109.15 166.237 109.162 166.586 109.222 166.928C109.409 169.484 110.502 176.159 116.759 179.828C118.874 181.068 121.638 182.211 125.041 182.24L125.042 182.227C125.096 182.229 125.148 182.235 125.203 182.235C128.434 182.235 131.053 179.579 131.053 176.3C131.053 173.169 128.661 170.609 125.628 170.387" fill="#FC6986"/>
<path fill-rule="evenodd" clip-rule="evenodd" d="M111.145 113.219C111.145 113.219 112.286 120.257 111.002 128.163L112.285 124.114L113.521 114.472L111.145 113.219ZM156.967 88.5441C156.093 87.4886 154.906 86.7441 153.581 86.4197C152.809 86.074 147.105 83.7783 140.156 87.95C137.877 89.3186 135.577 91.9514 134.38 95.7631L138.353 120.25L140.346 110.508C140.346 110.508 142.413 100.612 152.995 99.1979L152.997 99.1663C154.175 98.9934 155.281 98.4901 156.19 97.7135C158.901 95.399 159.249 91.2936 156.967 88.5441Z" fill="#FF92AC"/>
<path fill-rule="evenodd" clip-rule="evenodd" d="M183.978 101.484C176.46 95.9667 165.853 98.6795 161.813 107.152L142.71 147.212L145.401 163.794C145.401 163.794 145.413 163.873 145.43 164.018L185.603 124.612C192.274 118.069 191.496 107.001 183.978 101.484Z" fill="#F14E74"/>
<path fill-rule="evenodd" clip-rule="evenodd" d="M187.427 105.361C186.963 104.064 186.102 102.951 184.968 102.184C184.36 101.589 179.784 97.4425 171.844 98.9335C168.243 99.6091 163.777 102.526 161.331 108.551L142.758 147.279L143.807 153.739L164.367 120.18C164.367 120.18 169.666 111.609 180.081 113.976L180.093 113.947C181.221 114.185 182.423 114.127 183.585 113.698C186.916 112.472 188.636 108.739 187.427 105.361Z" fill="#FF92AC"/>
<path fill-rule="evenodd" clip-rule="evenodd" d="M208.387 126.996C203.201 119.19 192.322 118.033 185.652 124.577L145.451 164.024C145.615 165.401 146.264 172.675 142.209 176.185L202.063 149.278C210.546 145.463 213.573 134.801 208.387 126.996Z" fill="#E13E65"/>
<path fill-rule="evenodd" clip-rule="evenodd" d="M208.918 127.903C208.546 127.134 205.64 121.652 197.675 120.305C194.062 119.693 188.884 120.89 184.557 125.706L145.454 164.016C145.518 164.555 145.659 166.028 145.555 167.828L183.499 137.687C183.499 137.687 191.363 131.465 200.356 137.296L200.378 137.273C201.387 137.91 202.554 138.248 203.744 138.248C207.287 138.248 210.16 135.334 210.16 131.74C210.16 130.303 209.695 128.98 208.917 127.903" fill="#FC6986"/>
</svg>
