<svg viewBox="0 0 250 250" fill="none" xmlns="http://www.w3.org/2000/svg" role="img" aria-labelledby="urql-title">
<title id="urql-title">URQL</title>
<g clip-path="url(#clip0_6595_22958)">
<path fill-rule="evenodd" clip-rule="evenodd" d="M142.615 3.77641L224.27 40.4405C239.917 47.4662 250 63.1334 250 80.4216V169.578C250 186.866 239.917 202.534 224.27 209.56L142.615 246.224C137.07 248.713 131.069 250 125 250C118.931 250 112.93 248.713 107.385 246.224L25.73 209.56C10.0829 202.534 0 186.867 0 169.579V80.4212C0 63.1334 10.0829 47.4658 25.73 40.4405L107.385 3.77641C112.93 1.28657 118.931 0 125 0C131.069 0 137.07 1.28657 142.615 3.77641Z" fill="#202020"/>
<path opacity="0.5" fill-rule="evenodd" clip-rule="evenodd" d="M138.468 17.8856C134.227 15.983 129.639 15 125 15C120.361 15 115.773 15.983 111.531 17.8856L31.9999 53.5637C21.6638 58.2004 15 68.5671 15 80.0087V169.991C15 181.433 21.6638 191.799 31.9999 196.436L111.531 232.114C115.773 234.017 120.361 235 125 235C129.639 235 134.227 234.017 138.468 232.114L218 196.436C228.336 191.799 235 181.433 235 169.991V80.0087C235 68.5671 228.336 58.2004 218 53.5637L138.469 17.8856H138.468Z" stroke="#8196FF" stroke-width="10"/>
<path fill-rule="evenodd" clip-rule="evenodd" d="M140.583 8.34205C135.678 6.13859 130.369 5 125 5C119.631 5 114.322 6.13859 109.417 8.34205L27.7619 45.0211C13.9197 51.2385 5 65.1039 5 80.4033V169.597C5 184.896 13.9197 198.762 27.7615 204.979L109.417 241.658C114.322 243.861 119.631 245 125 245C130.369 245 135.678 243.861 140.583 241.658L222.238 204.979C236.08 198.762 245 184.896 245 169.597V80.4038C245 65.1039 236.08 51.2385 222.239 45.0211L140.583 8.34205Z" stroke="#8196FF" stroke-width="10"/>
<path fill-rule="evenodd" clip-rule="evenodd" d="M111.994 157.717L134.398 180.666V188.103L141.894 180.611L125.153 163.46V154.256L132.86 162.151L153.146 162.211L165.483 174.847V161.397C165.483 156.839 163.715 152.467 160.569 149.244L125.322 113.138L89.8941 76.8479C88.3943 75.3111 86.6131 74.0919 84.6524 73.26C82.6917 72.4282 80.59 72 78.4675 72C76.3449 72 74.2432 72.4282 72.2825 73.26C70.3218 74.0919 68.5406 75.3111 67.0408 76.8479L45 99.4256H58.223C61.8093 95.7519 67.6241 95.7519 71.2104 99.4256L71.3671 99.586L98.2992 127.174H85.0628L71.3671 113.145V119.508C71.3666 124.053 73.1293 128.413 76.2679 131.629L85.2007 140.779L98.4371 154.337C98.4368 157.18 99.5395 159.908 101.503 161.92L111.971 172.644L118.681 179.517L118.63 185.886L124.955 180.239V187.543L132.182 180.494L111.994 159.815" fill="#8196FF"/>
<path fill-rule="evenodd" clip-rule="evenodd" d="M125.32 113.138L160.748 76.8476C162.248 75.3109 164.029 74.0917 165.99 73.2599C167.95 72.4281 170.052 72 172.174 72C174.297 72 176.398 72.4281 178.359 73.2599C180.32 74.0917 182.101 75.3109 183.601 76.8476L205.642 99.4254H192.419C188.833 95.7517 183.018 95.7517 179.432 99.4254L179.275 99.5858L145.682 133.996" fill="#647BED"/>
<path fill-rule="evenodd" clip-rule="evenodd" d="M145.681 133.997L125.319 113.139L89.891 76.8487C88.3912 75.3119 86.61 74.0926 84.6494 73.2607C82.6888 72.4287 80.5871 72.0003 78.4646 72C77.3307 72 76.2102 72.1259 75.1179 72.3629C78.1789 73.0256 80.9859 74.5838 83.1977 76.8482L118.626 113.139L138.968 133.976L145.681 133.997ZM77.7221 133.122H106.558L112.365 127.175H85.0592L71.364 113.146V119.509C71.3635 124.054 73.1262 128.413 76.2647 131.63L77.7221 133.122Z" fill="#A2B1FF"/>
<path fill-rule="evenodd" clip-rule="evenodd" d="M152.4 154.042C152.4 154.259 152.442 154.473 152.522 154.674C152.603 154.874 152.722 155.056 152.872 155.21C153.021 155.363 153.199 155.485 153.395 155.568C153.591 155.651 153.8 155.694 154.012 155.694C154.224 155.694 154.434 155.651 154.63 155.568C154.825 155.485 155.003 155.363 155.153 155.21C155.303 155.056 155.422 154.874 155.503 154.674C155.583 154.474 155.625 154.259 155.625 154.042C155.625 153.825 155.583 153.611 155.502 153.41C155.421 153.21 155.303 153.028 155.153 152.875C155.003 152.721 154.826 152.599 154.63 152.516C154.434 152.433 154.225 152.391 154.013 152.39H152.4V154.042Z" fill="#4D65DD"/>
<path fill-rule="evenodd" clip-rule="evenodd" d="M83.4211 97.5286C77.008 90.9592 66.6109 90.9592 60.1988 97.5286L59.1313 98.6218C62.7324 95.7846 67.9124 96.0465 71.2115 99.4258L71.273 99.4883H71.3682L104.116 133.128L118.031 132.981L85.1051 99.2538L83.4211 97.5286Z" fill="#647BED"/>
<path fill-rule="evenodd" clip-rule="evenodd" d="M167.185 97.5286C173.598 90.9592 183.995 90.9592 190.407 97.5286L191.475 98.6218C187.874 95.7846 182.693 96.0465 179.395 99.4258L179.333 99.4882H179.238L145.665 133.977L138.634 126.775L165.5 99.2538L167.185 97.5286ZM92.2938 148.044L98.4381 154.338C98.4379 157.181 99.5406 159.909 101.504 161.921L111.972 172.644L118.682 179.517L118.631 185.886L124.956 180.239V187.544L132.183 180.494L111.995 159.815L112.985 158.73L134.398 180.667V188.103L141.895 180.61L125.153 163.461V154.255C123.232 152.287 120.95 150.725 118.438 149.659C115.926 148.593 113.234 148.045 110.514 148.044H92.2938Z" fill="#4D65DD"/>
<path fill-rule="evenodd" clip-rule="evenodd" d="M132.183 180.494L111.995 159.814L100.505 148.044H92.2938L98.4376 154.338C98.4375 157.181 99.5404 159.908 101.504 161.92L111.973 172.643L118.683 179.517L118.631 185.887L124.956 180.238V187.543L132.183 180.493V180.494Z" fill="#647BED"/>
<path fill-rule="evenodd" clip-rule="evenodd" d="M183.601 76.8482C182.101 75.3113 180.32 74.0921 178.36 73.2602C176.399 72.4283 174.297 72.0001 172.175 72C171.041 72 169.92 72.1254 168.828 72.3624C171.889 73.0249 174.696 74.5834 176.908 76.8482L198.949 99.4259H205.642L183.601 76.8482Z" fill="#8196FF"/>
</g>
</svg>
