<svg xmlns="http://www.w3.org/2000/svg" width="600" height="600" fill="none" role="img" aria-labelledby="urql-title"><title id="urql-title">URQL</title><style><![CDATA[.B{fill-rule:evenodd}.C{fill:#647bed}]]></style><g clip-path="url(#A)"><path d="M342.277 9.063l195.971 87.994C575.801 113.919 600 151.52 600 193.012v213.976c0 41.491-24.199 79.093-61.752 95.955l-195.971 87.994C328.969 596.912 314.565 600 300 600s-28.969-3.088-42.277-9.063L61.752 502.943C24.199 486.081 0 448.48 0 406.989V193.011c0-41.491 24.199-79.093 61.752-95.954L257.723 9.063C271.031 3.088 285.435 0 300 0s28.969 3.088 42.277 9.063z" fill="#202020" class="B"/><g stroke="#8196ff" stroke-width="24"><path class="inner-ring" opacity=".5" d="M332.324 42.926C322.145 38.359 311.134 36 300 36s-22.145 2.359-32.324 6.926L76.8 128.553C51.993 139.681 36 164.561 36 192.021v215.957c0 27.461 15.993 52.34 40.8 63.468l190.876 85.629a78.96 78.96 0 0 0 64.647 0l190.876-85.629C548.006 460.318 564 435.439 564 407.978V192.021c0-27.46-15.994-52.34-40.801-63.468L332.325 42.926h-.001z"/><path class="outer-ring" d="M337.402 20.021C325.629 14.733 312.888 12 300.003 12s-25.626 2.733-37.399 8.021l-195.972 88.03c-33.221 14.921-54.629 48.198-54.629 84.917v214.064c0 36.719 21.407 69.996 54.628 84.918l195.974 88.029c11.773 5.288 24.514 8.021 37.399 8.021s25.626-2.733 37.399-8.021l195.972-88.029c33.222-14.922 54.629-48.199 54.629-84.918V192.969c0-36.72-21.407-69.997-54.628-84.918l-195.973-88.03z"/></g><g fill="#8196ff"><path d="M252.808 432.855v-22.561h7.795v22.561c0 3.902-.606 6.94-1.818 9.115-2.258 3.984-6.566 5.976-12.925 5.976s-10.674-1.992-12.949-5.976c-1.212-2.175-1.818-5.213-1.818-9.115v-22.561h7.795v22.561c0 2.524.299 4.367.896 5.529.93 2.058 2.955 3.088 6.076 3.088 3.105 0 5.122-1.03 6.052-3.088.597-1.162.896-3.005.896-5.529zm30.73-.249h-7.919V447h-7.496v-36.706h18.004c2.574.05 4.549.365 5.927.946 1.395.581 2.573 1.436 3.536 2.565a11.37 11.37 0 0 1 1.893 3.088c.465 1.129.697 2.416.697 3.86 0 1.743-.44 3.461-1.32 5.155-.88 1.676-2.332 2.863-4.358 3.561 1.694.68 2.889 1.652 3.586 2.913.714 1.245 1.071 3.155 1.071 5.728v2.465c0 1.677.067 2.814.199 3.412.2.946.664 1.643 1.395 2.092V447h-8.442c-.232-.813-.398-1.469-.498-1.967-.199-1.03-.307-2.084-.324-3.163l-.05-3.412c-.033-2.34-.464-3.901-1.294-4.681-.814-.78-2.35-1.171-4.607-1.171zm4.656-6.673c1.528-.698 2.291-2.076 2.291-4.134 0-2.225-.738-3.719-2.216-4.483-.83-.431-2.075-.647-3.735-.647h-8.915v9.861h8.691c1.726 0 3.021-.199 3.884-.597zm38.674 21.266c-1.644.548-3.611.822-5.902.822-4.781 0-8.733-1.428-11.854-4.283-3.785-3.437-5.677-8.484-5.677-15.141 0-6.707 1.942-11.779 5.827-15.215 3.171-2.806 7.113-4.209 11.828-4.209 4.748 0 8.733 1.486 11.953 4.458 3.719 3.436 5.579 8.243 5.579 14.418 0 3.271-.399 6.01-1.196 8.218-.647 2.108-1.602 3.86-2.864 5.254l4.234 3.96-4.009 4.184-4.433-4.184c-1.345.813-2.507 1.386-3.486 1.718zm-1.644-6.624l-3.71-3.536 3.959-4.134 3.711 3.536c.581-1.195.987-2.241 1.22-3.137.365-1.345.548-2.914.548-4.707 0-4.117-.847-7.296-2.54-9.537-1.677-2.258-4.134-3.387-7.371-3.387-3.039 0-5.462 1.079-7.272 3.237s-2.714 5.387-2.714 9.687c0 5.03 1.295 8.633 3.884 10.808 1.677 1.411 3.686 2.116 6.027 2.116.88 0 1.726-.107 2.54-.323.448-.116 1.021-.324 1.718-.623zm19.275-30.281h7.669v30.107h18.179V447h-25.848v-36.706z"/><g class="B"><path d="M273.063 315.302l45.166 45.594v14.776l15.112-14.886-33.75-34.074v-18.287l15.537 15.686 40.898.119 24.872 25.105v-26.723c0-9.055-3.564-17.742-9.908-24.145l-71.058-71.733-71.424-72.101a32.56 32.56 0 0 0-10.567-7.128c-3.953-1.653-8.19-2.503-12.47-2.503s-8.516.85-12.469 2.503a32.56 32.56 0 0 0-10.567 7.128L138 199.49h26.658c7.23-7.299 18.953-7.299 26.183 0l.316.319 54.296 54.81h-26.685l-27.611-27.872v12.643c-.001 9.029 3.553 17.691 9.88 24.08l18.009 18.18 26.685 26.936c-.001 5.65 2.222 11.068 6.181 15.066l21.104 21.306 13.528 13.655-.104 12.654 12.751-11.22v14.512l14.571-14.005-40.699-41.084"/></g></g><path d="M299.932 226.734l71.424-72.101a32.56 32.56 0 0 1 10.567-7.128c3.953-1.652 8.19-2.503 12.469-2.503s8.516.851 12.469 2.503a32.55 32.55 0 0 1 10.567 7.128l44.436 44.857h-26.658c-7.23-7.299-18.953-7.299-26.183 0l-68.04 68.684" class="B C"/><path d="M340.983 268.174l-41.051-41.44-71.424-72.101a32.56 32.56 0 0 0-10.567-7.128c-3.953-1.653-8.19-2.504-12.469-2.505-2.286 0-4.545.25-6.747.721a32.48 32.48 0 0 1 16.289 8.911l71.424 72.102 41.01 41.399 13.535.041zm-137.008-1.738h58.135l11.707-11.817h-55.05l-27.61-27.872v12.643c-.001 9.03 3.553 17.691 9.88 24.08l2.938 2.966z" fill="#a2b1ff" class="B"/><path d="M354.523 307.999c0 .431.083.858.246 1.256s.403.76.705 1.064a3.24 3.24 0 0 0 1.054.712 3.25 3.25 0 0 0 1.245.251 3.23 3.23 0 0 0 1.245-.25 3.27 3.27 0 0 0 1.055-.712 3.28 3.28 0 0 0 .704-1.065c.164-.398.247-.825.247-1.256s-.084-.857-.247-1.255-.402-.759-.704-1.064-.66-.547-1.055-.712a3.22 3.22 0 0 0-1.244-.25h-3.251v3.281z" fill="#4d65dd" class="B"/><path d="M215.456 195.721c-12.929-13.052-33.89-13.052-46.817 0l-2.152 2.172c7.26-5.637 17.703-5.117 24.354 1.597l.124.124h.192l66.02 66.834 28.053-.292-66.379-67.008-3.395-3.427z" class="B C"/><path d="M384.327 195.721c12.929-13.052 33.89-13.052 46.817 0l2.152 2.172c-7.26-5.637-17.704-5.117-24.354 1.597l-.124.124h-.192l-67.683 68.521-14.175-14.309 54.162-54.678 3.397-3.427zM233.344 296.084l12.387 12.504c0 5.649 2.223 11.068 6.181 15.065l21.104 21.304 13.528 13.655-.104 12.656 12.751-11.22v14.512l14.571-14.007-40.699-41.084 1.995-2.154 43.17 43.582v14.775l15.114-14.887-33.752-34.072v-18.289c-3.874-3.911-8.475-7.014-13.539-9.132a41.43 41.43 0 0 0-15.974-3.208h-36.733z" fill="#4d65dd" class="B"/><path d="M313.762 360.554l-40.7-41.085-23.165-23.385h-16.553l12.386 12.504a21.41 21.41 0 0 0 6.182 15.065l21.105 21.304 13.528 13.656-.105 12.656 12.752-11.222v14.513l14.57-14.007v.001z" class="B C"/><path d="M417.428 154.633a32.55 32.55 0 0 0-10.567-7.128c-3.953-1.653-8.19-2.504-12.469-2.504-2.286 0-4.545.249-6.747.72 6.171 1.316 11.83 4.413 16.289 8.912l44.435 44.857h13.495l-44.436-44.857z" fill="#8196ff" class="B"/></g><defs><clipPath id="A"><path fill="#fff" d="M0 0h600v600H0z"/></clipPath></defs></svg>