<svg viewBox="0 0 600 595" xmlns="http://www.w3.org/2000/svg" role="img" aria-labelledby="urql-title">
    <title id="urql-title">URQL (Urkel)</title>
  <g fill="none" fill-rule="evenodd">
    <path d="M342.277 9.4l195.971 87.165C575.801 113.268 600 150.515 600 191.616v211.961c0 41.1-24.199 78.348-61.752 95.051l-195.971 87.165a104.029 104.029 0 01-84.554 0L61.752 498.628C24.199 481.925 0 444.678 0 403.578V191.615c0-41.1 24.199-78.348 61.752-95.05L257.723 9.4a104.029 104.029 0 0184.554 0z" fill="#202020"/>
    <path d="M332.269 43.303a79.877 79.877 0 00-64.741 0L76.38 128.036c-24.842 11.012-40.858 35.632-40.858 62.805v213.702c0 27.174 16.016 51.793 40.858 62.805l191.148 84.734a79.877 79.877 0 0064.74 0l191.148-84.734c24.842-11.012 40.859-35.631 40.859-62.805V190.841c0-27.173-16.017-51.793-40.859-62.805L332.27 43.303z" stroke="#8196FF" class="inner-ring" stroke-width="24.247" opacity=".499"/>
    <path d="M337.399 20.368a92.026 92.026 0 00-74.798 0l-195.97 87.165c-33.221 14.775-54.628 47.725-54.628 84.083v211.961c0 36.358 21.407 69.308 54.627 84.084l195.971 87.164a92.026 92.026 0 0074.798 0l195.97-87.164c33.221-14.776 54.628-47.726 54.628-84.084v-211.96c0-36.359-21.407-69.309-54.627-84.084L337.399 20.368z" stroke="#8196FF" class="outer-ring" stroke-width="24.007"/>
    <text font-family="Helvetica-Bold, Helvetica" font-size="51" font-weight="bold" letter-spacing="2" fill="#8196FF" transform="translate(0 -10)">
      <tspan x="223" y="464">URQL</tspan>
    </text>
    <path d="M273.063 317.233l45.166 45.214V377.1l15.112-14.762-33.75-33.79v-18.135l15.537 15.555 40.898.118 24.872 24.896v-26.5c0-8.98-3.564-17.594-9.908-23.944l-71.058-71.135-71.424-71.5a32.556 32.556 0 00-46.073 0L138 202.386h26.658c7.23-7.238 18.953-7.238 26.183 0l.316.316 54.296 54.354h-26.685l-27.611-27.64v12.537a33.79 33.79 0 009.88 23.88l18.009 18.028 26.685 26.712a21.14 21.14 0 006.181 14.94l21.104 21.129 13.528 13.541-.104 12.548 12.751-11.126v14.391l14.571-13.888-40.699-40.742" fill="#8196FF"/>
    <path d="M299.932 229.403l71.424-71.5a32.556 32.556 0 0146.072 0l44.436 44.483h-26.658c-7.23-7.238-18.953-7.238-26.183 0l-.316.316-67.724 67.796" fill="#647BED"/>
    <path d="M340.983 270.498l-41.051-41.095-71.424-71.5a32.562 32.562 0 00-23.036-9.553c-2.286 0-4.545.248-6.747.715a32.558 32.558 0 0116.289 8.837l71.424 71.501 41.01 41.054 13.535.041zM203.975 268.774h58.135l11.707-11.718h-55.05l-27.61-27.64v12.537a33.79 33.79 0 009.88 23.88l2.938 2.941z" fill="#A2B1FF"/>
    <path d="M354.523 309.991a3.252 3.252 0 003.25 3.255 3.252 3.252 0 003.251-3.255 3.252 3.252 0 00-3.25-3.254h-3.251v3.254z" fill="#4D65DD"/>
    <path d="M215.456 198.648c-12.929-12.943-33.89-12.943-46.817 0l-2.152 2.154c7.26-5.59 17.703-5.074 24.354 1.584l.124.123h.192l66.02 66.277 28.053-.29-66.379-66.449-3.395-3.399z" fill="#647BED"/>
    <path d="M384.327 198.648c12.929-12.943 33.89-12.943 46.817 0l2.152 2.154c-7.26-5.59-17.704-5.074-24.354 1.584l-.124.123h-.192l-67.683 67.95-14.175-14.19 54.162-54.222 3.397-3.399zM233.344 298.175l12.387 12.4a21.14 21.14 0 006.181 14.939l21.104 21.127 13.528 13.541-.104 12.55 12.751-11.126v14.391l14.571-13.89-40.699-40.742 1.995-2.136 43.17 43.219V377.1l15.114-14.763-33.752-33.788v-18.137a41.72 41.72 0 00-29.513-12.237h-36.733z" fill="#4D65DD"/>
    <path d="M313.762 362.108l-40.7-40.743-23.165-23.19h-16.553l12.386 12.4a21.14 21.14 0 006.182 14.939l21.105 21.127 13.528 13.542-.105 12.55 12.752-11.128v14.392l14.57-13.89z" fill="#647BED"/>
    <path d="M417.428 157.903a32.556 32.556 0 00-23.036-9.552c-2.286 0-4.545.247-6.747.714a32.548 32.548 0 0116.289 8.838l44.435 44.483h13.495l-44.436-44.483z" fill="#8196FF"/>
  </g>
</svg>
