<svg viewBox="0 0 250 250" fill="none" xmlns="http://www.w3.org/2000/svg" role="img" aria-labelledby="victory-title">
<title id="victory-title">Victory</title>
<path fill-rule="evenodd" clip-rule="evenodd" d="M142.615 3.77641L224.27 40.4405C239.917 47.4662 250 63.1334 250 80.4216V169.578C250 186.866 239.917 202.534 224.27 209.56L142.615 246.224C137.07 248.713 131.069 250 125 250C118.931 250 112.93 248.713 107.385 246.224L25.73 209.56C10.0829 202.534 0 186.867 0 169.579V80.4212C0 63.1334 10.0829 47.4658 25.73 40.4405L107.385 3.77641C112.93 1.28657 118.931 0 125 0C131.069 0 137.07 1.28657 142.615 3.77641Z" fill="#202020"/>
<path opacity="0.5" fill-rule="evenodd" clip-rule="evenodd" d="M138.468 17.8856C134.227 15.983 129.639 15 125 15C120.361 15 115.773 15.983 111.531 17.8856L31.9999 53.5637C21.6638 58.2004 15 68.5671 15 80.0087V169.991C15 181.433 21.6638 191.799 31.9999 196.436L111.531 232.114C115.773 234.017 120.361 235 125 235C129.639 235 134.227 234.017 138.468 232.114L218 196.436C228.336 191.799 235 181.433 235 169.991V80.0087C235 68.5671 228.336 58.2004 218 53.5637L138.469 17.8856H138.468Z" stroke="#FF684F" stroke-width="10"/>
<path fill-rule="evenodd" clip-rule="evenodd" d="M140.583 8.34205C135.678 6.13859 130.369 5 125 5C119.631 5 114.322 6.13859 109.417 8.34205L27.7619 45.0211C13.9197 51.2385 5 65.1039 5 80.4033V169.597C5 184.896 13.9197 198.762 27.7615 204.979L109.417 241.658C114.322 243.861 119.631 245 125 245C130.369 245 135.678 243.861 140.583 241.658L222.238 204.979C236.08 198.762 245 184.896 245 169.597V80.4038C245 65.1039 236.08 51.2385 222.239 45.0211L140.583 8.34205Z" stroke="#FF684F" stroke-width="10"/>
<path fill-rule="evenodd" clip-rule="evenodd" d="M82.6962 70.313H95.1126L128.057 191.78H115.639L82.6962 70.313Z" fill="#FF684F"/>
<path fill-rule="evenodd" clip-rule="evenodd" d="M160.751 117.326H148.25L128.062 191.78H140.475L160.751 117.326Z" fill="#E04126"/>
<path fill-rule="evenodd" clip-rule="evenodd" d="M183.046 80.8481H170.672L155.872 135.227H168.194L183.046 80.8481Z" fill="#FF684F"/>
<path fill-rule="evenodd" clip-rule="evenodd" d="M70.2858 70.313H82.7034L115.646 191.78C112.079 191.78 108.611 190.597 105.775 188.412C102.939 186.228 100.892 183.163 99.9502 179.69L70.2858 70.313Z" fill="#E04126"/>
<path fill-rule="evenodd" clip-rule="evenodd" d="M95.1273 70.313C98.6945 70.313 102.163 71.4963 104.999 73.6808C107.835 75.8652 109.881 78.9299 110.823 82.4032L140.488 191.78H128.071L95.1273 70.313Z" fill="#FF9877"/>
<path fill-rule="evenodd" clip-rule="evenodd" d="M82.6972 70.313L85.5601 80.8475H71.6665C68.5594 80.8475 65.5385 79.8163 63.069 77.9127C60.5995 76.0092 58.8184 73.3388 58 70.313H82.6972Z" fill="#FF684F"/>
<path d="M187.778 100.177C192.858 96.5901 194.099 89.5273 190.552 84.3949L179.912 69L162.52 77.2632C156.881 79.9423 154.461 86.729 157.115 92.4214L157.12 92.4334L176.171 83.3821L187.778 100.177V100.177Z" fill="#FF684F"/>
</svg>
