<svg xmlns="http://www.w3.org/2000/svg" width="600" height="600" fill="none" role="img" aria-labelledby="victory-title"><title id="victory-title">Victory</title><style><![CDATA[.B{fill-rule:evenodd}.C{fill:#ff684f}]]></style><g clip-path="url(#A)"><path d="M342.277 9.063l195.971 87.994C575.801 113.919 600 151.52 600 193.012v213.976c0 41.491-24.199 79.093-61.752 95.955l-195.971 87.994C328.969 596.912 314.565 600 300 600s-28.969-3.088-42.277-9.063L61.752 502.943C24.199 486.081 0 448.48 0 406.989V193.011c0-41.491 24.199-79.093 61.752-95.954L257.723 9.063C271.031 3.088 285.435 0 300 0s28.969 3.088 42.277 9.063z" fill="#202020" class="B"/><g stroke="#ff684f" stroke-width="24"><path class="inner-ring" opacity=".5" d="M332.324 42.926C322.145 38.359 311.134 36 300 36s-22.145 2.359-32.324 6.926L76.8 128.553C51.993 139.681 36 164.561 36 192.021v215.957c0 27.461 15.993 52.34 40.8 63.468l190.876 85.629a78.96 78.96 0 0 0 64.647 0l190.876-85.629C548.006 460.318 564 435.439 564 407.978V192.021c0-27.46-15.994-52.34-40.801-63.468L332.325 42.926h-.001z"/><path class="outer-ring" d="M337.402 20.021C325.629 14.733 312.888 12 300.003 12s-25.626 2.733-37.399 8.021l-195.972 88.03c-33.221 14.921-54.629 48.198-54.629 84.917v214.064c0 36.719 21.407 69.996 54.628 84.918l195.974 88.029c11.773 5.288 24.514 8.021 37.399 8.021s25.626-2.733 37.399-8.021l195.972-88.029c33.222-14.922 54.629-48.199 54.629-84.918V192.969c0-36.72-21.407-69.997-54.628-84.918l-195.973-88.03z"/></g><g class="C"><path d="M188.66 410.294h8.193l7.968 27.866 8.044-27.866h7.968L208.308 447h-7.247l-12.401-36.706zm36.133 0h7.62V447h-7.62v-36.706zm40.69 33.967c-2.739 2.507-6.242 3.76-10.508 3.76-5.28 0-9.43-1.693-12.452-5.08-3.021-3.403-4.532-8.068-4.532-13.995 0-6.408 1.718-11.347 5.155-14.817 2.988-3.022 6.79-4.532 11.405-4.532 6.176 0 10.692 2.025 13.547 6.076 1.577 2.274 2.424 4.557 2.54 6.848h-7.67c-.498-1.76-1.137-3.088-1.917-3.984-1.395-1.594-3.462-2.391-6.201-2.391-2.789 0-4.989 1.129-6.599 3.387-1.61 2.241-2.416 5.42-2.416 9.537s.847 7.205 2.54 9.264c1.71 2.042 3.877 3.063 6.5 3.063 2.689 0 4.74-.88 6.151-2.64.78-.946 1.428-2.365 1.942-4.258h7.595c-.664 4.001-2.357 7.255-5.08 9.762zm37.628-33.967v6.499h-10.982V447h-7.72v-30.207h-11.032v-6.499h29.734zm19.847 37.727c-5.246 0-9.255-1.428-12.028-4.283-3.719-3.503-5.578-8.55-5.578-15.141 0-6.723 1.859-11.77 5.578-15.14 2.773-2.856 6.782-4.284 12.028-4.284s9.255 1.428 12.028 4.284c3.702 3.37 5.553 8.417 5.553 15.14 0 6.591-1.851 11.638-5.553 15.141-2.773 2.855-6.782 4.283-12.028 4.283zm7.247-9.861c1.776-2.242 2.664-5.429 2.664-9.563 0-4.117-.896-7.296-2.689-9.537-1.777-2.258-4.184-3.387-7.222-3.387s-5.462 1.12-7.271 3.362-2.715 5.428-2.715 9.562.905 7.321 2.715 9.563 4.233 3.361 7.271 3.361 5.454-1.12 7.247-3.361zm31.8-5.554h-7.919V447h-7.496v-36.706h18.005c2.573.05 4.549.365 5.926.946 1.395.581 2.574 1.436 3.537 2.565a11.39 11.39 0 0 1 1.892 3.088c.465 1.129.697 2.416.697 3.86 0 1.743-.439 3.461-1.319 5.155-.88 1.676-2.333 2.863-4.358 3.561 1.693.68 2.888 1.652 3.586 2.913.714 1.245 1.07 3.155 1.07 5.728v2.465c0 1.677.067 2.814.2 3.412.199.946.664 1.643 1.394 2.092V447h-8.442c-.232-.813-.398-1.469-.498-1.967a18.05 18.05 0 0 1-.323-3.163l-.05-3.412c-.033-2.34-.465-3.901-1.295-4.681-.814-.78-2.349-1.171-4.607-1.171zm4.657-6.673c1.527-.698 2.291-2.076 2.291-4.134 0-2.225-.739-3.719-2.217-4.483-.83-.431-2.075-.647-3.735-.647h-8.915v9.861h8.691c1.726 0 3.021-.199 3.885-.597zm44.351-15.639l-12.277 22.91V447h-7.67v-13.796l-12.7-22.91h9.039l7.62 15.987 7.297-15.987h8.691z"/><g class="B"><path d="M224.72 153.323h21.98l58.319 214.79h-21.982l-58.317-214.79z"/></g></g><path d="M362.887 236.456h-22.13L305.02 368.113h21.973l35.894-131.657z" fill="#e04126" class="B"/><path d="M402.364 171.952H380.46l-26.201 96.158h21.814l26.291-96.158z" class="B C"/><path d="M202.738 153.323h21.982l58.317 214.79a28.65 28.65 0 0 1-17.475-5.955c-5.021-3.863-8.643-9.282-10.311-15.424l-52.513-193.411z" fill="#e04126" class="B"/><path d="M246.701 153.323a28.65 28.65 0 0 1 17.475 5.956c5.021 3.862 8.643 9.282 10.311 15.424L327 368.113h-21.981l-58.318-214.79z" fill="#ff9877" class="B"/><g class="C"><path d="M224.72 153.323l5.068 18.629h-24.595c-5.5 0-10.848-1.824-15.22-5.19s-7.524-8.088-8.973-13.439h43.72z" class="B"/><path d="M410.724 206.13c8.993-6.342 11.19-18.832 4.911-27.907L396.799 151l-30.789 14.612c-9.982 4.737-14.266 16.738-9.568 26.804l.01.021 33.724-16.005 20.548 29.697v.001z"/></g></g><defs><clipPath id="A"><path fill="#fff" d="M0 0h600v600H0z"/></clipPath></defs></svg>