<svg xmlns="http://www.w3.org/2000/svg" width="250" height="250" fill="none" role="img" aria-labelledby="nuka-title"><title id="nuka-title">Nuka</title><g clip-path="url(#A)"><path fill-rule="evenodd" d="M142.601 3.784l81.653 36.663C239.918 47.469 250 63.152 250 80.432v89.136c0 17.28-10.082 32.921-25.746 39.985l-81.653 36.663c-11.206 5.045-23.996 5.045-35.244 0l-81.653-36.663C10.082 202.447 0 186.806 0 169.526V80.39c0-17.28 10.082-32.921 25.746-39.985l81.611-36.621c11.207-5.045 24.038-5.045 35.244 0z" fill="#202020"/><g stroke="#e569e3" stroke-width="10" stroke-miterlimit="10"><path class="inner-ring" opacity=".5" d="M230.46 185.796c-2.956 4.591-7.202 8.34-12.363 10.656l-79.549 35.673c-8.575 3.833-18.357 3.833-26.932 0l-79.632-35.673a28.66 28.66 0 0 1-12.363-10.656C16.665 181.206 15 175.73 15 170.002V79.998c0-5.728 1.665-11.161 4.621-15.794 2.956-4.591 7.201-8.339 12.363-10.656l79.548-35.673a32.98 32.98 0 0 1 26.933 0l79.548 35.673c5.162 2.317 9.408 6.065 12.363 10.656s4.621 10.066 4.621 15.794v90.004c.083 5.728-1.582 11.204-4.537 15.794z"/><path class="outer-ring" d="M238.71 190.692c-3.956 6.144-9.663 11.194-16.577 14.266l-81.638 36.696a37.94 37.94 0 0 1-31.156 0l-81.638-36.696a38.52 38.52 0 0 1-16.578-14.266C7.166 184.548 5 177.225 5 169.608V80.392c0-7.659 2.249-14.94 6.206-21.084s9.663-11.194 16.578-14.266l81.638-36.696a37.94 37.94 0 0 1 31.156 0l81.638 36.696a38.52 38.52 0 0 1 16.578 14.266C242.751 65.452 245 72.775 245 80.392v89.216c-.083 7.617-2.333 14.94-6.29 21.084z"/></g><path d="M43 158.394v-33.026l32.928-32.879 16.488-.049v49.465H59.488L43 158.394z" fill="#5b2a5a"/><path d="M92.416 76L75.928 92.488l16.488-.049V76z" fill="#893f88"/><path d="M108.861 76h-16.44V92.44h16.44V76z" fill="#e569e3"/><path d="M108.91 141.905l-.049-49.465h-16.44v49.465h16.489z" fill="#893f88"/><path d="M125.393 141.905h-16.488l-.049-49.465h16.537v49.465z" fill="#e569e3"/><path d="M125.393 76h-16.537V92.44h16.537V76z" fill="#efa5ee"/><path d="M141.873 76h-16.489l16.489 16.439V76z" fill="#fbe2fa"/><path d="M125.384 92.44V76l16.489 16.439h-16.489z" fill="#f5c3f4"/><path d="M141.873 158.394l-16.489-16.489V92.44h16.489v65.954z" fill="#efa5ee"/><path d="M207.486 120.23l-49.172 49.074-5.235 5.235-.294.294h-27.448l7.242-7.193 9.247-9.149V76h16.929c25.344.196 46.138 19.473 48.682 44.181l.049.049z" fill="#f5c3f4"/><path d="M207.74 125.416c0 27.301-22.115 49.416-49.416 49.416h-5.529l.293-.293 5.236-5.235 49.122-49.025c.196 1.663.294 3.376.294 5.137z" fill="#e569e3"/><path d="M163.9 108.928a5.56 5.56 0 0 1-5.529 5.529c-3.034 0-5.529-2.496-5.529-5.529s2.495-5.529 5.529-5.529 5.529 2.495 5.529 5.529z" fill="#5b2a5a"/><path d="M158.366 85.638c-6.458 0-12.28 2.642-16.488 6.85v32.977l.049.049h-.049v32.928l32.928-32.928c4.256-4.208 6.849-10.079 6.849-16.538 0-12.916-10.421-23.338-23.289-23.338zm0 17.761c3.034 0 5.529 2.495 5.529 5.528s-2.495 5.529-5.529 5.529-5.529-2.495-5.529-5.529 2.447-5.528 5.529-5.528z" fill="#fbe2fa"/></g><defs><clipPath id="A"><path fill="#fff" d="M0 0h250v250H0z"/></clipPath></defs></svg>