<svg
  xmlns="http://www.w3.org/2000/svg"
  viewBox="0 0 250 250"
  fill="none"
  role="img"
  aria-labelledby="nuka-title"
>
  <title id="nuka-title">Nuka</title>
  <g>
    <path
      id="Polygon-Copy-4_2_"
      style="fill-rule: evenodd; clip-rule: evenodd; fill: #202020"
      d="M141.9107971,9.7216148
		l78.3883972,34.8657646C235.3205261,51.2686043,245,66.1675873,245,82.6077652v84.7844772
		c0,16.4401703-9.6794739,31.3391571-24.7008057,38.0203705l-78.3883972,34.8657532
		c-10.7654419,4.7882996-23.0561447,4.7882996-33.8215866,0l-78.3884048-34.8657532
		c-15.0213394-6.6812134-24.7008018-21.5802002-24.7008018-38.0203705V82.6077652
		c0-16.4401779,9.6794624-31.3391609,24.7008018-38.0203857l78.3884048-34.8657646
		C118.8546524,4.933342,131.1453552,4.933342,141.9107971,9.7216148z"
    />
    <g>
      <rect
        x="107.8631287"
        y="79.8328934"
        style="fill: #f5c3f4"
        width="15.1190901"
        height="15.0295954"
      />
      <path
        style="fill: #202020"
        d="M198.0184326,120.2696991l-44.9546356,44.8651581l-4.7862244,4.7862244l-0.2684021,0.2683716
			h-25.0940552l6.6201782-6.5754547l8.4541626-8.3647003v-0.1341858l0.0447235,0.044754v-0.0223999l-15.0519638-15.0519562
			V79.8328934h30.4841385c23.170639,0.1789322,42.1813049,17.8029175,44.5073242,40.3920593
			C198.0184326,120.2696991,198.0184326,120.2696991,198.0184326,120.2696991z"
      />
    </g>

    <rect
      x="119.2252502"
      y="79.8105316"
      style="fill-rule: evenodd; clip-rule: evenodd; fill: #fbe2fa"
      width="22.4546013"
      height="16.4927063"
    />
    <g>
      <polygon
        style="fill: #f5c3f4"
        points="138.0565338,94.8624878 138.0565338,155.1598663 122.9822159,140.0855103 
			122.9822159,94.8624878 107.8631287,94.8624878 107.8631287,79.8328934 122.9822159,79.8328934 		"
      />
    </g>
    <g>
      <polygon
        style="fill: #efa5ee"
        points="138.0341797,94.8624878 138.0341797,155.1598663 122.9598312,140.0855103 
			122.9598312,140.0631561 107.8855133,140.0631561 107.8407669,94.8624878 107.8407669,94.840126 92.8111725,94.840126 
			92.8111725,79.8105316 107.8407669,79.8105316 107.8407669,79.8328934 122.9598312,79.8328934 122.9598312,94.8624878 		"
      />
    </g>
    <g>
      <polygon
        style="fill: #e569e3"
        points="122.9598312,94.840126 122.9598312,140.0631561 92.8111725,140.0631561 
			92.8111725,94.840126 77.7368317,94.8848724 92.8111725,79.8105316 107.8407669,79.8105316 107.8407669,94.840126 		"
      />
    </g>
    <g>
      <polygon
        style="fill: #893f88"
        points="107.8855133,140.0855103 62.7072334,140.0855103 47.6328888,155.1598663 
			47.6328888,124.9664536 77.7368317,94.9072342 92.8111725,79.8328934 92.8111725,94.8624878 107.8407669,94.8624878 		"
      />
    </g>
    <g>
      <polygon
        style="fill: #5b2a5a"
        points="47.632885,155.1598511 47.632885,124.9664383 77.7368317,94.9072266 
			92.8111649,94.8625031 92.8111649,140.0855103 62.7072182,140.0855103 		"
      />
    </g>
    <g>
      <path
        style="fill: #fbe2fa"
        d="M198.0184326,120.2696991l-44.9546356,44.8651581l-4.7862244,4.7862244l-0.2684021,0.2683716
			h-25.0940552l6.6201782-6.5754547l8.4541626-8.3647003V79.8328934h15.4768982
			c23.170639,0.1789322,42.1813049,17.8029175,44.5073242,40.3920593
			C198.0184326,120.2696991,198.0184326,120.2696991,198.0184326,120.2696991z"
      />
    </g>
    <g>
      <polygon
        style="fill: #fbe2fa"
        points="122.9822159,79.8328934 122.9822159,79.8552475 122.9598312,79.8328934 		"
      />
    </g>
    <g>
      <path
        style="fill: #e569e3"
        d="M198.2420807,125.0111694c0,24.9598846-20.218399,45.1782837-45.1782837,45.1782837h-16.7338715
			l58.4097137-62.6636276c1.6639709,3.9765854,2.7733307,8.2394638,3.2340393,12.6991272
			c0.044754,0.0447464,0.044754,0.0447464,0.044754,0.0447464l-0.044754,0.0447235
			C198.1526184,121.8352814,198.2420807,123.4008713,198.2420807,125.0111694z"
      />
    </g>
    <g>
      <path
        style="fill: #f5c3f4"
        d="M198.0184174,120.2696838l-44.9546356,44.8651733l-4.7862244,4.7862244l-0.2683868,0.2683868
			h-25.0940704l6.6201782-6.5754547l8.4541473-8.3647003v-75.41642h15.4769287
			c23.1706238,0.1789169,42.1813049,17.8029251,44.507309,40.392067
			C198.0184174,120.2696838,198.0184174,120.2696838,198.0184174,120.2696838z"
      />
    </g>
    <g>
      <path
        style="fill: #5b2a5a"
        d="M166.6707611,111.9003906c0,3.3944626-1.3629303,6.4803619-3.6002045,8.6919174
			l-17.3066864,17.3067093V120.592308h0.0257111l-0.0257111-0.0257187v-17.3324127
			c2.2115631-2.2115555,5.2717133-3.6001968,8.6661987-3.6001968
			C161.1932983,99.6339798,166.6707611,105.1114273,166.6707611,111.9003906z"
      />
    </g>
    <g>
      <path
        style="fill: #fbe2fa"
        d="M153.1085205,88.6448898c-5.9044952,0-11.227478,2.4154739-15.0743408,6.2623367v30.1486816
			l0.0447235,0.0447311h-0.0447235v30.1039352l30.1039276-30.1039352c3.8916016-3.8468628,6.2623444-9.2145844,6.2623444-15.119072
			C174.4004669,98.1725922,164.872757,88.6448898,153.1085205,88.6448898z M153.1085205,104.8822327
			c2.7733307,0,5.0545959,2.2812881,5.0545959,5.0546036c0,2.7733231-2.2812805,5.0546036-5.0545959,5.0546036
			s-5.0545959-2.2812805-5.0545959-5.0546036C148.0539246,107.1635208,150.2904663,104.8822327,153.1085205,104.8822327z"
      />
    </g>
    <g>
      <polygon
        style="fill: #f5c3f4"
        points="133.7278442,136.7098846 133.7278442,136.7286835 133.6903229,136.6911316 
			133.6903229,136.6723633 		"
      />
    </g>
    <g stroke="#e569e3" stroke-width="10" stroke-miterlimit="10">
      <path
        id="Polygon-Copy-5_2_"
        style="fill: none"
        class="inner-ring"
        opacity=".5"
        d="M230.4851379,185.171402
		c-2.9622803,4.5534363-7.2184296,8.2651215-12.3938751,10.5593262l-79.6458282,35.3058929
		c-8.5888519,3.8073273-18.3867416,3.8073273-26.9755859,0l-79.6458282-35.3058929
		c-5.1754494-2.2942047-9.4315968-6.0058899-12.3938808-10.5593262c-2.9622822-4.553421-4.630703-9.9485931-4.630703-15.6097412
		V80.5178146c0-5.6611557,1.6684208-11.0563202,4.630703-15.6097488c2.9622841-4.553421,7.2184315-8.2651138,12.3938808-10.5593185
		l79.6458282-35.3059006c8.5888443-3.8073139,18.386734-3.8073139,26.9755859,0l79.6458282,35.3059006
		c5.1754456,2.2942047,9.4315948,6.0058975,12.3938751,10.5593185c2.9622955,4.5534286,4.6307068,9.9485931,4.6307068,15.6097488
		v89.0438461C235.1158447,175.2228088,233.4474335,180.617981,230.4851379,185.171402z"
      />
      <path
        id="Polygon-Copy_2_"
        style="fill: none"
        class="outer-ring"
        d="M238.8100281,190.0489807
		c-3.9601135,6.0955505-9.6504669,11.0670166-16.5714417,14.1453247l-81.6555481,36.318924
		c-9.9201813,4.4123383-21.2458954,4.4123383-31.1660767,0l-81.6555405-36.318924
		c-6.920969-3.0783081-12.6113243-8.0497742-16.5714378-14.1453247S5,176.7337799,5,169.1591034V80.8409042
		c0-7.5746841,2.2298698-14.7943268,6.1899824-20.8898849c3.9601126-6.0955505,9.6504679-11.0670052,16.5714378-14.1453323
		l81.6555405-36.3189278c9.9201813-4.4123225,21.2458954-4.4123225,31.1660767,0l81.6555481,36.3189278
		c6.9209747,3.0783272,12.6113281,8.0497818,16.5714417,14.1453323C242.7701263,66.0465775,245,73.2662201,245,80.8409042
		v88.3181992C245,176.7337799,242.7701263,183.9534302,238.8100281,190.0489807z"
      />
    </g>
  </g>
</svg>
