<svg xmlns="http://www.w3.org/2000/svg" width="250" height="250" fill="none" role="img" aria-labelledby="owl-title"><title id="owl-title">React Native Owl</title><g clip-path="url(#A)"><path d="M142.616 3.777L224.27 40.44C239.917 47.466 250 63.134 250 80.421v89.158c0 17.287-10.083 32.955-25.73 39.981l-81.654 36.664C137.071 248.713 131.069 250 125 250a43.01 43.01 0 0 1-17.615-3.776L25.731 209.56C10.083 202.534 0 186.866 0 169.579V80.421C0 63.134 10.083 47.466 25.73 40.44l81.654-36.664A43 43 0 0 1 125 0a43 43 0 0 1 17.616 3.777z" fill="#202020"/><g stroke="#95dd77" stroke-width="10"><path class="inner-ring" opacity=".5" d="M138.468 18.229c-4.734-2.121-9.847-3.425-14.911-3.204-4.109.179-8.184 1.483-12.026 3.204L32 53.85C21.664 58.48 15 68.83 15 80.254v89.84c0 11.424 6.664 21.774 17 26.403l79.531 35.622c4.242 1.9 8.83 2.881 13.469 2.881s9.227-.981 13.468-2.881L218 196.497c10.336-4.629 17-14.979 17-26.403v-89.84c0-11.424-6.664-21.774-17-26.404l-79.532-35.621h0z"/><path class="outer-ring" d="M140.583 8.342C135.678 6.139 130.369 5 125 5a38.02 38.02 0 0 0-15.582 3.342L27.762 45.021C13.919 51.239 5 65.104 5 80.403v89.194c0 15.299 8.919 29.165 22.762 35.382l81.656 36.679A38.03 38.03 0 0 0 125 245c5.369 0 10.677-1.139 15.583-3.342l81.656-36.679C236.08 198.761 245 184.896 245 169.597V80.403c0-15.3-8.92-29.165-22.761-35.382L140.583 8.342h0z"/></g><g fill-rule="evenodd"><path d="M124.708 160.937c-5.175 5.128-11.635 8.746-18.692 10.47 5.352 6.059 11.653 11.25 18.692 15.303 7.04-4.053 13.341-9.244 18.693-15.303-7.057-1.724-13.517-5.342-18.693-10.47" fill="#74bc53"/><g fill="#acef90"><path d="M124.713 104.005c7.161-7.002 16.98-11.327 27.818-11.327v-.035h19.512c9.043 0 16.374-7.287 16.374-16.274V69c0 4.07-3.319 7.369-7.414 7.369h-28.472v-.007c-16.685 0-31.664 7.245-41.937 18.737 5.285 1.938 10.098 4.973 14.119 8.906z"/><path d="M77.374 92.643h19.513v.036c10.839 0 20.657 4.324 27.817 11.326 4.021-3.933 8.834-6.968 14.121-8.906a56.09 56.09 0 0 0-41.938-18.737v.007H68.414C64.32 76.369 61 73.069 61 69v7.369c0 8.988 7.331 16.274 16.374 16.274z"/></g><g fill="#95dd77"><path d="M124.812 104.103c3.983-3.959 8.76-7.019 14.012-8.978-4.013-4.556-8.735-8.461-14.012-11.508-5.276 3.047-9.998 6.952-14.01 11.507 5.251 1.958 10.028 5.018 14.01 8.977m8.407 28.423c0 19.941-16.082 36.105-35.918 36.105s-35.919-16.164-35.919-36.105 16.081-36.104 35.919-36.104 35.918 16.164 35.918 36.105"/><path d="M188.417 132.471c0 19.97-16.055 36.159-35.86 36.159s-35.86-16.189-35.86-36.159 16.055-36.159 35.86-36.159 35.86 16.189 35.86 36.159"/></g><path d="M116.794 132.471c0 10.835-8.733 19.618-19.504 19.618s-19.505-8.783-19.505-19.618 8.732-19.618 19.505-19.618 19.504 8.783 19.504 19.618zm55.219 0c0 10.835-8.732 19.618-19.504 19.618s-19.504-8.783-19.504-19.618 8.732-19.618 19.504-19.618 19.504 8.783 19.504 19.618z" fill="#caffb4"/><path d="M116.697 132.471c0 8.609 3.078 16.508 8.203 22.696 5.125-6.188 8.201-14.087 8.201-22.696s-3.076-16.507-8.201-22.696c-5.125 6.189-8.203 14.087-8.203 22.696z" fill="#74bc53"/><path d="M124.708 160.937a39.96 39.96 0 0 1-14.114 8.954c4.047 4.523 8.804 8.402 14.114 11.434 5.311-3.032 10.068-6.91 14.116-11.434-5.29-1.96-10.101-5.012-14.116-8.954z" fill="#95dd77"/></g></g><defs><clipPath id="A"><path fill="#fff" d="M0 0h250v250H0z"/></clipPath></defs></svg>