<svg xmlns="http://www.w3.org/2000/svg" width="250" height="250" fill="none" role="img" aria-labelledby="renature-title"><title id="renature-title">Renature</title><path d="M142.615 3.776l81.655 36.664C239.917 47.466 250 63.133 250 80.421v89.157c0 17.288-10.083 32.955-25.73 39.982l-81.655 36.664A43.01 43.01 0 0 1 125 250c-6.069 0-12.071-1.287-17.616-3.776L25.73 209.56C10.083 202.534 0 186.866 0 169.578V80.421c0-17.288 10.083-32.955 25.73-39.981l81.655-36.664C112.93 1.287 118.931 0 125 0a43 43 0 0 1 17.616 3.776h-.001z" fill="#202020"/><g stroke="#9580ff" stroke-width="10"><path class="inner-ring" opacity=".5" d="M138.469 17.886C134.227 15.983 129.639 15 125 15s-9.227.983-13.469 2.886L32 53.564c-10.336 4.637-17 15.003-17 26.445v89.982c0 11.442 6.664 21.808 17 26.445l79.531 35.678C115.773 234.017 120.36 235 125 235a32.89 32.89 0 0 0 13.468-2.886L218 196.436c10.336-4.637 17-15.003 17-26.445V80.009c0-11.442-6.664-21.808-17-26.445l-79.532-35.678h.001z"/><path class="outer-ring" d="M140.583 8.342C135.678 6.139 130.369 5 125 5a38.02 38.02 0 0 0-15.582 3.342L27.761 45.021C13.919 51.238 5 65.104 5 80.403v89.194c0 15.299 8.919 29.165 22.761 35.382l81.656 36.679a38.03 38.03 0 0 0 31.166 0l81.656-36.679C236.081 198.762 245 184.896 245 169.597V80.403c0-15.3-8.919-29.165-22.761-35.382L140.583 8.342z"/></g><g fill="#202020"><path d="M133.312 147.451c-48.283 21.239-90.764 30.686-94.883 21.101s31.682-34.572 79.965-55.81 90.763-30.686 94.883-21.101-31.682 34.572-79.965 55.81z"/><path d="M134.271 147.038c-50.224 22.094-94.634 31.408-99.192 20.803s32.463-37.112 82.687-59.206 94.635-31.407 99.193-20.802-32.463 37.112-82.688 59.205z"/></g><path d="M144.334 169.476c24.888-10.96 36.351-40.14 25.603-65.175s-39.638-36.445-64.527-25.485-36.351 40.14-25.603 65.174 39.638 36.445 64.527 25.486z" fill="#d8d8d8"/><mask id="A" maskUnits="userSpaceOnUse" x="75" y="74" width="99" height="100" mask-type="alpha"><path d="M144.302 169.443c24.906-10.977 36.398-40.157 25.666-65.174s-39.62-36.398-64.526-25.421-36.397 40.157-25.666 65.174a48.7 48.7 0 0 0 64.526 25.421z" fill="#fff"/></mask><g mask="url(#A)"><path d="M59.807 97.47l92.129-40.605 36.255 84.518-92.129 40.605L59.807 97.47z" fill="#7860ed"/><path d="M80.722 118.031c22.372-12.479 47.6-23.54 75.684-33.185l9.448 14.746c-23.073 12.269-49.487 21.232-79.24 26.888-3.81-4.305-5.774-7.121-5.892-8.449h0z" fill="#6c55d6"/><path d="M75.787 112.409c31.703-20.16 54.626-32.083 68.769-35.77 14.507-4.791 19.279-1.948 14.315 8.53-41.165 15.323-69.903 29.148-86.215 41.476s-15.267 7.583 3.132-14.236zm3.387 33.499c35.955-9.921 67.041-23.615 93.258-41.08 16.409-4.83 18.14-.795 5.195 12.103l-93.258 41.081-5.195-12.103v-.001z" fill="#6551c5"/><path d="M85.837 155.387l89.158-39.293 1.011 13.834-85.31 31.499-4.858-6.04zm-22.428-51.031c22.062-14.915 47.661-25.119 76.797-30.61l13.372 5.151c-23.52 3.792-51.956 14.292-85.311 31.5-3.251-3-4.87-5.014-4.858-6.041z" fill="#6c55d6"/></g><path d="M106.831 170.207c25.204 9.955 53.559-.659 64.249-27.87 0 0-29.215 20.096-61.353 2.816S90.33 88.309 90.406 88.117c-29.52 36.441-8.779 72.136 16.425 82.09z" fill="#4c4086"/><path d="M107.366 166.664c25.203 9.954 53.557-.658 64.246-27.869 0 0-29.213 20.095-61.35 2.817S91.316 87.074 91.392 86.881c-29.519 36.439-9.229 69.829 15.975 79.783z" fill="#1f1f1f"/><path d="M144.206 169.532c24.889-10.96 36.352-40.139 25.603-65.174s-39.638-36.445-64.526-25.485-36.352 40.139-25.603 65.174 39.638 36.445 64.526 25.485z" stroke="#1f1f1f" stroke-width="2.401"/><path d="M213.973 91.348c4.119 9.584-31.682 34.57-79.964 55.808-34.076 14.988-65.262 24.104-82.112 24.801 17.264-4.395 40.282-12.539 64.924-23.378 49.114-21.604 86.086-45.731 82.579-53.89-1.77-4.117-13.506-3.382-31.009 1.132-.325-.462-.657-.918-.997-1.368 25.561-7.575 43.94-9.244 46.579-3.105z" fill="#202020"/><path d="M64.014 141.425l-.302.252c-6.325 5.301-9.42 9.61-8.281 12.26 3.076 7.154 35.94-.27 75.649-16.636 38.534-18.11 65.949-37.159 62.892-44.269-1.139-2.65-6.366-3.3-14.512-2.236l-.389.051c12.278-2.487 20.419-2.291 21.91 1.178 3.331 7.748-27.754 28.886-69.43 47.214-14.837 6.525-29.016 11.814-41.277 15.571l-5.493 1.617c-19.348 5.464-32.89 6.584-34.858 2.007-1.492-3.47 3.919-9.625 14.091-17.01h0z" fill="#d6cff9"/><path d="M133.337 144.922c-48.281 21.235-90.759 30.681-94.879 21.098-2.639-6.139 11.102-18.597 34.01-32.341.094.559.197 1.116.31 1.671-15.201 9.87-23.736 18.051-21.967 22.168 3.151 7.331 37.916-.726 80.569-18.109 41.659-19.701 71.193-39.924 68.041-47.256-1.769-4.116-13.505-3.381-31.008 1.132a51.04 51.04 0 0 0-.997-1.368c25.561-7.574 43.939-9.243 46.577-3.105 4.12 9.584-31.68 34.567-79.961 55.804l-.695.305-.001.001z" fill="#b5ace1"/></svg>