<svg xmlns="http://www.w3.org/2000/svg" viewBox="0 0 250 250" fill="none" role="img" aria-labelledby="urql-title"><title id="urql-title">URQL</title><g clip-path="url(#A)"><path fill-rule="evenodd" d="M142.615 3.776l81.655 36.664C239.917 47.466 250 63.133 250 80.422v89.156c0 17.288-10.083 32.956-25.73 39.982l-81.655 36.664a43.01 43.01 0 0 1-35.23 0L25.73 209.56C10.083 202.534 0 186.867 0 169.579V80.421c0-17.288 10.083-32.955 25.73-39.981l81.655-36.664C112.93 1.287 118.931 0 125 0s12.07 1.287 17.615 3.776z" fill="#202020"/><g stroke="#8196ff" stroke-width="10"><path class="inner-ring" opacity=".5" d="M138.468 17.886A32.9 32.9 0 0 0 125 15c-4.639 0-9.227.983-13.469 2.886L32 53.564C21.664 58.2 15 68.567 15 80.009v89.982c0 11.442 6.664 21.808 17 26.445l79.531 35.678A32.9 32.9 0 0 0 125 235a32.89 32.89 0 0 0 13.468-2.886L218 196.436c10.336-4.637 17-15.003 17-26.445V80.009c0-11.442-6.664-21.808-17-26.445l-79.531-35.678h-.001z"/><path class="outer-ring" d="M140.583 8.342a38.02 38.02 0 0 0-31.166 0L27.762 45.021C13.92 51.239 5 65.104 5 80.403v89.194c0 15.299 8.92 29.165 22.762 35.382l81.656 36.679a38.03 38.03 0 0 0 31.166 0l81.655-36.679C236.08 198.762 245 184.896 245 169.597V80.404c0-15.3-8.92-29.165-22.761-35.383L140.583 8.342z"/></g><g fill-rule="evenodd"><path d="M111.994 157.717l22.404 22.949v7.437l7.496-7.492-16.741-17.151v-9.204l7.707 7.895 20.286.06 12.337 12.636v-13.45c0-4.558-1.768-8.93-4.914-12.153l-35.247-36.106-35.428-36.29a16.13 16.13 0 0 0-5.242-3.588 15.83 15.83 0 0 0-12.37 0 16.13 16.13 0 0 0-5.242 3.588L45 99.426h13.223a9.03 9.03 0 0 1 12.987 0l.157.16 26.932 27.588H85.063l-13.696-14.029v6.363c0 4.545 1.762 8.905 4.901 12.121l8.933 9.15 13.236 13.558c0 2.843 1.102 5.571 3.066 7.583l10.468 10.724 6.71 6.873-.051 6.369 6.325-5.647v7.304l7.227-7.049-20.188-20.679" fill="#8196ff"/><path d="M125.32 113.138l35.428-36.29a16.13 16.13 0 0 1 5.242-3.588c1.96-.832 4.062-1.26 6.184-1.26a15.83 15.83 0 0 1 6.185 1.26 16.13 16.13 0 0 1 5.242 3.588l22.041 22.578h-13.223a9.03 9.03 0 0 0-12.987 0l-.157.16-33.593 34.41" fill="#647bed"/><path d="M145.681 133.997l-20.362-20.858-35.428-36.29a16.13 16.13 0 0 0-5.242-3.588C82.689 72.429 80.587 72 78.465 72c-1.134 0-2.254.126-3.347.363 3.061.663 5.868 2.221 8.08 4.485l35.428 36.291 20.342 20.837 6.713.021zm-67.959-.875h28.836l5.807-5.947H85.059l-13.695-14.029v6.363c-.001 4.545 1.762 8.904 4.901 12.121l1.457 1.492z" fill="#a2b1ff"/><path d="M152.4 154.042a1.69 1.69 0 0 0 .122.632c.081.2.2.382.35.536s.327.275.523.358a1.58 1.58 0 0 0 .617.126c.212 0 .422-.043.618-.126s.373-.205.523-.358.269-.336.349-.536.123-.415.123-.632a1.69 1.69 0 0 0-.123-.632c-.081-.2-.199-.382-.349-.535a1.6 1.6 0 0 0-1.14-.485H152.4v1.652z" fill="#4d65dd"/><path d="M83.421 97.529c-6.413-6.569-16.81-6.569-23.222 0l-1.067 1.093c3.601-2.837 8.781-2.575 12.08.804l.061.063h.095l32.748 33.64 13.915-.147-32.926-33.727-1.684-1.725z" fill="#647bed"/><path d="M167.185 97.529a16.14 16.14 0 0 1 23.222 0l1.068 1.093c-3.601-2.837-8.782-2.575-12.08.804l-.062.062h-.095l-33.573 34.489-7.031-7.202L165.5 99.254l1.685-1.725zm-74.891 50.515l6.144 6.294a10.86 10.86 0 0 0 3.066 7.583l10.468 10.723 6.71 6.873-.051 6.369 6.325-5.647v7.305l7.227-7.05-20.188-20.679.99-1.085 21.413 21.937v7.436l7.497-7.493-16.742-17.149v-9.206c-1.921-1.968-4.203-3.53-6.715-4.596s-5.204-1.614-7.924-1.615h-18.22z" fill="#4d65dd"/><path d="M132.183 180.494l-20.188-20.68-11.49-11.77h-8.211l6.144 6.294c0 2.843 1.103 5.57 3.066 7.582l10.469 10.723 6.71 6.874-.052 6.37 6.325-5.649v7.305l7.227-7.05v.001z" fill="#647bed"/><path d="M183.601 76.848c-1.5-1.537-3.281-2.756-5.241-3.588S174.297 72 172.175 72c-1.134 0-2.255.125-3.347.362 3.061.663 5.868 2.221 8.08 4.486l22.041 22.578h6.693l-22.041-22.578z" fill="#8196ff"/></g></g><defs><clipPath id="A"><path fill="#fff" d="M0 0h250v250H0z"/></clipPath></defs></svg>