<svg xmlns="http://www.w3.org/2000/svg" width="250" height="250" fill="none" role="img" aria-labelledby="victory-title"><title id="victory-title">Victory</title><path fill-rule="evenodd" d="M142.615 3.776l81.655 36.664C239.917 47.466 250 63.133 250 80.422v89.156c0 17.288-10.083 32.956-25.73 39.982l-81.655 36.664a43.01 43.01 0 0 1-35.23 0L25.73 209.56C10.083 202.534 0 186.867 0 169.579V80.421c0-17.288 10.083-32.955 25.73-39.981l81.655-36.664C112.93 1.287 118.931 0 125 0s12.07 1.287 17.615 3.776z" fill="#202020"/><g stroke="#ff684f" stroke-width="10"><path class="inner-ring" opacity=".5" d="M138.468 17.886A32.9 32.9 0 0 0 125 15c-4.639 0-9.227.983-13.469 2.886L32 53.564C21.664 58.2 15 68.567 15 80.009v89.982c0 11.442 6.664 21.808 17 26.445l79.531 35.678A32.9 32.9 0 0 0 125 235a32.89 32.89 0 0 0 13.468-2.886L218 196.436c10.336-4.637 17-15.003 17-26.445V80.009c0-11.442-6.664-21.808-17-26.445l-79.531-35.678h-.001z"/><path class="outer-ring" d="M140.583 8.342a38.02 38.02 0 0 0-31.166 0L27.762 45.021C13.92 51.239 5 65.104 5 80.403v89.194c0 15.299 8.92 29.165 22.762 35.382l81.656 36.679a38.03 38.03 0 0 0 31.166 0l81.655-36.679C236.08 198.762 245 184.896 245 169.597V80.404c0-15.3-8.92-29.165-22.761-35.383L140.583 8.342z"/></g><g fill-rule="evenodd"><path d="M82.696 70.313h12.416l32.944 121.467h-12.418L82.696 70.313z" fill="#ff684f"/><path d="M160.751 117.326H148.25l-20.188 74.454h12.413l20.276-74.454z" fill="#e04126"/><path d="M183.046 80.848h-12.374l-14.8 54.379h12.322l14.852-54.379z" fill="#ff684f"/><path d="M70.286 70.313h12.418l32.943 121.467a16.17 16.17 0 0 1-9.871-3.368c-2.836-2.184-4.883-5.249-5.825-8.722L70.286 70.313z" fill="#e04126"/><path d="M95.127 70.313c3.567 0 7.036 1.183 9.872 3.368s4.882 5.249 5.825 8.722l29.664 109.377h-12.417L95.127 70.313z" fill="#ff9877"/><path d="M82.697 70.313l2.863 10.534H71.667a14.08 14.08 0 0 1-8.597-2.935c-2.47-1.903-4.251-4.574-5.069-7.6h24.697z" fill="#ff684f"/></g><path d="M187.778 100.177c5.08-3.587 6.322-10.65 2.775-15.782L179.912 69l-17.392 8.263c-5.639 2.679-8.059 9.466-5.405 15.158l.005.012 19.051-9.051 11.607 16.795h0z" fill="#ff684f"/></svg>